<svg width="80" height="81" viewBox="0 0 80 81" fill="none" xmlns="http://www.w3.org/2000/svg">
<path d="M73.3346 26.123C73.3507 25.9122 73.3507 25.7005 73.3346 25.4897L66.668 8.82302C66.4076 8.16421 65.9441 7.60548 65.3447 7.22787C64.7454 6.85027 64.0413 6.67344 63.3346 6.72302H16.668C16.0004 6.72238 15.348 6.9222 14.7952 7.29662C14.2425 7.67104 13.815 8.2028 13.568 8.82302L6.9013 25.4897C6.88523 25.7005 6.88523 25.9122 6.9013 26.123C6.79054 26.3086 6.71167 26.5114 6.66797 26.723C6.70507 29.0272 7.33872 31.2823 8.50712 33.2686C9.67551 35.2549 11.3388 36.9044 13.3346 38.0564V70.0564C13.3346 70.9404 13.6858 71.7883 14.3109 72.4134C14.9361 73.0385 15.7839 73.3897 16.668 73.3897H63.3346C64.2187 73.3897 65.0665 73.0385 65.6917 72.4134C66.3168 71.7883 66.668 70.9404 66.668 70.0564V38.1897C68.6831 37.0263 70.3588 35.3558 71.5283 33.3442C72.6979 31.3325 73.3206 29.0499 73.3346 26.723C73.3659 26.5242 73.3659 26.3218 73.3346 26.123ZM43.3346 66.723H36.668V53.3897H43.3346V66.723ZM60.0013 66.723H50.0013V50.0564C50.0013 49.1723 49.6501 48.3245 49.025 47.6993C48.3999 47.0742 47.552 46.723 46.668 46.723H33.3346C32.4506 46.723 31.6027 47.0742 30.9776 47.6993C30.3525 48.3245 30.0013 49.1723 30.0013 50.0564V66.723H20.0013V40.0564C21.8995 40.0456 23.7736 39.6297 25.4981 38.8364C27.2227 38.0431 28.758 36.8908 30.0013 35.4564C31.2525 36.8751 32.7913 38.0114 34.5155 38.7897C36.2396 39.568 38.1096 39.9705 40.0013 39.9705C41.893 39.9705 43.763 39.568 45.4871 38.7897C47.2113 38.0114 48.7501 36.8751 50.0013 35.4564C51.2446 36.8908 52.7799 38.0431 54.5045 38.8364C56.229 39.6297 58.1031 40.0456 60.0013 40.0564V66.723ZM60.0013 33.3897C58.2332 33.3897 56.5375 32.6873 55.2873 31.4371C54.037 30.1868 53.3346 28.4911 53.3346 26.723C53.3346 25.839 52.9834 24.9911 52.3583 24.366C51.7332 23.7409 50.8854 23.3897 50.0013 23.3897C49.1172 23.3897 48.2694 23.7409 47.6443 24.366C47.0192 24.9911 46.668 25.839 46.668 26.723C46.668 28.4911 45.9656 30.1868 44.7153 31.4371C43.4651 32.6873 41.7694 33.3897 40.0013 33.3897C38.2332 33.3897 36.5375 32.6873 35.2873 31.4371C34.037 30.1868 33.3346 28.4911 33.3346 26.723C33.3346 25.839 32.9834 24.9911 32.3583 24.366C31.7332 23.7409 30.8854 23.3897 30.0013 23.3897C29.1172 23.3897 28.2694 23.7409 27.6443 24.366C27.0192 24.9911 26.668 25.839 26.668 26.723C26.7008 27.5985 26.5609 28.4719 26.2562 29.2933C25.9515 30.1147 25.488 30.868 24.8921 31.5103C24.2963 32.1526 23.5798 32.6712 22.7835 33.0365C21.9872 33.4019 21.1268 33.6069 20.2513 33.6397C18.4832 33.706 16.7612 33.0672 15.464 31.8638C14.8218 31.268 14.3031 30.5515 13.9378 29.7552C13.5724 28.9589 13.3675 28.0985 13.3346 27.223L18.9346 13.3897H61.068L66.668 27.223C66.5416 28.9031 65.7838 30.473 64.547 31.617C63.3102 32.7611 61.6861 33.3944 60.0013 33.3897Z" fill="black"/>
</svg>
