<svg width="52" height="53" viewBox="0 0 52 53" fill="none" xmlns="http://www.w3.org/2000/svg">
<path id="Vector" d="M22.36 31.18L16.705 25.525C16.2283 25.0483 15.6433 24.81 14.95 24.81C14.2567 24.81 13.65 25.07 13.13 25.59C12.6533 26.0667 12.415 26.6733 12.415 27.41C12.415 28.1467 12.6533 28.7533 13.13 29.23L20.54 36.64C21.0167 37.1167 21.6233 37.355 22.36 37.355C23.0967 37.355 23.7033 37.1167 24.18 36.64L38.935 21.885C39.4117 21.4083 39.65 20.8233 39.65 20.13C39.65 19.4367 39.39 18.83 38.87 18.31C38.3933 17.8333 37.7867 17.595 37.05 17.595C36.3133 17.595 35.7067 17.8333 35.23 18.31L22.36 31.18ZM26 52.5C22.4033 52.5 19.0233 51.8171 15.86 50.4512C12.6967 49.0871 9.945 47.235 7.605 44.895C5.265 42.555 3.41293 39.8033 2.0488 36.64C0.682934 33.4767 0 30.0967 0 26.5C0 22.9033 0.682934 19.5233 2.0488 16.36C3.41293 13.1967 5.265 10.445 7.605 8.105C9.945 5.765 12.6967 3.91207 15.86 2.5462C19.0233 1.18207 22.4033 0.5 26 0.5C29.5967 0.5 32.9767 1.18207 36.14 2.5462C39.3033 3.91207 42.055 5.765 44.395 8.105C46.735 10.445 48.5871 13.1967 49.9512 16.36C51.3171 19.5233 52 22.9033 52 26.5C52 30.0967 51.3171 33.4767 49.9512 36.64C48.5871 39.8033 46.735 42.555 44.395 44.895C42.055 47.235 39.3033 49.0871 36.14 50.4512C32.9767 51.8171 29.5967 52.5 26 52.5Z" fill="#ADB5BD"/>
</svg>
