<svg width="97" height="97" viewBox="0 0 97 97" fill="none" xmlns="http://www.w3.org/2000/svg">
<g id="Supervisor account" clip-path="url(#clip0_2034_4904)">
<path id="Vector" d="M36.1426 48.5C43.8626 48.5 50.1426 42.22 50.1426 34.5C50.1426 26.78 43.8626 20.5 36.1426 20.5C28.4226 20.5 22.1426 26.78 22.1426 34.5C22.1426 42.22 28.4226 48.5 36.1426 48.5ZM36.1426 28.5C39.4626 28.5 42.1426 31.18 42.1426 34.5C42.1426 37.82 39.4626 40.5 36.1426 40.5C32.8226 40.5 30.1426 37.82 30.1426 34.5C30.1426 31.18 32.8226 28.5 36.1426 28.5ZM36.3426 68.5H19.2226C23.1826 66.5 30.0226 64.5 36.1426 64.5C36.5826 64.5 37.0626 64.54 37.5026 64.54C38.8626 61.62 41.2226 59.22 44.0626 57.3C41.1426 56.78 38.3826 56.5 36.1426 56.5C26.7826 56.5 8.14258 61.18 8.14258 70.5V76.5H36.1426V70.5C36.1426 69.82 36.2226 69.14 36.3426 68.5ZM66.1426 58.5C58.7826 58.5 44.1426 62.54 44.1426 70.5V76.5H88.1426V70.5C88.1426 62.54 73.5026 58.5 66.1426 58.5ZM70.9826 51.22C74.0226 49.5 76.1426 46.26 76.1426 42.5C76.1426 36.98 71.6626 32.5 66.1426 32.5C60.6226 32.5 56.1426 36.98 56.1426 42.5C56.1426 46.26 58.2626 49.5 61.3026 51.22C62.7426 52.02 64.3826 52.5 66.1426 52.5C67.9026 52.5 69.5426 52.02 70.9826 51.22Z" fill="white"/>
</g>
<defs>
<clipPath id="clip0_2034_4904">
<rect width="96" height="96" fill="white" transform="translate(0.142578 0.5)"/>
</clipPath>
</defs>
</svg>
