<?xml version="1.0" encoding="utf-8"?>
<!-- Generator: Adobe Illustrator 24.0.1, SVG Export Plug-In . SVG Version: 6.00 Build 0)  -->
<svg version="1.1" id="레이어_1" xmlns="http://www.w3.org/2000/svg" xmlns:xlink="http://www.w3.org/1999/xlink" x="0px"
	 y="0px" viewBox="0 0 96 97" style="enable-background:new 0 0 96 97;" xml:space="preserve">
<path d="M64,8.5H32c-3.2,0-6.2,1.3-8.5,3.5c-2.3,2.3-3.5,5.3-3.5,8.5v64c0,0.7,0.2,1.4,0.5,2c0.4,0.6,0.9,1.1,1.5,1.5
	c0.6,0.4,1.3,0.5,2,0.5c0.7,0,1.4-0.2,2-0.5l22-12.7L70,88c0.6,0.3,1.3,0.5,2,0.5c0.7,0,1.4-0.2,2-0.5c0.6-0.4,1.1-0.9,1.5-1.5
	c0.4-0.6,0.5-1.3,0.5-2v-64c0-3.2-1.3-6.2-3.5-8.5C70.2,9.8,67.2,8.5,64,8.5z M68,77.6L50,67.2c-0.6-0.4-1.3-0.5-2-0.5
	c-0.7,0-1.4,0.2-2,0.5L28,77.6V20.5c0-1.1,0.4-2.1,1.2-2.8c0.8-0.8,1.8-1.2,2.8-1.2h32c1.1,0,2.1,0.4,2.8,1.2
	c0.8,0.8,1.2,1.8,1.2,2.8V77.6z"/>
</svg>
