<svg width="69" height="85" viewBox="0 0 69 85" fill="none" xmlns="http://www.w3.org/2000/svg">
<path d="M29.2556 48.5634L21.8606 41.1684C21.2373 40.545 20.4723 40.2334 19.5656 40.2334C18.659 40.2334 17.8656 40.5734 17.1856 41.2534C16.5623 41.8767 16.2506 42.67 16.2506 43.6334C16.2506 44.5967 16.5623 45.39 17.1856 46.0134L26.8756 55.7034C27.499 56.3267 28.2923 56.6384 29.2556 56.6384C30.219 56.6384 31.0123 56.3267 31.6356 55.7034L50.9306 36.4084C51.554 35.785 51.8656 35.02 51.8656 34.1134C51.8656 33.2067 51.5256 32.4134 50.8456 31.7334C50.2223 31.11 49.429 30.7984 48.4656 30.7984C47.5023 30.7984 46.709 31.11 46.0856 31.7334L29.2556 48.5634ZM34.0156 76.4434C29.3123 76.4434 24.8923 75.5503 20.7556 73.7642C16.619 71.9803 13.0206 69.5584 9.96063 66.4984C6.90063 63.4384 4.47869 59.84 2.69483 55.7034C0.908692 51.5667 0.015625 47.1467 0.015625 42.4434C0.015625 37.74 0.908692 33.32 2.69483 29.1834C4.47869 25.0467 6.90063 21.4484 9.96063 18.3884C13.0206 15.3284 16.619 12.9053 20.7556 11.1192C24.8923 9.33529 29.3123 8.44336 34.0156 8.44336C38.719 8.44336 43.139 9.33529 47.2756 11.1192C51.4123 12.9053 55.0106 15.3284 58.0706 18.3884C61.1306 21.4484 63.5526 25.0467 65.3364 29.1834C67.1226 33.32 68.0156 37.74 68.0156 42.4434C68.0156 47.1467 67.1226 51.5667 65.3364 55.7034C63.5526 59.84 61.1306 63.4384 58.0706 66.4984C55.0106 69.5584 51.4123 71.9803 47.2756 73.7642C43.139 75.5503 38.719 76.4434 34.0156 76.4434Z" fill="#8B95A1"/>
</svg>
