<?xml version="1.0" encoding="utf-8"?>
<!-- Generator: Adobe Illustrator 24.0.1, SVG Export Plug-In . SVG Version: 6.00 Build 0)  -->
<svg version="1.1" id="레이어_1" xmlns="http://www.w3.org/2000/svg" xmlns:xlink="http://www.w3.org/1999/xlink" x="0px"
	 y="0px" viewBox="0 0 96 97" style="enable-background:new 0 0 96 97;" xml:space="preserve">
<path d="M11.9,37l34.2,19.9c0.6,0.3,1.2,0.5,1.9,0.5s1.3-0.2,1.9-0.5L84.1,37c0.6-0.3,1.1-0.8,1.4-1.4c0.3-0.6,0.5-1.2,0.5-1.9
	c0-0.7-0.2-1.3-0.5-1.9c-0.3-0.6-0.8-1.1-1.4-1.4L49.9,10.5C49.3,10.2,48.7,10,48,10s-1.3,0.2-1.9,0.5L11.9,30.4
	c-0.6,0.3-1.1,0.8-1.4,1.4S10,33,10,33.7c0,0.7,0.2,1.3,0.5,1.9C10.8,36.2,11.3,36.7,11.9,37z M48,18.4l26.6,15.3L48,49L21.4,33.7
	L48,18.4z M80.3,45.8L48,64.3L15.7,45.7c-0.4-0.3-0.9-0.4-1.4-0.5c-0.5-0.1-1,0-1.5,0.1c-0.5,0.1-0.9,0.4-1.3,0.7
	c-0.4,0.3-0.7,0.7-1,1.1C10,48,9.9,49,10.1,50c0.3,1,0.9,1.8,1.8,2.3l34.2,19.9c0.6,0.3,1.2,0.5,1.9,0.5s1.3-0.2,1.9-0.5l34.2-19.9
	c0.9-0.5,1.5-1.3,1.8-2.3s0.1-2-0.4-2.9c-0.2-0.4-0.6-0.8-1-1.1c-0.4-0.3-0.8-0.5-1.3-0.7c-0.5-0.1-1-0.2-1.5-0.1
	c-0.5,0.1-1,0.2-1.4,0.5V45.8z M80.3,61.1L48,79.6L15.7,61c-0.4-0.3-0.9-0.4-1.4-0.5c-0.5-0.1-1,0-1.5,0.1c-0.5,0.1-0.9,0.4-1.3,0.7
	c-0.4,0.3-0.7,0.7-1,1.1c-0.5,0.9-0.6,1.9-0.4,2.9c0.3,1,0.9,1.8,1.8,2.3l34.2,19.9c0.6,0.3,1.2,0.5,1.9,0.5s1.3-0.2,1.9-0.5
	l34.2-19.9c0.9-0.5,1.5-1.3,1.8-2.3c0.3-1,0.1-2-0.4-2.9c-0.2-0.4-0.6-0.8-1-1.1c-0.4-0.3-0.8-0.5-1.3-0.7c-0.5-0.1-1-0.2-1.5-0.1
	c-0.5,0.1-1,0.2-1.4,0.5V61.1z"/>
</svg>
