<?xml version="1.0" encoding="utf-8"?>
<!-- Generator: Adobe Illustrator 24.0.1, SVG Export Plug-In . SVG Version: 6.00 Build 0)  -->
<svg version="1.1" id="레이어_1" xmlns="http://www.w3.org/2000/svg" xmlns:xlink="http://www.w3.org/1999/xlink" x="0px"
	 y="0px" viewBox="0 0 97 97" style="enable-background:new 0 0 97 97;" xml:space="preserve">
<style type="text/css">
	.st0{clip-path:url(#SVGID_2_);}
</style>
<g>
	<defs>
		<rect id="SVGID_1_" x="0.4" y="0.5" width="96" height="96"/>
	</defs>
	<clipPath id="SVGID_2_">
		<use xlink:href="#SVGID_1_"  style="overflow:visible;"/>
	</clipPath>
	<g class="st0">
		<path d="M48.4,8.5c-15.5,0-28,12.5-28,28c0,21,28,52,28,52s28-31,28-52C76.4,21,63.9,8.5,48.4,8.5z M28.4,36.5c0-11,9-20,20-20
			s20,9,20,20c0,11.5-11.5,28.8-20,39.5C40.1,65.3,28.4,47.9,28.4,36.5z"/>
		<path d="M48.4,46.5c5.5,0,10-4.5,10-10s-4.5-10-10-10c-5.5,0-10,4.5-10,10S42.9,46.5,48.4,46.5z"/>
	</g>
</g>
</svg>
