<?xml version="1.0" encoding="utf-8"?>
<!-- Generator: Adobe Illustrator 24.0.1, SVG Export Plug-In . SVG Version: 6.00 Build 0)  -->
<svg version="1.1" id="레이어_1" xmlns="http://www.w3.org/2000/svg" xmlns:xlink="http://www.w3.org/1999/xlink" x="0px"
	 y="0px" viewBox="0 0 96 97" style="enable-background:new 0 0 96 97;" xml:space="preserve">
<path d="M84.7,8.7C81.8,8.2,78.9,8,76,8c-9.9,0-19.6,2.8-28,8.2c-8.4-5.3-18.1-8.1-28-8c-2.9,0-5.8,0.3-8.7,0.8
	c-0.9,0.2-1.8,0.7-2.4,1.4C8.3,11.1,8,12,8,12.9v48c0,0.6,0.1,1.2,0.4,1.7c0.2,0.5,0.6,1,1,1.4c0.4,0.4,1,0.7,1.5,0.8
	c0.6,0.2,1.2,0.2,1.7,0.1c5.7-1,11.6-0.8,17.3,0.5c5.7,1.3,11,3.7,15.7,7.2l0.5,0.3h0.4c0.4,0.2,0.9,0.3,1.4,0.3
	c0.5,0,1-0.1,1.4-0.3h0.4l0.5-0.3c4.7-3.5,10-6,15.7-7.4c5.7-1.4,11.6-1.6,17.3-0.7c0.6,0.1,1.2,0.1,1.7-0.1
	c0.6-0.2,1.1-0.4,1.5-0.8c0.4-0.4,0.8-0.9,1-1.4c0.2-0.5,0.4-1.1,0.4-1.7v-48c0-0.9-0.4-1.8-1-2.5C86.4,9.4,85.6,8.9,84.7,8.7z
	 M44,61.9C36.6,58,28.4,56,20,56c-1.3,0-2.6,0-4,0V16c1.3-0.1,2.7-0.1,4,0c8.5,0,16.9,2.5,24,7.2V61.9z M80,56.1c-1.4,0-2.7,0-4,0
	c-8.4,0-16.6,2-24,5.9V23.2c7.1-4.7,15.5-7.2,24-7.2c1.3-0.1,2.7-0.1,4,0V56.1z M84.7,72.7C81.8,72.2,78.9,72,76,72
	c-9.9,0-19.6,2.8-28,8.2C39.6,74.8,29.9,72,20,72c-2.9,0-5.8,0.3-8.7,0.8c-0.5,0.1-1,0.3-1.5,0.5c-0.4,0.3-0.8,0.6-1.1,1.1
	c-0.3,0.4-0.5,0.9-0.7,1.4c-0.1,0.5-0.1,1-0.1,1.6c0.2,1,0.8,2,1.7,2.5s2,0.8,3,0.6c5.7-1,11.6-0.8,17.3,0.5
	c5.7,1.3,11,3.7,15.7,7.2c0.7,0.5,1.5,0.7,2.3,0.7c0.8,0,1.6-0.3,2.3-0.7C55,84.7,60.4,82.3,66,81c5.7-1.3,11.5-1.5,17.3-0.5
	c1,0.2,2.1,0,3-0.6c0.9-0.6,1.5-1.5,1.7-2.5c0.1-0.5,0.1-1.1-0.1-1.6c-0.1-0.5-0.3-1-0.7-1.4c-0.3-0.4-0.7-0.8-1.1-1.1
	C85.7,73,85.2,72.8,84.7,72.7z"/>
</svg>
