<?xml version="1.0" encoding="utf-8"?>
<!-- Generator: Adobe Illustrator 24.0.1, SVG Export Plug-In . SVG Version: 6.00 Build 0)  -->
<svg version="1.1" id="레이어_1" xmlns="http://www.w3.org/2000/svg" xmlns:xlink="http://www.w3.org/1999/xlink" x="0px"
	 y="0px" viewBox="0 0 96 97" style="enable-background:new 0 0 96 97;" xml:space="preserve">
<path d="M80.7,41.3c-2.9-0.5-5.8-0.8-8.7-0.8c-1.7,0-3.3,0-5,0.3c-2-2.7-4.6-5-7.6-6.6c2.6-2.8,4-6.5,4-10.3c0-4.1-1.6-8-4.5-10.9
	C56,10.1,52.1,8.5,48,8.5c-4.1,0-8,1.6-10.9,4.5c-2.9,2.9-4.5,6.8-4.5,10.9c0,3.8,1.4,7.5,4,10.3c-3,1.6-5.6,3.9-7.6,6.6
	c-1.6-0.3-3.2-0.3-4.9-0.3c-2.9,0-5.8,0.3-8.7,0.8c-0.9,0.2-1.8,0.7-2.4,1.4c-0.6,0.7-0.9,1.7-0.9,2.6v33c0,0.6,0.1,1.2,0.4,1.7
	c0.2,0.5,0.6,1,1.1,1.4c0.4,0.4,1,0.7,1.5,0.8c0.6,0.2,1.2,0.2,1.7,0.1c2.4-0.5,4.8-0.8,7.3-0.9c7.7,0,15.3,2.3,21.8,6.5l0.5,0.2
	c0.5,0.2,1.1,0.4,1.7,0.4c0.4,0,0.8-0.1,1.1-0.2h0.3l0.5-0.2c6.5-4.4,14.2-6.7,22.1-6.7c2.4,0,4.9,0.3,7.3,0.7
	c0.6,0.1,1.2,0.1,1.7-0.1c0.6-0.2,1.1-0.4,1.5-0.8c0.5-0.4,0.8-0.8,1.1-1.4s0.4-1.1,0.4-1.7v-33c0-0.9-0.3-1.8-0.9-2.6
	S81.6,41.4,80.7,41.3z M48,16.5c1.9,0.1,3.6,1,4.9,2.4c1.3,1.4,2,3.2,2,5.1s-0.7,3.7-2,5.1c-1.3,1.4-3,2.2-4.9,2.4
	c-1.9-0.1-3.6-1-4.9-2.4c-1.3-1.4-2-3.2-2-5.1s0.7-3.7,2-5.1C44.4,17.5,46.1,16.6,48,16.5z M44,77.8c-6.3-2.9-13.1-4.4-20-4.4
	c-1.3,0-2.6,0-4,0.2V48.5c3.4-0.4,6.7-0.3,10.1,0.2h0.4c4.8,0.9,9.3,2.6,13.5,5.1V77.8z M48,46.9c-1.8-1-3.6-1.9-5.5-2.7h-0.2
	c-1.3-0.5-2.6-1-4-1.4c2.8-2.2,6.2-3.4,9.8-3.5c3.5,0,7,1.2,9.8,3.4C54.4,43.7,51.1,45.1,48,46.9z M76,73.6c-8.2-0.8-16.5,0.6-24,4
	v-24c4.2-2.4,8.7-4.1,13.5-4.9h0.8c3.2-0.5,6.5-0.6,9.7-0.2V73.6z"/>
</svg>
