<?xml version="1.0" encoding="utf-8"?>
<!-- Generator: Adobe Illustrator 24.0.1, SVG Export Plug-In . SVG Version: 6.00 Build 0)  -->
<svg version="1.1" id="레이어_1" xmlns="http://www.w3.org/2000/svg" xmlns:xlink="http://www.w3.org/1999/xlink" x="0px"
	 y="0px" viewBox="0 0 50 50" style="enable-background:new 0 0 50 50;" xml:space="preserve">
<style type="text/css">
	.st0{fill:#FFFFFF;}
</style>
<path class="st0" d="M32.9,26.2c2.2-1.7,3.8-4.1,4.6-6.8s0.7-5.6-0.2-8.3s-2.7-5-5-6.6S27.3,2,24.5,2s-5.6,0.9-7.9,2.5s-4,3.9-5,6.6
	c-0.9,2.7-1,5.6-0.2,8.3s2.4,5.1,4.6,6.8c-3.8,1.5-7.1,4-9.6,7.3C4,36.8,2.5,40.7,2,44.7c0,0.3,0,0.6,0.1,0.9
	c0.1,0.3,0.2,0.6,0.4,0.8c0.4,0.5,0.9,0.8,1.5,0.8c0.6,0.1,1.2-0.1,1.7-0.5s0.8-0.9,0.8-1.5c0.5-4.4,2.6-8.5,5.9-11.5
	s7.6-4.6,12.1-4.6s8.7,1.6,12.1,4.6c3.3,3,5.4,7,5.9,11.5c0.1,0.6,0.3,1.1,0.7,1.4c0.4,0.4,1,0.6,1.5,0.6H45
	c0.6-0.1,1.1-0.4,1.5-0.8c0.4-0.5,0.5-1.1,0.5-1.7c-0.5-4.1-2-8-4.5-11.2S36.7,27.7,32.9,26.2z M24.5,24.6c-1.8,0-3.5-0.5-5-1.5
	s-2.6-2.4-3.3-4.1c-0.7-1.7-0.9-3.5-0.5-5.2c0.3-1.8,1.2-3.4,2.5-4.6c1.3-1.3,2.9-2.1,4.6-2.5c1.8-0.3,3.6-0.2,5.2,0.5
	c1.7,0.7,3.1,1.8,4.1,3.3c1,1.5,1.5,3.2,1.5,5c0,2.4-1,4.7-2.6,6.4C29.2,23.7,26.9,24.6,24.5,24.6z"/>
</svg>
