<svg width="50" height="50" viewBox="0 0 50 50" fill="none" xmlns="http://www.w3.org/2000/svg">
<path d="M32.8552 26.2289C35.072 24.4848 36.69 22.0932 37.4842 19.3867C38.2784 16.6802 38.2093 13.7934 37.2865 11.128C36.3636 8.46263 34.633 6.15114 32.3353 4.51515C30.0376 2.87915 27.2871 2 24.4665 2C21.6458 2 18.8953 2.87915 16.5976 4.51515C14.2999 6.15114 12.5693 8.46263 11.6464 11.128C10.7236 13.7934 10.6545 16.6802 11.4487 19.3867C12.2429 22.0932 13.861 24.4848 16.0777 26.2289C12.2793 27.7507 8.96494 30.2748 6.48813 33.5321C4.01133 36.7894 2.46487 40.6577 2.01364 44.7248C1.98098 45.0217 2.00712 45.3222 2.09057 45.609C2.17403 45.8958 2.31316 46.1634 2.50003 46.3965C2.87743 46.8672 3.42634 47.1687 4.02603 47.2346C4.62571 47.3006 5.22704 47.1256 5.69772 46.7482C6.16841 46.3708 6.46989 45.8219 6.53586 45.2222C7.03236 40.8022 9.13995 36.72 12.4559 33.7557C15.7719 30.7913 20.0639 29.1526 24.5117 29.1526C28.9595 29.1526 33.2514 30.7913 36.5674 33.7557C39.8834 36.72 41.991 40.8022 42.4875 45.2222C42.549 45.7778 42.8141 46.291 43.2317 46.6626C43.6492 47.0342 44.1896 47.238 44.7486 47.2346H44.9973C45.5901 47.1664 46.1318 46.8667 46.5045 46.4008C46.8772 45.935 47.0507 45.3406 46.9871 44.7474C46.5338 40.6688 44.979 36.7905 42.4894 33.5282C39.9999 30.266 36.6695 27.7427 32.8552 26.2289ZM24.4665 24.6235C22.6776 24.6235 20.929 24.0931 19.4416 23.0993C17.9543 22.1054 16.795 20.6929 16.1105 19.0402C15.4259 17.3876 15.2468 15.5691 15.5958 13.8146C15.9448 12.0602 16.8062 10.4486 18.0711 9.1837C19.336 7.91881 20.9475 7.05742 22.702 6.70843C24.4564 6.35945 26.275 6.53856 27.9276 7.22311C29.5803 7.90767 30.9928 9.06691 31.9866 10.5543C32.9805 12.0416 33.5109 13.7903 33.5109 15.5791C33.5109 17.9778 32.558 20.2783 30.8619 21.9745C29.1657 23.6706 26.8652 24.6235 24.4665 24.6235Z" fill="white"/>
</svg>
