<svg width="104" height="104" viewBox="0 0 104 104" fill="none" xmlns="http://www.w3.org/2000/svg">
<path d="M39 65.0003H65M91 34.667H13M69.3333 8.66699V21.667M34.6667 8.66699V21.667M33.8 95.3337H70.2C77.4807 95.3337 81.121 95.3337 83.9019 93.9167C86.348 92.6704 88.3367 90.6816 89.5831 88.2355C91 85.4547 91 81.8143 91 74.5337V38.1337C91 30.853 91 27.2126 89.5831 24.4318C88.3367 21.9857 86.348 19.9969 83.9019 18.7506C81.121 17.3337 77.4807 17.3337 70.2 17.3337H33.8C26.5193 17.3337 22.879 17.3337 20.0981 18.7506C17.652 19.9969 15.6633 21.9857 14.4169 24.4318C13 27.2126 13 30.853 13 38.1337V74.5337C13 81.8143 13 85.4547 14.4169 88.2355C15.6633 90.6816 17.652 92.6704 20.0981 93.9167C22.879 95.3337 26.5193 95.3337 33.8 95.3337Z" stroke="white" stroke-width="8.66667" stroke-linecap="round" stroke-linejoin="round"/>
</svg>
