<svg width="96" height="97" viewBox="0 0 96 97" fill="none" xmlns="http://www.w3.org/2000/svg">
<g clip-path="url(#clip0_370_7519)">
<path d="M48 88.8433C52.4 88.8433 56 85.2433 56 80.8433H40C40 85.2433 43.6 88.8433 48 88.8433ZM72 64.8433V44.8433C72 32.5633 65.48 22.2833 54 19.5633V16.8433C54 13.5233 51.32 10.8433 48 10.8433C44.68 10.8433 42 13.5233 42 16.8433V19.5633C30.56 22.2833 24 32.5233 24 44.8433V64.8433L16 72.8433V76.8433H80V72.8433L72 64.8433ZM64 68.8433H32V44.8433C32 34.9233 38.04 26.8433 48 26.8433C57.96 26.8433 64 34.9233 64 44.8433V68.8433Z" fill="#ADB5BD"/>
</g>
<defs>
<clipPath id="clip0_370_7519">
<rect width="96" height="96" fill="white" transform="translate(0 0.843262)"/>
</clipPath>
</defs>
</svg>
