<?xml version="1.0" encoding="utf-8"?>
<!-- Generator: Adobe Illustrator 24.0.1, SVG Export Plug-In . SVG Version: 6.00 Build 0)  -->
<svg version="1.1" id="레이어_1" xmlns="http://www.w3.org/2000/svg" xmlns:xlink="http://www.w3.org/1999/xlink" x="0px"
	 y="0px" viewBox="0 0 96 97" style="enable-background:new 0 0 96 97;" xml:space="preserve">
<path d="M10.2,82.4c-1.2,0-2.2-0.4-3-1.2S6,79.4,6,78.2c0-1.2,0.4-2.2,1.2-3C8,74.4,9,74,10.2,74h75.6c1.2,0,2.2,0.4,3,1.2
	c0.8,0.8,1.2,1.8,1.2,3c0,1.2-0.4,2.2-1.2,3s-1.8,1.2-3,1.2H10.2z M18.6,65.6c-1.2,0-2.2-0.4-3-1.2c-0.8-0.8-1.2-1.8-1.2-3V36.4
	c0-1.2,0.4-2.2,1.2-3s1.8-1.2,3-1.2s2.2,0.4,3,1.2c0.8,0.8,1.2,1.8,1.2,3v25.1c0,1.2-0.4,2.2-1.2,3C20.8,65.2,19.8,65.6,18.6,65.6z
	 M35.4,65.6c-1.2,0-2.2-0.4-3-1.2c-0.8-0.8-1.2-1.8-1.2-3V19.7c0-1.2,0.4-2.2,1.2-3s1.8-1.2,3-1.2c1.2,0,2.2,0.4,3,1.2
	c0.8,0.8,1.2,1.8,1.2,3v41.8c0,1.2-0.4,2.2-1.2,3C37.6,65.2,36.6,65.6,35.4,65.6z M52.2,65.6c-1.2,0-2.2-0.4-3-1.2
	c-0.8-0.8-1.2-1.8-1.2-3V19.7c0-1.2,0.4-2.2,1.2-3s1.8-1.2,3-1.2c1.2,0,2.2,0.4,3,1.2s1.2,1.8,1.2,3v41.8c0,1.2-0.4,2.2-1.2,3
	C54.4,65.2,53.4,65.6,52.2,65.6z M81.1,63.6c-1,0.6-2,0.7-3.2,0.4c-1.2-0.3-2-1-2.6-1.9L62.7,40c-0.6-1-0.7-2-0.4-3.2
	c0.3-1.1,1-2,1.9-2.6c1-0.6,2-0.7,3.2-0.4c1.2,0.3,2,1,2.6,1.9l12.6,21.9c0.6,1,0.7,2,0.4,3.2C82.7,62.1,82.1,63,81.1,63.6z"/>
</svg>
