<svg width="60" height="61" viewBox="0 0 60 61" fill="none" xmlns="http://www.w3.org/2000/svg">
<path d="M47.5 10.9434H42.5V8.44336C42.5 7.78032 42.2366 7.14443 41.7678 6.67559C41.2989 6.20675 40.663 5.94336 40 5.94336C39.337 5.94336 38.7011 6.20675 38.2322 6.67559C37.7634 7.14443 37.5 7.78032 37.5 8.44336V10.9434H22.5V8.44336C22.5 7.78032 22.2366 7.14443 21.7678 6.67559C21.2989 6.20675 20.663 5.94336 20 5.94336C19.337 5.94336 18.7011 6.20675 18.2322 6.67559C17.7634 7.14443 17.5 7.78032 17.5 8.44336V10.9434H12.5C10.5109 10.9434 8.60322 11.7335 7.1967 13.1401C5.79018 14.5466 5 16.4542 5 18.4434V48.4434C5 50.4325 5.79018 52.3401 7.1967 53.7467C8.60322 55.1532 10.5109 55.9434 12.5 55.9434H47.5C49.4891 55.9434 51.3968 55.1532 52.8033 53.7467C54.2098 52.3401 55 50.4325 55 48.4434V18.4434C55 16.4542 54.2098 14.5466 52.8033 13.1401C51.3968 11.7335 49.4891 10.9434 47.5 10.9434ZM50 48.4434C50 49.1064 49.7366 49.7423 49.2678 50.2111C48.7989 50.68 48.163 50.9434 47.5 50.9434H12.5C11.837 50.9434 11.2011 50.68 10.7322 50.2111C10.2634 49.7423 10 49.1064 10 48.4434V30.9434H50V48.4434ZM50 25.9434H10V18.4434C10 17.7803 10.2634 17.1444 10.7322 16.6756C11.2011 16.2068 11.837 15.9434 12.5 15.9434H17.5V18.4434C17.5 19.1064 17.7634 19.7423 18.2322 20.2111C18.7011 20.68 19.337 20.9434 20 20.9434C20.663 20.9434 21.2989 20.68 21.7678 20.2111C22.2366 19.7423 22.5 19.1064 22.5 18.4434V15.9434H37.5V18.4434C37.5 19.1064 37.7634 19.7423 38.2322 20.2111C38.7011 20.68 39.337 20.9434 40 20.9434C40.663 20.9434 41.2989 20.68 41.7678 20.2111C42.2366 19.7423 42.5 19.1064 42.5 18.4434V15.9434H47.5C48.163 15.9434 48.7989 16.2068 49.2678 16.6756C49.7366 17.1444 50 17.7803 50 18.4434V25.9434Z" fill="#ADB5BD"/>
</svg>
