<svg width="80" height="81" viewBox="0 0 80 81" fill="none" xmlns="http://www.w3.org/2000/svg">
<path d="M52.3657 42.4234C55.6337 39.8523 58.019 36.3265 59.1898 32.3365C60.3606 28.3466 60.2587 24.091 58.8983 20.1616C57.5379 16.2323 54.9865 12.8247 51.5993 10.4129C48.212 8.00113 44.1572 6.70508 39.999 6.70508C35.8408 6.70508 31.7861 8.00113 28.3988 10.4129C25.0115 12.8247 22.4602 16.2323 21.0997 20.1616C19.7393 24.091 19.6374 28.3466 20.8082 32.3365C21.979 36.3265 24.3644 39.8523 27.6323 42.4234C22.0326 44.6669 17.1466 48.3879 13.4953 53.1898C9.84401 57.9917 7.56422 63.6944 6.89901 69.6901C6.85086 70.1278 6.8894 70.5707 7.01243 70.9936C7.13546 71.4164 7.34057 71.8109 7.61605 72.1545C8.17241 72.8484 8.98162 73.2928 9.86568 73.3901C10.7497 73.4873 11.6362 73.2294 12.3301 72.673C13.024 72.1167 13.4684 71.3075 13.5657 70.4234C14.2976 63.9074 17.4046 57.8894 22.2931 53.5194C27.1815 49.1493 33.5087 46.7335 40.0657 46.7335C46.6227 46.7335 52.9498 49.1493 57.8383 53.5194C62.7267 57.8894 65.8337 63.9074 66.5657 70.4234C66.6563 71.2425 67.0471 71.9989 67.6627 72.5468C68.2783 73.0946 69.075 73.3951 69.899 73.3901H70.2657C71.1395 73.2895 71.9381 72.8477 72.4875 72.1609C73.037 71.4741 73.2927 70.5979 73.199 69.7234C72.5307 63.7108 70.2386 57.9934 66.5685 53.1841C62.8984 48.3748 57.9887 44.655 52.3657 42.4234ZM39.999 40.0567C37.3619 40.0567 34.7841 39.2747 32.5914 37.8097C30.3988 36.3446 28.6898 34.2622 27.6806 31.8258C26.6714 29.3895 26.4074 26.7086 26.9219 24.1222C27.4363 21.5358 28.7062 19.16 30.5709 17.2953C32.4356 15.4306 34.8114 14.1607 37.3978 13.6463C39.9842 13.1318 42.6651 13.3958 45.1015 14.405C47.5378 15.4142 49.6202 17.1231 51.0853 19.3158C52.5504 21.5085 53.3323 24.0863 53.3323 26.7234C53.3323 30.2596 51.9276 33.651 49.4271 36.1515C46.9266 38.652 43.5352 40.0567 39.999 40.0567Z" fill="black"/>
</svg>
