<svg xmlns="http://www.w3.org/2000/svg" width="96" height="97" viewBox="0 0 96 97" fill="none">
    <path d="M84 16.5H72V12.5C72 11.4391 71.5786 10.4217 70.8284 9.67157C70.0783 8.92143 69.0609 8.5 68 8.5H28C26.9391 8.5 25.9217 8.92143 25.1716 9.67157C24.4214 10.4217 24 11.4391 24 12.5V16.5H12C10.9391 16.5 9.92172 16.9214 9.17157 17.6716C8.42143 18.4217 8 19.4391 8 20.5V32.5C8 36.7435 9.68571 40.8131 12.6863 43.8137C15.6869 46.8143 19.7565 48.5 24 48.5H30.16C33.7781 52.5366 38.6562 55.2294 44 56.14V64.5H40C36.8174 64.5 33.7652 65.7643 31.5147 68.0147C29.2643 70.2652 28 73.3174 28 76.5V84.5C28 85.5609 28.4214 86.5783 29.1716 87.3284C29.9217 88.0786 30.9391 88.5 32 88.5H64C65.0609 88.5 66.0783 88.0786 66.8284 87.3284C67.5786 86.5783 68 85.5609 68 84.5V76.5C68 73.3174 66.7357 70.2652 64.4853 68.0147C62.2348 65.7643 59.1826 64.5 56 64.5H52V56.14C57.3438 55.2294 62.2219 52.5366 65.84 48.5H72C76.2435 48.5 80.3131 46.8143 83.3137 43.8137C86.3143 40.8131 88 36.7435 88 32.5V20.5C88 19.4391 87.5786 18.4217 86.8284 17.6716C86.0783 16.9214 85.0609 16.5 84 16.5ZM24 40.5C21.8783 40.5 19.8434 39.6571 18.3431 38.1569C16.8429 36.6566 16 34.6217 16 32.5V24.5H24V32.5C24.0088 35.2268 24.4822 37.9322 25.4 40.5H24ZM56 72.5C57.0609 72.5 58.0783 72.9214 58.8284 73.6716C59.5786 74.4217 60 75.4391 60 76.5V80.5H36V76.5C36 75.4391 36.4214 74.4217 37.1716 73.6716C37.9217 72.9214 38.9391 72.5 40 72.5H56ZM64 32.5C64 36.7435 62.3143 40.8131 59.3137 43.8137C56.3131 46.8143 52.2435 48.5 48 48.5C43.7565 48.5 39.6869 46.8143 36.6863 43.8137C33.6857 40.8131 32 36.7435 32 32.5V16.5H64V32.5ZM80 32.5C80 34.6217 79.1571 36.6566 77.6569 38.1569C76.1566 39.6571 74.1217 40.5 72 40.5H70.6C71.5177 37.9322 71.9912 35.2268 72 32.5V24.5H80V32.5Z" fill="#191F28"/>
</svg>