<svg xmlns="http://www.w3.org/2000/svg" width="96" height="97" viewBox="0 0 96 97" fill="none">
    <g clip-path="url(#clip0_2396_8464)">
        <path d="M48 8.5C32.52 8.5 20 21.02 20 36.5C20 57.5 48 88.5 48 88.5C48 88.5 76 57.5 76 36.5C76 21.02 63.48 8.5 48 8.5ZM28 36.5C28 25.46 36.96 16.5 48 16.5C59.04 16.5 68 25.46 68 36.5C68 48.02 56.48 65.26 48 76.02C39.68 65.34 28 47.9 28 36.5Z" fill="#ADB5BD"/>
        <path d="M48 46.5C53.5228 46.5 58 42.0228 58 36.5C58 30.9772 53.5228 26.5 48 26.5C42.4772 26.5 38 30.9772 38 36.5C38 42.0228 42.4772 46.5 48 46.5Z" fill="#ADB5BD"/>
    </g>
    <defs>
        <clipPath id="clip0_2396_8464">
            <rect width="96" height="96" fill="white" transform="translate(0 0.5)"/>
        </clipPath>
    </defs>
</svg>