<?xml version="1.0" encoding="utf-8"?>
<!-- Generator: Adobe Illustrator 24.0.1, SVG Export Plug-In . SVG Version: 6.00 Build 0)  -->
<svg version="1.1" id="레이어_1" xmlns="http://www.w3.org/2000/svg" xmlns:xlink="http://www.w3.org/1999/xlink" x="0px"
	 y="0px" viewBox="0 0 97 97" style="enable-background:new 0 0 97 97;" xml:space="preserve">
<style type="text/css">
	.st0{clip-path:url(#SVGID_2_);}
</style>
<g>
	<defs>
		<rect id="SVGID_1_" x="0.6" y="0.5" width="96" height="96"/>
	</defs>
	<clipPath id="SVGID_2_">
		<use xlink:href="#SVGID_1_"  style="overflow:visible;"/>
	</clipPath>
	<g class="st0">
		<path d="M48.2,8.9C33.2,8.9,21,21.4,21,36.8c0,5.2,1.4,10.1,3.9,14.3L10.6,66.6l15.1,5.3l5.3,16.2l17.3-17.7l17.3,17.7l5.3-16.2
			l15.8-5.4l-15-15.4c2.5-4.2,3.9-9.1,3.9-14.3C75.5,21.4,63.2,8.9,48.2,8.9z M48.2,16.9c10.8,0,19.5,8.9,19.5,20
			c0,11.1-8.7,20-19.5,20s-19.5-8.9-19.5-20C28.7,25.8,37.4,16.9,48.2,16.9z M40.4,24.8v8h3.9v16h7.8v-24H40.4z M66.6,57.4l5.5,5.7
			l-7.6,2.6l-2.5,7.7l-8.9-9.1C58.3,63.3,62.9,60.8,66.6,57.4z M29.8,57.4c3.7,3.5,8.3,5.9,13.3,6.9l-8.9,9.1l-2.5-7.7l-7.3-2.6
			L29.8,57.4z"/>
	</g>
</g>
</svg>
