<?xml version="1.0" encoding="utf-8"?>
<!-- Generator: Adobe Illustrator 24.0.1, SVG Export Plug-In . SVG Version: 6.00 Build 0)  -->
<svg version="1.1" id="레이어_1" xmlns="http://www.w3.org/2000/svg" xmlns:xlink="http://www.w3.org/1999/xlink" x="0px"
	 y="0px" viewBox="0 0 86 83" style="enable-background:new 0 0 86 83;" xml:space="preserve">
<path d="M0,82.5l55.9-20L20,26.6L0,82.5z M41.3,59.3l-28.1,10l10.1-28.1L41.3,59.3z"/>
<path d="M50,44.7l22.3-22.3c2-2,5.1-2,7.1,0l2.4,2.4l4.2-4.2l-2.4-2.4c-4.3-4.3-11.3-4.3-15.5,0L45.8,40.5L50,44.7z"/>
<path d="M32.2,22.1l-2.4,2.4l4.2,4.2l2.4-2.4c4.3-4.3,4.3-11.3,0-15.5L34,8.4l-4.2,4.3l2.4,2.4C34.1,17,34.1,20.2,32.2,22.1z"/>
<path d="M60.1,42.1l-6.3,6.3l4.2,4.2l6.3-6.3c2-2,5.1-2,7.1,0l6.4,6.4l4.2-4.2l-6.4-6.4C71.3,37.8,64.4,37.8,60.1,42.1z"/>
<path d="M52.1,18.1L37.8,32.5l4.2,4.2l14.3-14.3c4.3-4.3,4.3-11.3,0-15.5L50,0.5l-4.2,4.2l6.3,6.3C54.1,13,54.1,16.2,52.1,18.1z"/>
</svg>
