<?xml version="1.0" encoding="utf-8"?>
<!-- Generator: Adobe Illustrator 24.0.1, SVG Export Plug-In . SVG Version: 6.00 Build 0)  -->
<svg version="1.1" id="레이어_1" xmlns="http://www.w3.org/2000/svg" xmlns:xlink="http://www.w3.org/1999/xlink" x="0px"
	 y="0px" viewBox="0 0 65 79" style="enable-background:new 0 0 65 79;" xml:space="preserve">
<path d="M32,78.5c4.4,0,8-3.6,8-8H24C24,74.9,27.6,78.5,32,78.5z M56,52.5V33.2c0-11.8-6.5-21.7-18-24.3V6.3c0-3.2-2.7-5.8-6-5.8
	s-6,2.6-6,5.8v2.6C14.6,11.5,8,21.4,8,33.2v19.2l-8,7.7V64h64v-3.8L56,52.5z M48,58.5H16v-24c0-9.9,6-18,16-18s16,8.1,16,18V58.5z"
	/>
</svg>
