<?xml version="1.0" encoding="utf-8"?>
<!-- Generator: Adobe Illustrator 24.0.1, SVG Export Plug-In . SVG Version: 6.00 Build 0)  -->
<svg version="1.1" id="레이어_1" xmlns="http://www.w3.org/2000/svg" xmlns:xlink="http://www.w3.org/1999/xlink" x="0px"
	 y="0px" viewBox="0 0 96 96" style="enable-background:new 0 0 96 96;" xml:space="preserve">
<g>
	<path d="M24,76h13.4V55.8c0-1,0.3-1.9,1-2.6c0.7-0.7,1.6-1,2.6-1h14c1,0,1.9,0.3,2.6,1c0.7,0.7,1,1.6,1,2.6V76H72V40.6
		c0-0.2,0-0.4-0.1-0.6c-0.1-0.2-0.2-0.3-0.4-0.4L48.7,22.5c-0.2-0.2-0.4-0.3-0.7-0.3s-0.5,0.1-0.7,0.3L24.5,39.6
		c-0.2,0.1-0.3,0.3-0.4,0.4C24,40.2,24,40.4,24,40.6V76z M18,76V40.6c0-1.1,0.3-2.2,0.8-3.3c0.5-1,1.2-1.9,2.1-2.5l22.8-17.2
		c1.3-1,2.7-1.4,4.3-1.4s3.1,0.5,4.3,1.4l22.8,17.2c0.9,0.7,1.6,1.5,2.1,2.5s0.8,2.1,0.8,3.3V76c0,1.6-0.6,3-1.8,4.2S73.6,82,72,82
		H56.2c-1,0-1.9-0.3-2.6-1c-0.7-0.7-1-1.6-1-2.6V58.2h-9.2v20.2c0,1-0.3,1.9-1,2.6s-1.6,1-2.6,1H24c-1.6,0-3-0.6-4.2-1.8
		C18.6,79,18,77.6,18,76z"/>
</g>
</svg>
