<?xml version="1.0" encoding="utf-8"?>
<!-- Generator: Adobe Illustrator 24.0.1, SVG Export Plug-In . SVG Version: 6.00 Build 0)  -->
<svg version="1.1" id="레이어_1" xmlns="http://www.w3.org/2000/svg" xmlns:xlink="http://www.w3.org/1999/xlink" x="0px"
	 y="0px" viewBox="0 0 97 97" style="enable-background:new 0 0 97 97;" xml:space="preserve">
<style type="text/css">
	.st0{clip-path:url(#SVGID_2_);}
</style>
<g>
	<defs>
		<rect id="SVGID_1_" x="0.3" y="0.5" width="96" height="96"/>
	</defs>
	<clipPath id="SVGID_2_">
		<use xlink:href="#SVGID_1_"  style="overflow:visible;"/>
	</clipPath>
	<g class="st0">
		<path d="M48.3,88.5c4.4,0,8-3.6,8-8h-16C40.3,84.9,43.9,88.5,48.3,88.5z M72.3,64.5v-20c0-12.3-6.5-22.6-18-25.3v-2.7
			c0-3.3-2.7-6-6-6c-3.3,0-6,2.7-6,6v2.7c-11.4,2.7-18,13-18,25.3v20l-8,8v4h64v-4L72.3,64.5z M64.3,68.5h-32v-24c0-9.9,6-18,16-18
			s16,8.1,16,18V68.5z"/>
	</g>
</g>
</svg>
