<?xml version="1.0" encoding="utf-8"?>
<!-- Generator: Adobe Illustrator 24.0.1, SVG Export Plug-In . SVG Version: 6.00 Build 0)  -->
<svg version="1.1" id="레이어_1" xmlns="http://www.w3.org/2000/svg" xmlns:xlink="http://www.w3.org/1999/xlink" x="0px"
	 y="0px" viewBox="0 0 97 97" style="enable-background:new 0 0 97 97;" xml:space="preserve">
<style type="text/css">
	.st0{clip-path:url(#SVGID_2_);}
</style>
<g>
	<defs>
		<rect id="SVGID_1_" x="0.1" y="0.5" width="96" height="96"/>
	</defs>
	<clipPath id="SVGID_2_">
		<use xlink:href="#SVGID_1_"  style="overflow:visible;"/>
	</clipPath>
	<g class="st0">
		<path d="M36.1,48.5c7.7,0,14-6.3,14-14s-6.3-14-14-14s-14,6.3-14,14S28.4,48.5,36.1,48.5z M36.1,28.5c3.3,0,6,2.7,6,6s-2.7,6-6,6
			s-6-2.7-6-6S32.8,28.5,36.1,28.5z M36.3,68.5H19.2c4-2,10.8-4,16.9-4c0.4,0,0.9,0,1.4,0c1.4-2.9,3.7-5.3,6.6-7.2
			c-2.9-0.5-5.7-0.8-7.9-0.8c-9.4,0-28,4.7-28,14v6h28v-6C36.1,69.8,36.2,69.1,36.3,68.5z M66.1,58.5c-7.4,0-22,4-22,12v6h44v-6
			C88.1,62.5,73.5,58.5,66.1,58.5z M71,51.2c3-1.7,5.2-5,5.2-8.7c0-5.5-4.5-10-10-10s-10,4.5-10,10c0,3.8,2.1,7,5.2,8.7
			c1.4,0.8,3.1,1.3,4.8,1.3S69.5,52,71,51.2z"/>
	</g>
</g>
</svg>
