<?xml version="1.0" encoding="utf-8"?>
<!-- Generator: Adobe Illustrator 24.0.1, SVG Export Plug-In . SVG Version: 6.00 Build 0)  -->
<svg version="1.1" id="레이어_1" xmlns="http://www.w3.org/2000/svg" xmlns:xlink="http://www.w3.org/1999/xlink" x="0px"
	 y="0px" viewBox="0 0 96 97" style="enable-background:new 0 0 96 97;" xml:space="preserve">
<path d="M30.5,13.5C24.7,13.5,20,18.2,20,24v49c0,5.8,4.7,10.5,10.5,10.5H76v-7H30.5c-2,0-3.5-1.5-3.5-3.5s1.5-3.5,3.5-3.5H76v-7
	v-49H62H41H30.5z M30.5,20.5H41v28.4l5.5-3.9l5-3.5L62,48.9V20.5h7v42H30.5c-1.2,0-2.4,0.3-3.5,0.7V24C27,22,28.5,20.5,30.5,20.5z
	 M48,20.5h7v15L51.5,33L48,35.5V20.5z"/>
</svg>
