<svg width="1860" height="1310" viewBox="0 0 1860 1310" fill="none" xmlns="http://www.w3.org/2000/svg">
<path d="M1725.2 902.257L1625.8 958.957M1580.19 985.261L1625.8 958.957M1658.54 884.137L1756.77 940.252M1642.17 893.489L1740.4 949.604M1625.8 902.842L1724.03 958.957M1609.42 912.194L1707.65 968.309M1593.05 921.547L1691.28 977.662M1625.8 958.957L1674.91 987.014" stroke="white" stroke-width="3" stroke-linecap="round" stroke-linejoin="round"/>
<path d="M512.522 5L5 294.928L758.097 725.144L332.434 968.309L921.814 1305L1855 771.906L512.522 5Z" stroke="white" stroke-width="10" stroke-linejoin="round"/>
<path d="M1805.89 912.194L1707.66 856.079L1511.2 968.309L1609.43 1024.42L1805.89 912.194Z" stroke="white" stroke-width="4" stroke-linejoin="round"/>
<path d="M1134.65 322.985L954.559 425.863M1232.88 379.1L1052.79 481.978" stroke="white" stroke-width="4" stroke-linecap="round" stroke-linejoin="round"/>
<path d="M1152.19 369.163L1052.79 425.863M1007.18 452.167L1052.79 425.863M1085.53 351.043L1183.76 407.158M1069.16 360.395L1167.39 416.511M1052.79 369.748L1151.02 425.863M1036.41 379.101L1134.64 435.216M1020.04 388.453L1118.27 444.568M1052.79 425.863L1101.9 453.921" stroke="white" stroke-width="3" stroke-linecap="round" stroke-linejoin="round"/>
<path d="M1069.16 472.626L970.93 416.511L954.559 425.863L1052.79 481.978L1069.16 472.626Z" fill="#D1D1D1"/>
<path d="M889.072 650.324L643.497 510.036L627.125 519.389L872.7 659.676L889.072 650.324Z" fill="#D1D1D1"/>
<path d="M1052.79 481.978L1183.76 556.798L1331.11 472.626L1200.13 397.806L1052.79 481.978Z" stroke="white" stroke-width="4" stroke-linejoin="round"/>
<path d="M823.584 351.043L954.557 425.863L1101.9 341.69L970.929 266.87L823.584 351.043Z" stroke="white" stroke-width="4" stroke-linejoin="round"/>
<path d="M512.522 5L5 294.928L512.522 584.856L872.699 379.101L823.584 351.043L970.929 266.87L512.522 5Z" stroke="white" stroke-width="4" stroke-linejoin="round"/>
<path d="M921.814 631.619L987.301 669.029L1069.16 622.267L1003.67 584.856L921.814 631.619Z" stroke="white" stroke-width="4" stroke-linejoin="round"/>
<path d="M921.814 1305L332.434 968.309L1003.67 584.856L1036.42 603.561L1151.02 538.094L1183.76 556.799L1331.11 472.626L1855 771.907L921.814 1305Z" stroke="white" stroke-width="4" stroke-linejoin="round"/>
<path d="M921.219 331.656V343.375H925.438V345.875H921.219V359.656H918.25V331.656H921.219ZM898.938 352.031C901.141 352.031 903.703 352.031 906.375 351.953V349.109C903.219 348.641 901.156 346.734 901.188 344.031C901.156 340.875 903.891 338.797 907.875 338.781C911.844 338.797 914.609 340.875 914.625 344.031C914.609 346.734 912.516 348.656 909.344 349.109V351.844C911.828 351.719 914.328 351.516 916.656 351.188L916.844 353.375C910.781 354.453 904.234 354.516 899.406 354.5L898.938 352.031ZM899.469 337.344V334.969H906.375V331.719H909.344V334.969H916.25V337.344H899.469ZM903.969 344.031C903.969 345.812 905.531 346.922 907.875 346.906C910.219 346.922 911.766 345.812 911.781 344.031C911.766 342.234 910.219 341.094 907.875 341.094C905.531 341.094 903.969 342.234 903.969 344.031ZM935.919 336.812C935.903 340.375 938.388 343.625 942.638 344.969L941.231 347.281C938.044 346.266 935.716 344.156 934.481 341.5C933.263 344.562 930.809 346.984 927.45 348.156L925.919 345.781C930.294 344.344 932.934 340.734 932.95 336.844V336.062H926.794V333.656H941.95V336.062H935.919V336.812ZM929.7 354.344C929.7 351.062 933.278 349.141 939.106 349.156C944.872 349.141 948.388 351.062 948.388 354.344C948.388 357.672 944.872 359.609 939.106 359.594C933.278 359.609 929.7 357.672 929.7 354.344ZM932.669 354.344C932.653 356.219 935.059 357.266 939.106 357.25C943.122 357.266 945.497 356.219 945.481 354.344C945.497 352.516 943.122 351.484 939.106 351.5C935.059 351.484 932.653 352.516 932.669 354.344ZM945.169 348.469V331.656H948.138V338.594H952.2V341.031H948.138V348.469H945.169ZM976.181 331.656V346.062H973.244V331.656H976.181ZM953.088 343.562C957.463 342.109 960.134 338.438 960.15 334.562V332.406H963.181V334.562C963.166 338.312 965.853 341.719 970.15 343.062L968.681 345.375C965.416 344.312 962.963 342.109 961.697 339.266C960.431 342.328 957.931 344.766 954.588 345.906L953.088 343.562ZM957.806 349.75V347.406H976.213V354.406H960.775V357H977.15V359.375H957.9V352.156H973.275V349.75H957.806ZM981.537 348.375C981.569 342.484 983.241 337.594 986.162 333.406H989.225C987.069 336.5 985.006 342.797 985.006 348.375C985.006 353.969 987.069 360.266 989.225 363.375H986.162C983.241 359.172 981.569 354.281 981.537 348.375ZM998.081 333.75C1000.64 333.766 1002.74 335.219 1003.97 337.75H1010.89V331.656H1013.83V359.719H1010.89V348.969H1004.18C1002.97 351.781 1000.78 353.422 998.081 353.406C993.909 353.422 990.956 349.609 990.988 343.562C990.956 337.578 993.909 333.766 998.081 333.75ZM993.8 343.562C993.816 348.016 995.55 350.75 998.081 350.75C1000.61 350.75 1002.35 348.016 1002.36 343.562C1002.35 339.172 1000.61 336.422 998.081 336.406C995.55 336.422 993.816 339.172 993.8 343.562ZM1004.82 340.188C1005.03 341.219 1005.18 342.344 1005.18 343.562C1005.18 344.625 1005.08 345.609 1004.89 346.531H1010.89V340.188H1004.82ZM1025.03 348.375C1025 354.281 1023.33 359.172 1020.41 363.375H1017.34C1019.5 360.266 1021.56 353.969 1021.56 348.375C1021.56 342.797 1019.5 336.5 1017.34 333.406H1020.41C1023.33 337.594 1025 342.484 1025.03 348.375Z" fill="white"/>
<path d="M1150.22 462.656V474.375H1154.44V476.875H1150.22V490.656H1147.25V462.656H1150.22ZM1127.94 483.031C1130.14 483.031 1132.7 483.031 1135.38 482.953V480.109C1132.22 479.641 1130.16 477.734 1130.19 475.031C1130.16 471.875 1132.89 469.797 1136.88 469.781C1140.84 469.797 1143.61 471.875 1143.62 475.031C1143.61 477.734 1141.52 479.656 1138.34 480.109V482.844C1140.83 482.719 1143.33 482.516 1145.66 482.188L1145.84 484.375C1139.78 485.453 1133.23 485.516 1128.41 485.5L1127.94 483.031ZM1128.47 468.344V465.969H1135.38V462.719H1138.34V465.969H1145.25V468.344H1128.47ZM1132.97 475.031C1132.97 476.812 1134.53 477.922 1136.88 477.906C1139.22 477.922 1140.77 476.812 1140.78 475.031C1140.77 473.234 1139.22 472.094 1136.88 472.094C1134.53 472.094 1132.97 473.234 1132.97 475.031ZM1164.92 467.812C1164.9 471.375 1167.39 474.625 1171.64 475.969L1170.23 478.281C1167.04 477.266 1164.72 475.156 1163.48 472.5C1162.26 475.562 1159.81 477.984 1156.45 479.156L1154.92 476.781C1159.29 475.344 1161.93 471.734 1161.95 467.844V467.062H1155.79V464.656H1170.95V467.062H1164.92V467.812ZM1158.7 485.344C1158.7 482.062 1162.28 480.141 1168.11 480.156C1173.87 480.141 1177.39 482.062 1177.39 485.344C1177.39 488.672 1173.87 490.609 1168.11 490.594C1162.28 490.609 1158.7 488.672 1158.7 485.344ZM1161.67 485.344C1161.65 487.219 1164.06 488.266 1168.11 488.25C1172.12 488.266 1174.5 487.219 1174.48 485.344C1174.5 483.516 1172.12 482.484 1168.11 482.5C1164.06 482.484 1161.65 483.516 1161.67 485.344ZM1174.17 479.469V462.656H1177.14V469.594H1181.2V472.031H1177.14V479.469H1174.17ZM1205.18 462.656V477.062H1202.24V462.656H1205.18ZM1182.09 474.562C1186.46 473.109 1189.13 469.438 1189.15 465.562V463.406H1192.18V465.562C1192.17 469.312 1194.85 472.719 1199.15 474.062L1197.68 476.375C1194.42 475.312 1191.96 473.109 1190.7 470.266C1189.43 473.328 1186.93 475.766 1183.59 476.906L1182.09 474.562ZM1186.81 480.75V478.406H1205.21V485.406H1189.78V488H1206.15V490.375H1186.9V483.156H1202.28V480.75H1186.81ZM1210.54 479.375C1210.57 473.484 1212.24 468.594 1215.16 464.406H1218.22C1216.07 467.5 1214.01 473.797 1214.01 479.375C1214.01 484.969 1216.07 491.266 1218.22 494.375H1215.16C1212.24 490.172 1210.57 485.281 1210.54 479.375ZM1241.49 462.688V468.906H1245.58V471.375H1241.49V478.469H1238.52V462.688H1241.49ZM1220.77 476.562V464.062H1223.74V474.094C1227.53 474.062 1231.49 473.734 1235.8 472.875L1236.18 475.312C1231.46 476.266 1227.18 476.547 1223.05 476.562H1220.77ZM1223.55 490.281V479.938H1241.49V490.281H1223.55ZM1226.46 487.906H1238.61V482.25H1226.46V487.906ZM1254.03 479.375C1254 485.281 1252.33 490.172 1249.41 494.375H1246.34C1248.5 491.266 1250.56 484.969 1250.56 479.375C1250.56 473.797 1248.5 467.5 1246.34 464.406H1249.41C1252.33 468.594 1254 473.484 1254.03 479.375Z" fill="white"/>
<path d="M972.612 638V615.375H986.8V618.344H976.05V625.188H986.05V628.125H976.05V635.031H986.925V638H972.612ZM998.562 614.312L991.281 641.406H988.312L995.594 614.312H998.562ZM1002.61 615.375L1008.89 633.781H1009.14L1015.42 615.375H1019.14L1010.98 638H1007.01L998.887 615.375H1002.61Z" fill="white"/>
</svg>
