<svg width="1860" height="1313" viewBox="0 0 1860 1313" fill="none" xmlns="http://www.w3.org/2000/svg">
<path d="M1569.15 218.93C1525.21 218.93 1494 195.346 1492.69 160.629H1525.5C1526.67 179.232 1545.13 191.098 1568.86 191.098C1594.49 191.098 1613.1 177.182 1613.1 156.527C1613.1 135.58 1595.66 120.639 1565.34 120.492H1547.18V94.125H1565.34C1589.51 94.2715 1606.36 80.7949 1606.36 60.4336C1606.36 41.0977 1591.86 27.9141 1569.44 27.9141C1548.2 27.9141 1529.16 39.7793 1528.43 58.9688H1497.37C1498.25 24.3984 1530.19 0.960938 1569.74 0.960938C1611.48 0.960938 1637.71 27.3281 1637.41 58.6758C1637.71 82.8457 1622.76 100.131 1599.91 105.844V107.309C1628.92 111.41 1645.76 130.893 1645.62 157.699C1645.76 193.002 1613.1 218.93 1569.15 218.93ZM1683.99 216V3.89062H1815.54V31.7227H1716.22V95.8828H1806.16V123.422H1716.22V216H1683.99Z" fill="white"/>
<path d="M1725.2 905.257L1625.8 961.957M1580.19 988.261L1625.8 961.957M1658.54 887.137L1756.77 943.252M1642.17 896.489L1740.4 952.604M1625.8 905.842L1724.03 961.957M1609.42 915.194L1707.65 971.309M1593.05 924.547L1691.28 980.662M1625.8 961.957L1674.91 990.014" stroke="white" stroke-width="3" stroke-linecap="round" stroke-linejoin="round"/>
<path d="M5 297.928L2.51985 293.587C0.961669 294.477 0 296.134 0 297.928C0 299.723 0.961669 301.379 2.51985 302.27L5 297.928ZM512.522 8L515.002 3.65847C513.465 2.78051 511.579 2.78051 510.042 3.65847L512.522 8ZM1855 774.906L1857.48 779.248C1859.04 778.358 1860 776.701 1860 774.906C1860 773.112 1859.04 771.455 1857.48 770.565L1855 774.906ZM921.814 1308L919.334 1312.34C920.871 1313.22 922.757 1313.22 924.294 1312.34L921.814 1308ZM332.434 971.309L329.953 966.968C328.395 967.858 327.434 969.515 327.434 971.309C327.434 973.104 328.395 974.761 329.953 975.651L332.434 971.309ZM758.097 728.144L760.578 732.485L768.177 728.144L760.578 723.802L758.097 728.144ZM7.48015 302.27L515.002 12.3415L510.042 3.65847L2.51985 293.587L7.48015 302.27ZM510.042 12.3415L1852.52 779.248L1857.48 770.565L515.002 3.65847L510.042 12.3415ZM1852.52 770.565L919.334 1303.66L924.294 1312.34L1857.48 779.248L1852.52 770.565ZM924.294 1303.66L334.914 966.968L329.953 975.651L919.334 1312.34L924.294 1303.66ZM334.914 975.651L760.578 732.485L755.617 723.802L329.953 966.968L334.914 975.651ZM760.578 723.802L7.48015 293.587L2.51985 302.27L755.617 732.485L760.578 723.802Z" fill="white"/>
<path d="M1805.89 915.194L1707.66 859.079L1511.2 971.309L1609.43 1027.42L1805.89 915.194Z" stroke="white" stroke-width="4" stroke-linejoin="round"/>
<path d="M1134.65 325.985L954.559 428.863M1232.88 382.1L1052.79 484.978" stroke="white" stroke-width="4" stroke-linecap="round" stroke-linejoin="round"/>
<path d="M1152.19 372.163L1052.79 428.863M1007.18 455.167L1052.79 428.863M1085.53 354.043L1183.76 410.158M1069.16 363.395L1167.39 419.511M1052.79 372.748L1151.02 428.863M1036.41 382.101L1134.64 438.216M1020.04 391.453L1118.27 447.568M1052.79 428.863L1101.9 456.921" stroke="white" stroke-width="3" stroke-linecap="round" stroke-linejoin="round"/>
<path d="M1069.16 475.626L970.93 419.511L954.559 428.863L1052.79 484.978L1069.16 475.626Z" fill="#D1D1D1"/>
<path d="M889.072 653.324L643.497 513.036L627.125 522.389L872.7 662.676L889.072 653.324Z" fill="#D1D1D1"/>
<path d="M1052.79 484.978L1183.76 559.798L1331.11 475.626L1200.13 400.806L1052.79 484.978Z" stroke="white" stroke-width="4" stroke-linejoin="round"/>
<path d="M823.584 354.043L954.557 428.863L1101.9 344.69L970.929 269.87L823.584 354.043Z" stroke="white" stroke-width="4" stroke-linejoin="round"/>
<path d="M512.522 8L5 297.928L512.522 587.856L872.699 382.101L823.584 354.043L970.929 269.87L512.522 8Z" stroke="white" stroke-width="4" stroke-linejoin="round"/>
<path d="M921.814 634.619L987.301 672.029L1069.16 625.267L1003.67 587.856L921.814 634.619Z" stroke="white" stroke-width="4" stroke-linejoin="round"/>
<path d="M921.814 1308L332.434 971.309L1003.67 587.856L1036.42 606.561L1151.02 541.094L1183.76 559.799L1331.11 475.626L1855 774.907L921.814 1308Z" stroke="white" stroke-width="4" stroke-linejoin="round"/>
<g filter="url(#filter0_f_2686_3442)">
<ellipse cx="1125" cy="929" rx="35" ry="10" fill="black" fill-opacity="0.25"/>
</g>
<path d="M1180 836.28C1180 866.81 1169.88 873.526 1125 929C1080.34 873.998 1070 866.81 1070 836.28C1070 805.75 1094.62 781 1125 781C1155.38 781 1180 805.75 1180 836.28Z" fill="url(#paint0_linear_2686_3442)"/>
<rect x="1087.07" y="798.465" width="75.8621" height="75.8974" rx="37.931" fill="white"/>
<path d="M1114.02 851.913L1113.98 847.229L1125.15 836.96C1128.05 834.188 1129.62 832.47 1129.62 829.999C1129.62 827.228 1127.54 825.509 1124.68 825.53C1121.76 825.509 1119.84 827.356 1119.87 830.343H1113.72C1113.7 824.263 1118.21 820.374 1124.76 820.374C1131.42 820.374 1135.85 824.177 1135.85 829.569C1135.85 833.114 1134.13 836.015 1127.73 841.815L1123 846.413V846.585H1136.28V851.913H1114.02Z" fill="#191F28"/>
<g filter="url(#filter1_f_2686_3442)">
<ellipse cx="509" cy="348" rx="35" ry="10" fill="black" fill-opacity="0.25"/>
</g>
<path d="M564 255.28C564 285.81 553.878 292.526 509 348C464.338 292.998 454 285.81 454 255.28C454 224.75 478.624 200 509 200C539.376 200 564 224.75 564 255.28Z" fill="url(#paint1_linear_2686_3442)"/>
<rect x="471.068" y="217.465" width="75.8621" height="75.8974" rx="37.931" fill="white"/>
<path d="M514.543 270.913H508.055V245.948H507.883L500.75 250.417V244.702L508.441 239.804H514.543V270.913Z" fill="#191F28"/>
<path d="M438.758 138.32V159.141H435.047V150.273H428.523V147.227H435.047V138.32H438.758ZM409.578 155.977C415.008 154.082 418.348 149.355 418.328 144.531V143.75H410.75V140.742H429.617V143.75H422.117V144.492C422.098 148.926 425.262 153.242 430.555 155.039L428.641 157.969C424.715 156.621 421.824 153.809 420.301 150.352C418.777 154.258 415.711 157.402 411.531 158.945L409.578 155.977ZM415.203 166.719C415.184 162.559 419.676 160.137 427.039 160.117C434.363 160.137 438.855 162.559 438.875 166.719C438.855 170.879 434.363 173.301 427.039 173.32C419.676 173.301 415.184 170.879 415.203 166.719ZM418.875 166.719C418.855 169.082 421.902 170.43 427.039 170.391C432.137 170.43 435.184 169.082 435.203 166.719C435.184 164.336 432.137 162.988 427.039 163.008C421.902 162.988 418.855 164.336 418.875 166.719ZM475.18 165.898V168.984H443.148V165.898H457.25V158.711H446.82V140.703H450.531V146.719H467.719V140.703H471.391V158.711H460.922V165.898H475.18ZM450.531 155.703H467.719V149.727H450.531V155.703ZM489.57 147.227C489.531 153.613 493.398 160.059 498.828 162.461L496.602 165.391C492.578 163.477 489.395 159.551 487.754 154.766C486.133 159.902 482.91 164.121 478.711 166.172L476.445 163.047C481.953 160.605 485.82 153.906 485.82 147.227V141.25H489.57V147.227ZM501.992 173.398V138.32H505.703V173.398H501.992ZM528.062 143.281C528.062 148.984 534.137 154.375 540.875 155.586L539.156 158.672C533.551 157.461 528.414 153.789 526.148 148.867C523.844 153.77 518.707 157.422 513.102 158.672L511.461 155.586C518.102 154.336 524.137 148.984 524.156 143.281V140.625H528.062V143.281ZM510.289 168.711V165.625H542.32V168.711H510.289ZM558.742 140.547V143.594H548.977V147.383H557.375V150.273H548.977V154.453C553.605 154.414 556.633 154.238 560.227 153.594L560.578 156.523C556.555 157.285 553.215 157.422 547.688 157.422H545.422V140.547H558.742ZM550.305 172.891V160.898H573.703V172.891H550.305ZM554.016 169.883H570.07V163.828H554.016V169.883ZM558.977 150V146.992H563.312V138.906H566.828V159.062H563.312V150H558.977ZM570.188 159.336V138.32H573.703V159.336H570.188ZM606.414 138.32V156.328H602.742V138.32H606.414ZM577.547 153.203C583.016 151.387 586.355 146.797 586.375 141.953V139.258H590.164V141.953C590.145 146.641 593.504 150.898 598.875 152.578L597.039 155.469C592.957 154.141 589.891 151.387 588.309 147.832C586.727 151.66 583.602 154.707 579.422 156.133L577.547 153.203ZM583.445 160.938V158.008H606.453V166.758H587.156V170H607.625V172.969H583.562V163.945H602.781V160.938H583.445Z" fill="white"/>
<path d="M921.219 334.656V346.375H925.438V348.875H921.219V362.656H918.25V334.656H921.219ZM898.938 355.031C901.141 355.031 903.703 355.031 906.375 354.953V352.109C903.219 351.641 901.156 349.734 901.188 347.031C901.156 343.875 903.891 341.797 907.875 341.781C911.844 341.797 914.609 343.875 914.625 347.031C914.609 349.734 912.516 351.656 909.344 352.109V354.844C911.828 354.719 914.328 354.516 916.656 354.188L916.844 356.375C910.781 357.453 904.234 357.516 899.406 357.5L898.938 355.031ZM899.469 340.344V337.969H906.375V334.719H909.344V337.969H916.25V340.344H899.469ZM903.969 347.031C903.969 348.812 905.531 349.922 907.875 349.906C910.219 349.922 911.766 348.812 911.781 347.031C911.766 345.234 910.219 344.094 907.875 344.094C905.531 344.094 903.969 345.234 903.969 347.031ZM935.919 339.812C935.903 343.375 938.388 346.625 942.638 347.969L941.231 350.281C938.044 349.266 935.716 347.156 934.481 344.5C933.263 347.562 930.809 349.984 927.45 351.156L925.919 348.781C930.294 347.344 932.934 343.734 932.95 339.844V339.062H926.794V336.656H941.95V339.062H935.919V339.812ZM929.7 357.344C929.7 354.062 933.278 352.141 939.106 352.156C944.872 352.141 948.388 354.062 948.388 357.344C948.388 360.672 944.872 362.609 939.106 362.594C933.278 362.609 929.7 360.672 929.7 357.344ZM932.669 357.344C932.653 359.219 935.059 360.266 939.106 360.25C943.122 360.266 945.497 359.219 945.481 357.344C945.497 355.516 943.122 354.484 939.106 354.5C935.059 354.484 932.653 355.516 932.669 357.344ZM945.169 351.469V334.656H948.138V341.594H952.2V344.031H948.138V351.469H945.169ZM976.181 334.656V349.062H973.244V334.656H976.181ZM953.088 346.562C957.463 345.109 960.134 341.438 960.15 337.562V335.406H963.181V337.562C963.166 341.312 965.853 344.719 970.15 346.062L968.681 348.375C965.416 347.312 962.963 345.109 961.697 342.266C960.431 345.328 957.931 347.766 954.588 348.906L953.088 346.562ZM957.806 352.75V350.406H976.213V357.406H960.775V360H977.15V362.375H957.9V355.156H973.275V352.75H957.806ZM981.537 351.375C981.569 345.484 983.241 340.594 986.162 336.406H989.225C987.069 339.5 985.006 345.797 985.006 351.375C985.006 356.969 987.069 363.266 989.225 366.375H986.162C983.241 362.172 981.569 357.281 981.537 351.375ZM998.081 336.75C1000.64 336.766 1002.74 338.219 1003.97 340.75H1010.89V334.656H1013.83V362.719H1010.89V351.969H1004.18C1002.97 354.781 1000.78 356.422 998.081 356.406C993.909 356.422 990.956 352.609 990.988 346.562C990.956 340.578 993.909 336.766 998.081 336.75ZM993.8 346.562C993.816 351.016 995.55 353.75 998.081 353.75C1000.61 353.75 1002.35 351.016 1002.36 346.562C1002.35 342.172 1000.61 339.422 998.081 339.406C995.55 339.422 993.816 342.172 993.8 346.562ZM1004.82 343.188C1005.03 344.219 1005.18 345.344 1005.18 346.562C1005.18 347.625 1005.08 348.609 1004.89 349.531H1010.89V343.188H1004.82ZM1025.03 351.375C1025 357.281 1023.33 362.172 1020.41 366.375H1017.34C1019.5 363.266 1021.56 356.969 1021.56 351.375C1021.56 345.797 1019.5 339.5 1017.34 336.406H1020.41C1023.33 340.594 1025 345.484 1025.03 351.375Z" fill="white"/>
<path d="M1150.22 465.656V477.375H1154.44V479.875H1150.22V493.656H1147.25V465.656H1150.22ZM1127.94 486.031C1130.14 486.031 1132.7 486.031 1135.38 485.953V483.109C1132.22 482.641 1130.16 480.734 1130.19 478.031C1130.16 474.875 1132.89 472.797 1136.88 472.781C1140.84 472.797 1143.61 474.875 1143.62 478.031C1143.61 480.734 1141.52 482.656 1138.34 483.109V485.844C1140.83 485.719 1143.33 485.516 1145.66 485.188L1145.84 487.375C1139.78 488.453 1133.23 488.516 1128.41 488.5L1127.94 486.031ZM1128.47 471.344V468.969H1135.38V465.719H1138.34V468.969H1145.25V471.344H1128.47ZM1132.97 478.031C1132.97 479.812 1134.53 480.922 1136.88 480.906C1139.22 480.922 1140.77 479.812 1140.78 478.031C1140.77 476.234 1139.22 475.094 1136.88 475.094C1134.53 475.094 1132.97 476.234 1132.97 478.031ZM1164.92 470.812C1164.9 474.375 1167.39 477.625 1171.64 478.969L1170.23 481.281C1167.04 480.266 1164.72 478.156 1163.48 475.5C1162.26 478.562 1159.81 480.984 1156.45 482.156L1154.92 479.781C1159.29 478.344 1161.93 474.734 1161.95 470.844V470.062H1155.79V467.656H1170.95V470.062H1164.92V470.812ZM1158.7 488.344C1158.7 485.062 1162.28 483.141 1168.11 483.156C1173.87 483.141 1177.39 485.062 1177.39 488.344C1177.39 491.672 1173.87 493.609 1168.11 493.594C1162.28 493.609 1158.7 491.672 1158.7 488.344ZM1161.67 488.344C1161.65 490.219 1164.06 491.266 1168.11 491.25C1172.12 491.266 1174.5 490.219 1174.48 488.344C1174.5 486.516 1172.12 485.484 1168.11 485.5C1164.06 485.484 1161.65 486.516 1161.67 488.344ZM1174.17 482.469V465.656H1177.14V472.594H1181.2V475.031H1177.14V482.469H1174.17ZM1205.18 465.656V480.062H1202.24V465.656H1205.18ZM1182.09 477.562C1186.46 476.109 1189.13 472.438 1189.15 468.562V466.406H1192.18V468.562C1192.17 472.312 1194.85 475.719 1199.15 477.062L1197.68 479.375C1194.42 478.312 1191.96 476.109 1190.7 473.266C1189.43 476.328 1186.93 478.766 1183.59 479.906L1182.09 477.562ZM1186.81 483.75V481.406H1205.21V488.406H1189.78V491H1206.15V493.375H1186.9V486.156H1202.28V483.75H1186.81ZM1210.54 482.375C1210.57 476.484 1212.24 471.594 1215.16 467.406H1218.22C1216.07 470.5 1214.01 476.797 1214.01 482.375C1214.01 487.969 1216.07 494.266 1218.22 497.375H1215.16C1212.24 493.172 1210.57 488.281 1210.54 482.375ZM1241.49 465.688V471.906H1245.58V474.375H1241.49V481.469H1238.52V465.688H1241.49ZM1220.77 479.562V467.062H1223.74V477.094C1227.53 477.062 1231.49 476.734 1235.8 475.875L1236.18 478.312C1231.46 479.266 1227.18 479.547 1223.05 479.562H1220.77ZM1223.55 493.281V482.938H1241.49V493.281H1223.55ZM1226.46 490.906H1238.61V485.25H1226.46V490.906ZM1254.03 482.375C1254 488.281 1252.33 493.172 1249.41 497.375H1246.34C1248.5 494.266 1250.56 487.969 1250.56 482.375C1250.56 476.797 1248.5 470.5 1246.34 467.406H1249.41C1252.33 471.594 1254 476.484 1254.03 482.375Z" fill="white"/>
<path d="M1059.14 731.781V736.508H1073.28V739.555H1041.36V736.508H1055.46V731.781H1059.14ZM1043 730.688C1049.33 730.043 1054.29 727.27 1054.8 723.891H1044.29V720.922H1070.43V723.891H1059.8C1060.33 727.25 1065.29 730.043 1071.64 730.688L1070.31 733.617C1064.23 732.914 1059.21 730.414 1057.3 726.723C1055.39 730.414 1050.41 732.914 1044.33 733.617L1043 730.688ZM1045.15 748.188C1045.15 744.262 1049.68 742.094 1057.3 742.094C1064.86 742.094 1069.35 744.262 1069.37 748.188C1069.35 752.094 1064.86 754.262 1057.3 754.242C1049.68 754.262 1045.15 752.094 1045.15 748.188ZM1048.9 748.188C1048.88 750.277 1051.89 751.43 1057.3 751.43C1062.63 751.43 1065.66 750.277 1065.66 748.188C1065.66 746.098 1062.63 744.965 1057.3 744.945C1051.89 744.965 1048.88 746.098 1048.9 748.188ZM1102.43 719.32V728.109H1107.51V731.234H1102.43V739.711H1098.72V719.32H1102.43ZM1074.97 725.727V722.758H1083.57V719.008H1087.28V722.758H1095.83V725.727H1074.97ZM1076.89 733.305C1076.87 729.574 1080.3 727.152 1085.4 727.172C1090.44 727.152 1093.88 729.574 1093.88 733.305C1093.88 737.035 1090.44 739.477 1085.4 739.438C1080.3 739.477 1076.87 737.035 1076.89 733.305ZM1080.05 753.891V741.156H1083.72V744.555H1098.72V741.156H1102.43V753.891H1080.05ZM1080.48 733.305C1080.44 735.395 1082.43 736.684 1085.4 736.703C1088.37 736.684 1090.36 735.395 1090.4 733.305C1090.36 731.254 1088.37 729.926 1085.4 729.945C1082.43 729.926 1080.44 731.254 1080.48 733.305ZM1083.72 750.922H1098.72V747.445H1083.72V750.922ZM1120.69 729.633C1120.67 735.16 1124.32 741.332 1129.64 743.852L1127.53 746.742C1123.6 744.867 1120.48 740.922 1118.89 736.352C1117.29 741.332 1114.01 745.648 1110.03 747.641L1107.84 744.711C1113.15 742.152 1117 735.551 1117.02 729.633V725.922H1109.13V722.836H1128.31V725.922H1120.69V729.633ZM1132.06 754.32V719.32H1135.77V733.188H1141.39V736.312H1135.77V754.32H1132.06ZM1174.11 747.016V750.141H1142.07V747.016H1150.82V740.844H1145.98V729.711H1166.53V724.828H1145.9V721.781H1170.2V732.719H1149.65V737.797H1171.02V740.844H1165.71V747.016H1174.11ZM1154.42 747.016H1162.07V740.844H1154.42V747.016ZM1204.63 719.32V737.328H1200.96V719.32H1204.63ZM1175.76 734.203C1181.23 732.387 1184.57 727.797 1184.59 722.953V720.258H1188.38V722.953C1188.36 727.641 1191.72 731.898 1197.09 733.578L1195.25 736.469C1191.17 735.141 1188.11 732.387 1186.52 728.832C1184.94 732.66 1181.82 735.707 1177.64 737.133L1175.76 734.203ZM1181.66 741.938V739.008H1204.67V747.758H1185.37V751H1205.84V753.969H1181.78V744.945H1201V741.938H1181.66Z" fill="white"/>
<path d="M972.612 641V618.375H986.8V621.344H976.05V628.188H986.05V631.125H976.05V638.031H986.925V641H972.612ZM998.562 617.312L991.281 644.406H988.312L995.594 617.312H998.562ZM1002.61 618.375L1008.89 636.781H1009.14L1015.42 618.375H1019.14L1010.98 641H1007.01L998.887 618.375H1002.61Z" fill="white"/>
<defs>
<filter id="filter0_f_2686_3442" x="1085" y="914" width="80" height="30" filterUnits="userSpaceOnUse" color-interpolation-filters="sRGB">
<feFlood flood-opacity="0" result="BackgroundImageFix"/>
<feBlend mode="normal" in="SourceGraphic" in2="BackgroundImageFix" result="shape"/>
<feGaussianBlur stdDeviation="2.5" result="effect1_foregroundBlur_2686_3442"/>
</filter>
<filter id="filter1_f_2686_3442" x="469" y="333" width="80" height="30" filterUnits="userSpaceOnUse" color-interpolation-filters="sRGB">
<feFlood flood-opacity="0" result="BackgroundImageFix"/>
<feBlend mode="normal" in="SourceGraphic" in2="BackgroundImageFix" result="shape"/>
<feGaussianBlur stdDeviation="2.5" result="effect1_foregroundBlur_2686_3442"/>
</filter>
<linearGradient id="paint0_linear_2686_3442" x1="1156.7" y1="796.156" x2="1094.25" y2="903.663" gradientUnits="userSpaceOnUse">
<stop offset="0.144416" stop-color="#C41818"/>
<stop offset="1" stop-color="#072B24"/>
</linearGradient>
<linearGradient id="paint1_linear_2686_3442" x1="540.703" y1="215.156" x2="478.25" y2="322.663" gradientUnits="userSpaceOnUse">
<stop offset="0.144416" stop-color="#C41818"/>
<stop offset="1" stop-color="#072B24"/>
</linearGradient>
</defs>
</svg>
