<svg width="2160" height="1540" viewBox="0 0 2160 1540" fill="none" xmlns="http://www.w3.org/2000/svg">
<path d="M1875.2 1092.46L1775.8 1149.24M1730.19 1175.58L1775.8 1149.24M1808.54 1074.32L1906.77 1130.51M1792.17 1083.68L1890.4 1139.87M1775.8 1093.05L1874.03 1149.24M1759.42 1102.41L1857.65 1158.6M1743.05 1111.78L1841.28 1167.97M1775.8 1149.24L1824.91 1177.33" stroke="white" stroke-width="3" stroke-linecap="round" stroke-linejoin="round"/>
<path d="M662.522 194L155 484.317L908.097 915.111L695.266 1036.86L1284.65 1374L2005 961.936L662.522 194Z" stroke="white" stroke-width="10" stroke-linejoin="round"/>
<path d="M1955.88 1102.41L1857.65 1046.22L1661.19 1158.6L1759.42 1214.79L1955.88 1102.41Z" stroke="white" stroke-width="4" stroke-linejoin="round"/>
<path d="M1284.65 512.413L1104.56 615.429M1382.88 568.604L1202.79 671.619" stroke="white" stroke-width="4" stroke-linecap="round" stroke-linejoin="round"/>
<path d="M1302.19 558.653L1202.79 615.428M1157.18 641.768L1202.79 615.428M1235.53 540.508L1333.76 596.698M1219.16 549.873L1317.39 606.063M1202.79 559.238L1301.02 615.428M1186.42 568.603L1284.65 624.794M1170.04 577.968L1268.27 634.159M1202.79 615.428L1251.9 643.524" stroke="white" stroke-width="3" stroke-linecap="round" stroke-linejoin="round"/>
<path d="M989.956 868.285L908.098 915.111L1071.81 1008.76L1153.67 961.936L989.956 868.285Z" stroke="white" stroke-width="4" stroke-linejoin="round"/>
<path d="M908.098 915.111L826.239 961.937L989.956 1055.59L1071.81 1008.76L908.098 915.111Z" stroke="white" stroke-width="4" stroke-linejoin="round"/>
<path d="M1612.08 961.937L1808.54 1074.32L2005 961.937L1808.54 849.556L1612.08 961.937Z" stroke="white" stroke-width="4" stroke-linejoin="round"/>
<path d="M1202.79 671.619L1333.76 746.539L1481.11 662.254L1350.13 587.333L1202.79 671.619Z" stroke="white" stroke-width="4" stroke-linejoin="round"/>
<path d="M973.584 540.507L1104.56 615.428L1251.9 531.142L1120.93 456.222L973.584 540.507Z" stroke="white" stroke-width="4" stroke-linejoin="round"/>
<path d="M1284.65 774.635L1612.08 961.936L1808.54 849.555L1481.11 662.254L1284.65 774.635Z" stroke="white" stroke-width="4" stroke-linejoin="round"/>
<path d="M466.062 306.381L924.469 568.603L1120.93 456.222L662.522 194L466.062 306.381Z" stroke="white" stroke-width="4" stroke-linejoin="round"/>
<path d="M466.062 306.381L155 484.317L662.522 774.634L973.584 596.698L777.124 484.317L466.062 306.381Z" stroke="white" stroke-width="4" stroke-linejoin="round"/>
<path d="M1071.81 821.46L1137.3 858.92L1219.16 812.095L1153.67 774.635L1071.81 821.46Z" stroke="white" stroke-width="4" stroke-linejoin="round"/>
<path d="M1284.65 1374L695.266 1036.86L1153.67 774.635L1186.42 793.366L1251.9 755.905L1808.54 1074.32L1284.65 1374Z" stroke="white" stroke-width="4" stroke-linejoin="round"/>
<path d="M1515.38 802.875V806.625C1515.38 811.156 1515.38 816.059 1514.09 823.539L1510.3 823.188C1511.71 816.176 1511.71 811.039 1511.71 806.625V805.922H1491.09V802.875H1515.38ZM1487.65 829.359V826.273H1519.56V829.359H1487.65ZM1550.24 799.359V820.102H1546.53V799.359H1550.24ZM1522.98 804.398V801.43H1539.07V811.273H1526.69V815.492C1532.82 815.492 1537.29 815.316 1542.62 814.438L1543.09 817.484C1537.37 818.363 1532.61 818.559 1525.98 818.539H1523.05V808.383H1535.4V804.398H1522.98ZM1527.23 833.891V821.859H1550.24V833.891H1527.23ZM1530.91 830.883H1546.61V824.828H1530.91V830.883ZM1565.38 807.016C1565.38 810.961 1567.88 814.809 1572.33 816.391L1570.57 819.203C1567.27 817.934 1564.96 815.531 1563.71 812.602C1562.48 815.785 1560.14 818.402 1556.74 819.789L1554.98 817.055C1559.42 815.258 1561.84 811.254 1561.86 807.016V806.703H1555.77V803.734H1561.86V799.711H1565.38V803.734H1571.39V806.703H1565.38V807.016ZM1560.84 825.531V822.523H1584.63V834.32H1580.96V825.531H1560.84ZM1573.58 820.609V799.945H1577.13V808.5H1581.12V799.359H1584.63V820.766H1581.12V811.547H1577.13V820.609H1573.58ZM1604.57 821.117C1611.78 821.117 1616.17 823.539 1616.17 827.68C1616.17 831.879 1611.78 834.301 1604.57 834.32C1597.29 834.301 1592.81 831.879 1592.81 827.68C1592.81 823.539 1597.29 821.117 1604.57 821.117ZM1589.73 817.758V801.508H1593.36V806.547H1602.54V801.508H1606.21V817.758H1589.73ZM1593.36 814.789H1602.54V809.477H1593.36V814.789ZM1596.52 827.68C1596.5 830.023 1599.51 831.352 1604.57 831.352C1609.59 831.352 1612.56 830.023 1612.54 827.68C1612.56 825.355 1609.59 824.047 1604.57 824.047C1599.51 824.047 1596.5 825.355 1596.52 827.68ZM1612.15 820.219V799.32H1615.86V807.875H1620.94V811.039H1615.86V820.219H1612.15Z" fill="white"/>
<path d="M1010.38 923.656V930.75H1014.41V933.188H1010.38V940.188H1007.38V923.656H1010.38ZM989.534 938.156V925.719H1002.03V928.125H992.472V935.75C997.987 935.719 1001.1 935.562 1004.63 934.844L1004.91 937.25C1001.16 938.016 997.816 938.156 991.753 938.156H989.534ZM991.909 946.156C991.909 942.734 995.534 940.734 1001.32 940.719C1007.03 940.734 1010.6 942.734 1010.6 946.156C1010.6 949.609 1007.03 951.609 1001.32 951.594C995.534 951.609 991.909 949.609 991.909 946.156ZM994.847 946.156C994.831 948.094 997.269 949.234 1001.32 949.219C1005.28 949.234 1007.74 948.094 1007.75 946.156C1007.74 944.219 1005.28 943.109 1001.32 943.125C997.269 943.109 994.831 944.219 994.847 946.156ZM1025.58 928.688C1025.58 932.281 1028.25 935.734 1032.58 937.094L1031.05 939.406C1027.83 938.344 1025.39 936.141 1024.12 933.328C1022.86 936.359 1020.38 938.766 1017.05 939.938L1015.52 937.656C1019.88 936.141 1022.56 932.484 1022.58 928.688V927.906H1016.3V925.5H1031.73V927.906H1025.58V928.688ZM1019.45 944.375V941.969H1038.42V951.656H1035.45V944.375H1019.45ZM1035.45 940.562V923.656H1038.42V940.562H1035.45ZM1065.25 923.656V938.062H1062.31V923.656H1065.25ZM1042.15 935.562C1046.53 934.109 1049.2 930.438 1049.22 926.562V924.406H1052.25V926.562C1052.23 930.312 1054.92 933.719 1059.22 935.062L1057.75 937.375C1054.48 936.312 1052.03 934.109 1050.76 931.266C1049.5 934.328 1047 936.766 1043.65 937.906L1042.15 935.562ZM1046.87 941.75V939.406H1065.28V946.406H1049.84V949H1066.22V951.375H1046.97V944.156H1062.34V941.75H1046.87Z" fill="white"/>
<path d="M1071.22 521.656V533.375H1075.44V535.875H1071.22V549.656H1068.25V521.656H1071.22ZM1048.94 542.031C1051.14 542.031 1053.7 542.031 1056.38 541.953V539.109C1053.22 538.641 1051.16 536.734 1051.19 534.031C1051.16 530.875 1053.89 528.797 1057.88 528.781C1061.84 528.797 1064.61 530.875 1064.62 534.031C1064.61 536.734 1062.52 538.656 1059.34 539.109V541.844C1061.83 541.719 1064.33 541.516 1066.66 541.188L1066.84 543.375C1060.78 544.453 1054.23 544.516 1049.41 544.5L1048.94 542.031ZM1049.47 527.344V524.969H1056.38V521.719H1059.34V524.969H1066.25V527.344H1049.47ZM1053.97 534.031C1053.97 535.812 1055.53 536.922 1057.88 536.906C1060.22 536.922 1061.77 535.812 1061.78 534.031C1061.77 532.234 1060.22 531.094 1057.88 531.094C1055.53 531.094 1053.97 532.234 1053.97 534.031ZM1085.92 526.812C1085.9 530.375 1088.39 533.625 1092.64 534.969L1091.23 537.281C1088.04 536.266 1085.72 534.156 1084.48 531.5C1083.26 534.562 1080.81 536.984 1077.45 538.156L1075.92 535.781C1080.29 534.344 1082.93 530.734 1082.95 526.844V526.062H1076.79V523.656H1091.95V526.062H1085.92V526.812ZM1079.7 544.344C1079.7 541.062 1083.28 539.141 1089.11 539.156C1094.87 539.141 1098.39 541.062 1098.39 544.344C1098.39 547.672 1094.87 549.609 1089.11 549.594C1083.28 549.609 1079.7 547.672 1079.7 544.344ZM1082.67 544.344C1082.65 546.219 1085.06 547.266 1089.11 547.25C1093.12 547.266 1095.5 546.219 1095.48 544.344C1095.5 542.516 1093.12 541.484 1089.11 541.5C1085.06 541.484 1082.65 542.516 1082.67 544.344ZM1095.17 538.469V521.656H1098.14V528.594H1102.2V531.031H1098.14V538.469H1095.17ZM1126.18 521.656V536.062H1123.24V521.656H1126.18ZM1103.09 533.562C1107.46 532.109 1110.13 528.438 1110.15 524.562V522.406H1113.18V524.562C1113.17 528.312 1115.85 531.719 1120.15 533.062L1118.68 535.375C1115.42 534.312 1112.96 532.109 1111.7 529.266C1110.43 532.328 1107.93 534.766 1104.59 535.906L1103.09 533.562ZM1107.81 539.75V537.406H1126.21V544.406H1110.78V547H1127.15V549.375H1107.9V542.156H1123.28V539.75H1107.81ZM1131.54 538.375C1131.57 532.484 1133.24 527.594 1136.16 523.406H1139.22C1137.07 526.5 1135.01 532.797 1135.01 538.375C1135.01 543.969 1137.07 550.266 1139.22 553.375H1136.16C1133.24 549.172 1131.57 544.281 1131.54 538.375ZM1148.08 523.75C1150.64 523.766 1152.74 525.219 1153.97 527.75H1160.89V521.656H1163.83V549.719H1160.89V538.969H1154.18C1152.97 541.781 1150.78 543.422 1148.08 543.406C1143.91 543.422 1140.96 539.609 1140.99 533.562C1140.96 527.578 1143.91 523.766 1148.08 523.75ZM1143.8 533.562C1143.82 538.016 1145.55 540.75 1148.08 540.75C1150.61 540.75 1152.35 538.016 1152.36 533.562C1152.35 529.172 1150.61 526.422 1148.08 526.406C1145.55 526.422 1143.82 529.172 1143.8 533.562ZM1154.82 530.188C1155.03 531.219 1155.18 532.344 1155.18 533.562C1155.18 534.625 1155.08 535.609 1154.89 536.531H1160.89V530.188H1154.82ZM1175.03 538.375C1175 544.281 1173.33 549.172 1170.41 553.375H1167.34C1169.5 550.266 1171.56 543.969 1171.56 538.375C1171.56 532.797 1169.5 526.5 1167.34 523.406H1170.41C1173.33 527.594 1175 532.484 1175.03 538.375Z" fill="white"/>
<path d="M1300.22 652.656V664.375H1304.44V666.875H1300.22V680.656H1297.25V652.656H1300.22ZM1277.94 673.031C1280.14 673.031 1282.7 673.031 1285.38 672.953V670.109C1282.22 669.641 1280.16 667.734 1280.19 665.031C1280.16 661.875 1282.89 659.797 1286.88 659.781C1290.84 659.797 1293.61 661.875 1293.62 665.031C1293.61 667.734 1291.52 669.656 1288.34 670.109V672.844C1290.83 672.719 1293.33 672.516 1295.66 672.188L1295.84 674.375C1289.78 675.453 1283.23 675.516 1278.41 675.5L1277.94 673.031ZM1278.47 658.344V655.969H1285.38V652.719H1288.34V655.969H1295.25V658.344H1278.47ZM1282.97 665.031C1282.97 666.812 1284.53 667.922 1286.88 667.906C1289.22 667.922 1290.77 666.812 1290.78 665.031C1290.77 663.234 1289.22 662.094 1286.88 662.094C1284.53 662.094 1282.97 663.234 1282.97 665.031ZM1314.92 657.812C1314.9 661.375 1317.39 664.625 1321.64 665.969L1320.23 668.281C1317.04 667.266 1314.72 665.156 1313.48 662.5C1312.26 665.562 1309.81 667.984 1306.45 669.156L1304.92 666.781C1309.29 665.344 1311.93 661.734 1311.95 657.844V657.062H1305.79V654.656H1320.95V657.062H1314.92V657.812ZM1308.7 675.344C1308.7 672.062 1312.28 670.141 1318.11 670.156C1323.87 670.141 1327.39 672.062 1327.39 675.344C1327.39 678.672 1323.87 680.609 1318.11 680.594C1312.28 680.609 1308.7 678.672 1308.7 675.344ZM1311.67 675.344C1311.65 677.219 1314.06 678.266 1318.11 678.25C1322.12 678.266 1324.5 677.219 1324.48 675.344C1324.5 673.516 1322.12 672.484 1318.11 672.5C1314.06 672.484 1311.65 673.516 1311.67 675.344ZM1324.17 669.469V652.656H1327.14V659.594H1331.2V662.031H1327.14V669.469H1324.17ZM1355.18 652.656V667.062H1352.24V652.656H1355.18ZM1332.09 664.562C1336.46 663.109 1339.13 659.438 1339.15 655.562V653.406H1342.18V655.562C1342.17 659.312 1344.85 662.719 1349.15 664.062L1347.68 666.375C1344.42 665.312 1341.96 663.109 1340.7 660.266C1339.43 663.328 1336.93 665.766 1333.59 666.906L1332.09 664.562ZM1336.81 670.75V668.406H1355.21V675.406H1339.78V678H1356.15V680.375H1336.9V673.156H1352.28V670.75H1336.81ZM1360.54 669.375C1360.57 663.484 1362.24 658.594 1365.16 654.406H1368.22C1366.07 657.5 1364.01 663.797 1364.01 669.375C1364.01 674.969 1366.07 681.266 1368.22 684.375H1365.16C1362.24 680.172 1360.57 675.281 1360.54 669.375ZM1391.49 652.688V658.906H1395.58V661.375H1391.49V668.469H1388.52V652.688H1391.49ZM1370.77 666.562V654.062H1373.74V664.094C1377.53 664.062 1381.49 663.734 1385.8 662.875L1386.18 665.312C1381.46 666.266 1377.18 666.547 1373.05 666.562H1370.77ZM1373.55 680.281V669.938H1391.49V680.281H1373.55ZM1376.46 677.906H1388.61V672.25H1376.46V677.906ZM1404.03 669.375C1404 675.281 1402.33 680.172 1399.41 684.375H1396.34C1398.5 681.266 1400.56 674.969 1400.56 669.375C1400.56 663.797 1398.5 657.5 1396.34 654.406H1399.41C1402.33 658.594 1404 663.484 1404.03 669.375Z" fill="white"/>
<path d="M921.941 971.781V973.344C921.909 975.219 921.909 978 921.222 981.625L918.284 981.344C918.894 978.25 918.987 975.984 919.019 974.219H907.816V971.781H921.941ZM906.128 984.031C907.847 984.031 909.8 984.016 911.847 983.969V978.062H914.784V983.875C917.784 983.75 920.878 983.531 923.691 983.125L923.878 985.281C918.034 986.312 911.347 986.422 906.409 986.438L906.128 984.031ZM910.378 997.062V988.781H913.347V994.656H929.409V997.062H910.378ZM925.472 990.688V969.656H928.503V978.562H932.347V981.062H928.503V990.688H925.472ZM956.453 969.656V997.719H953.484V969.656H956.453ZM934.766 974.594V972.188H947.891V982.406H937.828V988.531C942.375 988.516 946.328 988.297 951.016 987.531L951.297 989.969C946.344 990.797 942.125 990.984 937.172 991H934.797V980.031H944.859V974.594H934.766ZM983.247 969.656V984.062H980.309V969.656H983.247ZM960.153 981.562C964.528 980.109 967.2 976.438 967.216 972.562V970.406H970.247V972.562C970.231 976.312 972.919 979.719 977.216 981.062L975.747 983.375C972.481 982.312 970.028 980.109 968.763 977.266C967.497 980.328 964.997 982.766 961.653 983.906L960.153 981.562ZM964.872 987.75V985.406H983.278V992.406H967.841V995H984.216V997.375H964.966V990.156H980.341V987.75H964.872Z" fill="white"/>
<path d="M1122.61 828V805.375H1136.8V808.344H1126.05V815.188H1136.05V818.125H1126.05V825.031H1136.92V828H1122.61ZM1148.56 804.312L1141.28 831.406H1138.31L1145.59 804.312H1148.56ZM1152.61 805.375L1158.89 823.781H1159.14L1165.42 805.375H1169.14L1160.98 828H1157.01L1148.89 805.375H1152.61Z" fill="white"/>
<path d="M1764.63 942.32V977.398H1760.92V942.32H1764.63ZM1736.86 957.203C1736.86 949.723 1740.63 944.957 1745.92 944.938C1751.12 944.957 1754.95 949.723 1754.95 957.203C1754.95 964.762 1751.12 969.527 1745.92 969.508C1740.63 969.527 1736.86 964.762 1736.86 957.203ZM1740.45 957.203C1740.43 962.77 1742.66 966.188 1745.92 966.188C1749.12 966.188 1751.35 962.77 1751.35 957.203C1751.35 951.715 1749.12 948.277 1745.92 948.258C1742.66 948.277 1740.43 951.715 1740.45 957.203ZM1778.59 944.938C1783.83 944.957 1787.56 949.723 1787.58 957.203C1787.56 964.762 1783.83 969.527 1778.59 969.508C1773.36 969.527 1769.63 964.762 1769.65 957.203C1769.63 949.723 1773.36 944.957 1778.59 944.938ZM1773.2 957.203C1773.18 962.77 1775.41 966.188 1778.59 966.188C1781.84 966.188 1784.02 962.77 1784.02 957.203C1784.02 951.715 1781.84 948.277 1778.59 948.258C1775.41 948.277 1773.18 951.715 1773.2 957.203ZM1792.77 977.32V942.32H1796.48V950.875H1801.91V954.039H1796.48V961.305H1801.91V964.352H1796.48V977.32H1792.77ZM1831.89 942.32V977.32H1828.14V942.32H1831.89ZM1803.14 967.945C1812.44 963.512 1816.99 957.203 1817.71 949.039H1804.82V946.07H1821.46C1821.46 956.324 1817.11 965.191 1805.09 970.953L1803.14 967.945ZM1852.57 964.117C1859.78 964.117 1864.17 966.539 1864.17 970.68C1864.17 974.879 1859.78 977.301 1852.57 977.32C1845.29 977.301 1840.81 974.879 1840.81 970.68C1840.81 966.539 1845.29 964.117 1852.57 964.117ZM1837.73 960.758V944.508H1841.36V949.547H1850.54V944.508H1854.21V960.758H1837.73ZM1841.36 957.789H1850.54V952.477H1841.36V957.789ZM1844.52 970.68C1844.5 973.023 1847.51 974.352 1852.57 974.352C1857.59 974.352 1860.56 973.023 1860.54 970.68C1860.56 968.355 1857.59 967.047 1852.57 967.047C1847.51 967.047 1844.5 968.355 1844.52 970.68ZM1860.15 963.219V942.32H1863.86V950.875H1868.94V954.039H1863.86V963.219H1860.15Z" fill="white"/>
</svg>
