<svg width="1860" height="1190" viewBox="0 0 1860 1190" fill="none" xmlns="http://www.w3.org/2000/svg">
<path d="M1725.2 903.462L1625.8 960.238M1580.19 986.577L1625.8 960.238M1658.54 885.317L1756.77 941.508M1642.17 894.682L1740.4 950.873M1625.8 904.048L1724.03 960.238M1609.42 913.413L1707.65 969.603M1593.05 922.778L1691.28 978.968M1625.8 960.238L1674.91 988.333" stroke="white" stroke-width="3" stroke-linecap="round" stroke-linejoin="round"/>
<path d="M512.522 5L5 295.317L758.097 726.111L545.266 847.857L1134.65 1185L1855 772.936L512.522 5Z" stroke="white" stroke-width="10" stroke-linejoin="round"/>
<path d="M1805.88 913.413L1707.65 857.223L1511.19 969.604L1609.42 1025.79L1805.88 913.413Z" stroke="white" stroke-width="4" stroke-linejoin="round"/>
<path d="M1134.65 323.413L954.558 426.429M1232.88 379.604L1052.79 482.619" stroke="white" stroke-width="4" stroke-linecap="round" stroke-linejoin="round"/>
<path d="M1152.19 369.653L1052.79 426.428M1007.18 452.768L1052.79 426.428M1085.53 351.508L1183.76 407.698M1069.16 360.873L1167.39 417.063M1052.79 370.238L1151.02 426.428M1036.42 379.603L1134.65 435.794M1020.04 388.968L1118.27 445.159M1052.79 426.428L1101.9 454.524" stroke="white" stroke-width="3" stroke-linecap="round" stroke-linejoin="round"/>
<path d="M839.956 679.285L758.098 726.111L921.814 819.761L1003.67 772.936L839.956 679.285Z" stroke="white" stroke-width="4" stroke-linejoin="round"/>
<path d="M758.098 726.111L676.239 772.937L839.956 866.588L921.814 819.762L758.098 726.111Z" stroke="white" stroke-width="4" stroke-linejoin="round"/>
<path d="M1462.08 772.937L1658.54 885.318L1855 772.937L1658.54 660.556L1462.08 772.937Z" stroke="white" stroke-width="4" stroke-linejoin="round"/>
<path d="M1052.79 482.619L1183.76 557.539L1331.11 473.254L1200.13 398.333L1052.79 482.619Z" stroke="white" stroke-width="4" stroke-linejoin="round"/>
<path d="M823.584 351.507L954.557 426.428L1101.9 342.142L970.929 267.222L823.584 351.507Z" stroke="white" stroke-width="4" stroke-linejoin="round"/>
<path d="M1134.65 585.635L1462.08 772.936L1658.54 660.555L1331.11 473.254L1134.65 585.635Z" stroke="white" stroke-width="4" stroke-linejoin="round"/>
<path d="M316.062 117.381L774.469 379.603L970.929 267.222L512.522 5L316.062 117.381Z" stroke="white" stroke-width="4" stroke-linejoin="round"/>
<path d="M316.062 117.381L5 295.317L512.522 585.634L823.584 407.698L627.124 295.317L316.062 117.381Z" stroke="white" stroke-width="4" stroke-linejoin="round"/>
<path d="M921.814 632.46L987.301 669.92L1069.16 623.095L1003.67 585.635L921.814 632.46Z" stroke="white" stroke-width="4" stroke-linejoin="round"/>
<path d="M1134.65 1185L545.266 847.858L1003.67 585.635L1036.42 604.366L1101.9 566.905L1658.54 885.318L1134.65 1185Z" stroke="white" stroke-width="4" stroke-linejoin="round"/>
<g filter="url(#filter0_f_2686_3473)">
<ellipse cx="1155" cy="918" rx="35" ry="10" fill="black" fill-opacity="0.25"/>
</g>
<path d="M1210 825.28C1210 855.81 1199.88 862.526 1155 918C1110.34 862.998 1100 855.81 1100 825.28C1100 794.75 1124.62 770 1155 770C1185.38 770 1210 794.75 1210 825.28Z" fill="url(#paint0_linear_2686_3473)"/>
<rect x="1117.07" y="787.465" width="75.8621" height="75.8974" rx="37.931" fill="white"/>
<path d="M1144.02 840.913L1143.98 836.229L1155.15 825.96C1158.05 823.188 1159.62 821.47 1159.62 818.999C1159.62 816.228 1157.53 814.509 1154.68 814.53C1151.75 814.509 1149.84 816.356 1149.86 819.343H1143.72C1143.7 813.263 1148.21 809.374 1154.76 809.374C1161.42 809.374 1165.85 813.177 1165.85 818.569C1165.85 822.114 1164.13 825.015 1157.73 830.815L1153 835.413V835.585H1166.28V840.913H1144.02Z" fill="#191F28"/>
<g filter="url(#filter1_f_2686_3473)">
<ellipse cx="715" cy="219" rx="35" ry="10" fill="black" fill-opacity="0.25"/>
</g>
<path d="M770 126.28C770 156.81 759.878 163.526 715 219C670.338 163.998 660 156.81 660 126.28C660 95.7495 684.624 71 715 71C745.376 71 770 95.7495 770 126.28Z" fill="url(#paint1_linear_2686_3473)"/>
<rect x="677.068" y="88.4648" width="75.8621" height="75.8974" rx="37.931" fill="white"/>
<path d="M720.542 141.913H714.054V116.948H713.882L706.749 121.417V115.702L714.44 110.804H720.542V141.913Z" fill="#191F28"/>
<path d="M633.898 11.2734C633.879 20.3359 628.957 26.7812 617.883 30.1797L616.398 27.1719C621.867 25.5898 625.5 23.2656 627.629 20.375L616.867 21.1953L616.281 18.1875L629.133 17.6406C629.562 16.5859 629.816 15.4531 629.953 14.2812H618.039V11.2734H633.898ZM621.867 43.8906V31.2344H644.758V43.8906H621.867ZM625.5 40.8828H641.086V34.2031H625.5V40.8828ZM633.781 21.4688V18.4219H641.047V9.35938H644.758V29.4375H641.047V21.4688H633.781ZM678.133 11.1953V14.2031H673.016V23.0703H677.938V26.0781H652.273V23.0703H657.234V14.2031H652.117V11.1953H678.133ZM649.109 32.7969V29.75H681.141V32.7969H673.133V44.3203H669.461V32.7969H660.984V44.3203H657.195V32.7969H649.109ZM660.945 23.0703H669.383V14.2031H660.945V23.0703ZM711.898 9.32031V44.3984H708.227V25.2969H701.273V22.25H708.227V9.32031H711.898ZM684.32 36.1172V12.4453H700.688V15.4531H688.07V22.25H699.203V25.2188H688.07V33.0312C693.93 33.0312 697.992 32.8555 702.641 32.0547L703.031 35.0625C697.934 35.8828 693.539 36.0977 687.055 36.1172H684.32ZM744.727 12.6797V16.4297C744.688 20.8242 744.688 25.4336 743.438 32.1328L739.805 31.7422C741.035 25.4141 741.035 20.7266 741.016 16.4297V15.6875H719.57V12.6797H744.727ZM716.289 39.5938V36.5078H723.828V25.1797H727.539V36.5078H732.578V25.1797H736.211V36.5078H748.203V39.5938H716.289ZM781.773 26V29.0078H773.531V33.0703H777.867V44.3203H774.117V36H753.414V33.0703H758.023V29.0078H749.859V26H781.773ZM753.297 16.8594C753.277 12.6211 758.141 10.082 765.797 10.1016C773.434 10.082 778.277 12.6211 778.297 16.8594C778.277 21.0781 773.434 23.6367 765.797 23.6172C758.141 23.6367 753.277 21.0781 753.297 16.8594ZM757.125 16.8594C757.105 19.3008 760.406 20.7266 765.797 20.7266C771.148 20.7266 774.488 19.3008 774.469 16.8594C774.488 14.4375 771.148 13.0117 765.797 13.0312C760.406 13.0117 757.105 14.4375 757.125 16.8594ZM761.734 33.0703H769.898V29.0078H761.734V33.0703ZM812.414 9.32031V27.3281H808.742V9.32031H812.414ZM783.547 24.2031C789.016 22.3867 792.355 17.7969 792.375 12.9531V10.2578H796.164V12.9531C796.145 17.6406 799.504 21.8984 804.875 23.5781L803.039 26.4688C798.957 25.1406 795.891 22.3867 794.309 18.832C792.727 22.6602 789.602 25.707 785.422 27.1328L783.547 24.2031ZM789.445 31.9375V29.0078H812.453V37.7578H793.156V41H813.625V43.9688H789.562V34.9453H808.781V31.9375H789.445Z" fill="white"/>
<path d="M1365.38 613.875V617.625C1365.38 622.156 1365.38 627.059 1364.09 634.539L1360.3 634.188C1361.71 627.176 1361.71 622.039 1361.71 617.625V616.922H1341.09V613.875H1365.38ZM1337.65 640.359V637.273H1369.56V640.359H1337.65ZM1400.24 610.359V631.102H1396.53V610.359H1400.24ZM1372.98 615.398V612.43H1389.07V622.273H1376.69V626.492C1382.82 626.492 1387.29 626.316 1392.62 625.438L1393.09 628.484C1387.37 629.363 1382.61 629.559 1375.98 629.539H1373.05V619.383H1385.4V615.398H1372.98ZM1377.23 644.891V632.859H1400.24V644.891H1377.23ZM1380.91 641.883H1396.61V635.828H1380.91V641.883ZM1415.38 618.016C1415.38 621.961 1417.88 625.809 1422.33 627.391L1420.57 630.203C1417.27 628.934 1414.96 626.531 1413.71 623.602C1412.48 626.785 1410.14 629.402 1406.74 630.789L1404.98 628.055C1409.42 626.258 1411.84 622.254 1411.86 618.016V617.703H1405.77V614.734H1411.86V610.711H1415.38V614.734H1421.39V617.703H1415.38V618.016ZM1410.84 636.531V633.523H1434.63V645.32H1430.96V636.531H1410.84ZM1423.58 631.609V610.945H1427.13V619.5H1431.12V610.359H1434.63V631.766H1431.12V622.547H1427.13V631.609H1423.58ZM1454.57 632.117C1461.78 632.117 1466.17 634.539 1466.17 638.68C1466.17 642.879 1461.78 645.301 1454.57 645.32C1447.29 645.301 1442.81 642.879 1442.81 638.68C1442.81 634.539 1447.29 632.117 1454.57 632.117ZM1439.73 628.758V612.508H1443.36V617.547H1452.54V612.508H1456.21V628.758H1439.73ZM1443.36 625.789H1452.54V620.477H1443.36V625.789ZM1446.52 638.68C1446.5 641.023 1449.51 642.352 1454.57 642.352C1459.59 642.352 1462.56 641.023 1462.54 638.68C1462.56 636.355 1459.59 635.047 1454.57 635.047C1449.51 635.047 1446.5 636.355 1446.52 638.68ZM1462.15 631.219V610.32H1465.86V618.875H1470.94V622.039H1465.86V631.219H1462.15Z" fill="white"/>
<path d="M860.378 734.656V741.75H864.409V744.188H860.378V751.188H857.378V734.656H860.378ZM839.534 749.156V736.719H852.034V739.125H842.472V746.75C847.987 746.719 851.097 746.562 854.628 745.844L854.909 748.25C851.159 749.016 847.816 749.156 841.753 749.156H839.534ZM841.909 757.156C841.909 753.734 845.534 751.734 851.316 751.719C857.034 751.734 860.597 753.734 860.597 757.156C860.597 760.609 857.034 762.609 851.316 762.594C845.534 762.609 841.909 760.609 841.909 757.156ZM844.847 757.156C844.831 759.094 847.269 760.234 851.316 760.219C855.284 760.234 857.737 759.094 857.753 757.156C857.737 755.219 855.284 754.109 851.316 754.125C847.269 754.109 844.831 755.219 844.847 757.156ZM875.578 739.688C875.578 743.281 878.25 746.734 882.578 748.094L881.047 750.406C877.828 749.344 875.391 747.141 874.125 744.328C872.859 747.359 870.375 749.766 867.047 750.938L865.516 748.656C869.875 747.141 872.562 743.484 872.578 739.688V738.906H866.297V736.5H881.734V738.906H875.578V739.688ZM869.453 755.375V752.969H888.422V762.656H885.453V755.375H869.453ZM885.453 751.562V734.656H888.422V751.562H885.453ZM915.247 734.656V749.062H912.309V734.656H915.247ZM892.153 746.562C896.528 745.109 899.2 741.438 899.216 737.562V735.406H902.247V737.562C902.231 741.312 904.919 744.719 909.216 746.062L907.747 748.375C904.481 747.312 902.028 745.109 900.763 742.266C899.497 745.328 896.997 747.766 893.653 748.906L892.153 746.562ZM896.872 752.75V750.406H915.278V757.406H899.841V760H916.216V762.375H896.966V755.156H912.341V752.75H896.872Z" fill="white"/>
<path d="M921.219 332.656V344.375H925.438V346.875H921.219V360.656H918.25V332.656H921.219ZM898.938 353.031C901.141 353.031 903.703 353.031 906.375 352.953V350.109C903.219 349.641 901.156 347.734 901.188 345.031C901.156 341.875 903.891 339.797 907.875 339.781C911.844 339.797 914.609 341.875 914.625 345.031C914.609 347.734 912.516 349.656 909.344 350.109V352.844C911.828 352.719 914.328 352.516 916.656 352.188L916.844 354.375C910.781 355.453 904.234 355.516 899.406 355.5L898.938 353.031ZM899.469 338.344V335.969H906.375V332.719H909.344V335.969H916.25V338.344H899.469ZM903.969 345.031C903.969 346.812 905.531 347.922 907.875 347.906C910.219 347.922 911.766 346.812 911.781 345.031C911.766 343.234 910.219 342.094 907.875 342.094C905.531 342.094 903.969 343.234 903.969 345.031ZM935.919 337.812C935.903 341.375 938.388 344.625 942.638 345.969L941.231 348.281C938.044 347.266 935.716 345.156 934.481 342.5C933.263 345.562 930.809 347.984 927.45 349.156L925.919 346.781C930.294 345.344 932.934 341.734 932.95 337.844V337.062H926.794V334.656H941.95V337.062H935.919V337.812ZM929.7 355.344C929.7 352.062 933.278 350.141 939.106 350.156C944.872 350.141 948.388 352.062 948.388 355.344C948.388 358.672 944.872 360.609 939.106 360.594C933.278 360.609 929.7 358.672 929.7 355.344ZM932.669 355.344C932.653 357.219 935.059 358.266 939.106 358.25C943.122 358.266 945.497 357.219 945.481 355.344C945.497 353.516 943.122 352.484 939.106 352.5C935.059 352.484 932.653 353.516 932.669 355.344ZM945.169 349.469V332.656H948.138V339.594H952.2V342.031H948.138V349.469H945.169ZM976.181 332.656V347.062H973.244V332.656H976.181ZM953.088 344.562C957.463 343.109 960.134 339.438 960.15 335.562V333.406H963.181V335.562C963.166 339.312 965.853 342.719 970.15 344.062L968.681 346.375C965.416 345.312 962.963 343.109 961.697 340.266C960.431 343.328 957.931 345.766 954.588 346.906L953.088 344.562ZM957.806 350.75V348.406H976.213V355.406H960.775V358H977.15V360.375H957.9V353.156H973.275V350.75H957.806ZM981.537 349.375C981.569 343.484 983.241 338.594 986.162 334.406H989.225C987.069 337.5 985.006 343.797 985.006 349.375C985.006 354.969 987.069 361.266 989.225 364.375H986.162C983.241 360.172 981.569 355.281 981.537 349.375ZM998.081 334.75C1000.64 334.766 1002.74 336.219 1003.97 338.75H1010.89V332.656H1013.83V360.719H1010.89V349.969H1004.18C1002.97 352.781 1000.78 354.422 998.081 354.406C993.909 354.422 990.956 350.609 990.988 344.562C990.956 338.578 993.909 334.766 998.081 334.75ZM993.8 344.562C993.816 349.016 995.55 351.75 998.081 351.75C1000.61 351.75 1002.35 349.016 1002.36 344.562C1002.35 340.172 1000.61 337.422 998.081 337.406C995.55 337.422 993.816 340.172 993.8 344.562ZM1004.82 341.188C1005.03 342.219 1005.18 343.344 1005.18 344.562C1005.18 345.625 1005.08 346.609 1004.89 347.531H1010.89V341.188H1004.82ZM1025.03 349.375C1025 355.281 1023.33 360.172 1020.41 364.375H1017.34C1019.5 361.266 1021.56 354.969 1021.56 349.375C1021.56 343.797 1019.5 337.5 1017.34 334.406H1020.41C1023.33 338.594 1025 343.484 1025.03 349.375Z" fill="white"/>
<path d="M1150.22 463.656V475.375H1154.44V477.875H1150.22V491.656H1147.25V463.656H1150.22ZM1127.94 484.031C1130.14 484.031 1132.7 484.031 1135.38 483.953V481.109C1132.22 480.641 1130.16 478.734 1130.19 476.031C1130.16 472.875 1132.89 470.797 1136.88 470.781C1140.84 470.797 1143.61 472.875 1143.62 476.031C1143.61 478.734 1141.52 480.656 1138.34 481.109V483.844C1140.83 483.719 1143.33 483.516 1145.66 483.188L1145.84 485.375C1139.78 486.453 1133.23 486.516 1128.41 486.5L1127.94 484.031ZM1128.47 469.344V466.969H1135.38V463.719H1138.34V466.969H1145.25V469.344H1128.47ZM1132.97 476.031C1132.97 477.812 1134.53 478.922 1136.88 478.906C1139.22 478.922 1140.77 477.812 1140.78 476.031C1140.77 474.234 1139.22 473.094 1136.88 473.094C1134.53 473.094 1132.97 474.234 1132.97 476.031ZM1164.92 468.812C1164.9 472.375 1167.39 475.625 1171.64 476.969L1170.23 479.281C1167.04 478.266 1164.72 476.156 1163.48 473.5C1162.26 476.562 1159.81 478.984 1156.45 480.156L1154.92 477.781C1159.29 476.344 1161.93 472.734 1161.95 468.844V468.062H1155.79V465.656H1170.95V468.062H1164.92V468.812ZM1158.7 486.344C1158.7 483.062 1162.28 481.141 1168.11 481.156C1173.87 481.141 1177.39 483.062 1177.39 486.344C1177.39 489.672 1173.87 491.609 1168.11 491.594C1162.28 491.609 1158.7 489.672 1158.7 486.344ZM1161.67 486.344C1161.65 488.219 1164.06 489.266 1168.11 489.25C1172.12 489.266 1174.5 488.219 1174.48 486.344C1174.5 484.516 1172.12 483.484 1168.11 483.5C1164.06 483.484 1161.65 484.516 1161.67 486.344ZM1174.17 480.469V463.656H1177.14V470.594H1181.2V473.031H1177.14V480.469H1174.17ZM1205.18 463.656V478.062H1202.24V463.656H1205.18ZM1182.09 475.562C1186.46 474.109 1189.13 470.438 1189.15 466.562V464.406H1192.18V466.562C1192.17 470.312 1194.85 473.719 1199.15 475.062L1197.68 477.375C1194.42 476.312 1191.96 474.109 1190.7 471.266C1189.43 474.328 1186.93 476.766 1183.59 477.906L1182.09 475.562ZM1186.81 481.75V479.406H1205.21V486.406H1189.78V489H1206.15V491.375H1186.9V484.156H1202.28V481.75H1186.81ZM1210.54 480.375C1210.57 474.484 1212.24 469.594 1215.16 465.406H1218.22C1216.07 468.5 1214.01 474.797 1214.01 480.375C1214.01 485.969 1216.07 492.266 1218.22 495.375H1215.16C1212.24 491.172 1210.57 486.281 1210.54 480.375ZM1241.49 463.688V469.906H1245.58V472.375H1241.49V479.469H1238.52V463.688H1241.49ZM1220.77 477.562V465.062H1223.74V475.094C1227.53 475.062 1231.49 474.734 1235.8 473.875L1236.18 476.312C1231.46 477.266 1227.18 477.547 1223.05 477.562H1220.77ZM1223.55 491.281V480.938H1241.49V491.281H1223.55ZM1226.46 488.906H1238.61V483.25H1226.46V488.906ZM1254.03 480.375C1254 486.281 1252.33 491.172 1249.41 495.375H1246.34C1248.5 492.266 1250.56 485.969 1250.56 480.375C1250.56 474.797 1248.5 468.5 1246.34 465.406H1249.41C1252.33 469.594 1254 474.484 1254.03 480.375Z" fill="white"/>
<path d="M771.941 782.781V784.344C771.909 786.219 771.909 789 771.222 792.625L768.284 792.344C768.894 789.25 768.987 786.984 769.019 785.219H757.816V782.781H771.941ZM756.128 795.031C757.847 795.031 759.8 795.016 761.847 794.969V789.062H764.784V794.875C767.784 794.75 770.878 794.531 773.691 794.125L773.878 796.281C768.034 797.312 761.347 797.422 756.409 797.438L756.128 795.031ZM760.378 808.062V799.781H763.347V805.656H779.409V808.062H760.378ZM775.472 801.688V780.656H778.503V789.562H782.347V792.062H778.503V801.688H775.472ZM806.453 780.656V808.719H803.484V780.656H806.453ZM784.766 785.594V783.188H797.891V793.406H787.828V799.531C792.375 799.516 796.328 799.297 801.016 798.531L801.297 800.969C796.344 801.797 792.125 801.984 787.172 802H784.797V791.031H794.859V785.594H784.766ZM833.247 780.656V795.062H830.309V780.656H833.247ZM810.153 792.562C814.528 791.109 817.2 787.438 817.216 783.562V781.406H820.247V783.562C820.231 787.312 822.919 790.719 827.216 792.062L825.747 794.375C822.481 793.312 820.028 791.109 818.763 788.266C817.497 791.328 814.997 793.766 811.653 794.906L810.153 792.562ZM814.872 798.75V796.406H833.278V803.406H817.841V806H834.216V808.375H814.966V801.156H830.341V798.75H814.872Z" fill="white"/>
<path d="M1064.07 710.938C1068.84 710.957 1072.29 714.98 1072.86 721.445H1080.09V708.32H1083.76V743.398H1080.09V724.453H1072.9C1072.49 731.289 1068.95 735.527 1064.07 735.508C1058.86 735.527 1055.16 730.762 1055.2 723.203C1055.16 715.723 1058.86 710.957 1064.07 710.938ZM1058.72 723.203C1058.74 728.77 1060.91 732.188 1064.07 732.188C1067.23 732.188 1069.4 728.77 1069.42 723.203C1069.4 717.715 1067.23 714.277 1064.07 714.258C1060.91 714.277 1058.74 717.715 1058.72 723.203ZM1117.13 708.359V734.102H1113.46V708.359H1117.13ZM1089.91 713.75V710.781H1106V721.211H1093.62V726.25C1100.04 726.211 1104.44 726.016 1109.63 725.078L1110.02 728.125C1104.52 729.082 1099.87 729.277 1092.91 729.297H1089.98V718.398H1102.33V713.75H1089.91ZM1094.01 742.578V732.07H1097.72V739.57H1118.11V742.578H1094.01ZM1150.7 708.32V743.398H1146.99V708.32H1150.7ZM1122.93 723.203C1122.93 715.723 1126.7 710.957 1131.99 710.938C1137.19 710.957 1141.02 715.723 1141.02 723.203C1141.02 730.762 1137.19 735.527 1131.99 735.508C1126.7 735.527 1122.93 730.762 1122.93 723.203ZM1126.52 723.203C1126.5 728.77 1128.73 732.188 1131.99 732.188C1135.2 732.188 1137.42 728.77 1137.42 723.203C1137.42 717.715 1135.2 714.277 1131.99 714.258C1128.73 714.277 1126.5 717.715 1126.52 723.203ZM1167.48 718.633C1167.46 724.16 1171.11 730.332 1176.42 732.852L1174.31 735.742C1170.39 733.867 1167.26 729.922 1165.68 725.352C1164.08 730.332 1160.8 734.648 1156.81 736.641L1154.62 733.711C1159.94 731.152 1163.79 724.551 1163.8 718.633V714.922H1155.91V711.836H1175.09V714.922H1167.48V718.633ZM1178.84 743.32V708.32H1182.55V722.188H1188.18V725.312H1182.55V743.32H1178.84ZM1220.89 736.016V739.141H1188.86V736.016H1197.61V729.844H1192.77V718.711H1213.31V713.828H1192.69V710.781H1216.98V721.719H1196.44V726.797H1217.8V729.844H1212.49V736.016H1220.89ZM1201.2 736.016H1208.86V729.844H1201.2V736.016ZM1251.41 708.32V726.328H1247.74V708.32H1251.41ZM1222.55 723.203C1228.02 721.387 1231.36 716.797 1231.38 711.953V709.258H1235.16V711.953C1235.14 716.641 1238.5 720.898 1243.88 722.578L1242.04 725.469C1237.96 724.141 1234.89 721.387 1233.31 717.832C1231.73 721.66 1228.6 724.707 1224.42 726.133L1222.55 723.203ZM1228.45 730.938V728.008H1251.45V736.758H1232.16V740H1252.62V742.969H1228.56V733.945H1247.78V730.938H1228.45Z" fill="white"/>
<path d="M972.612 639V616.375H986.8V619.344H976.05V626.188H986.05V629.125H976.05V636.031H986.925V639H972.612ZM998.562 615.312L991.281 642.406H988.312L995.594 615.312H998.562ZM1002.61 616.375L1008.89 634.781H1009.14L1015.42 616.375H1019.14L1010.98 639H1007.01L998.887 616.375H1002.61Z" fill="white"/>
<path d="M1614.63 753.32V788.398H1610.92V753.32H1614.63ZM1586.86 768.203C1586.86 760.723 1590.63 755.957 1595.92 755.938C1601.12 755.957 1604.95 760.723 1604.95 768.203C1604.95 775.762 1601.12 780.527 1595.92 780.508C1590.63 780.527 1586.86 775.762 1586.86 768.203ZM1590.45 768.203C1590.43 773.77 1592.66 777.188 1595.92 777.188C1599.12 777.188 1601.35 773.77 1601.35 768.203C1601.35 762.715 1599.12 759.277 1595.92 759.258C1592.66 759.277 1590.43 762.715 1590.45 768.203ZM1628.59 755.938C1633.83 755.957 1637.56 760.723 1637.58 768.203C1637.56 775.762 1633.83 780.527 1628.59 780.508C1623.36 780.527 1619.63 775.762 1619.65 768.203C1619.63 760.723 1623.36 755.957 1628.59 755.938ZM1623.2 768.203C1623.18 773.77 1625.41 777.188 1628.59 777.188C1631.84 777.188 1634.02 773.77 1634.02 768.203C1634.02 762.715 1631.84 759.277 1628.59 759.258C1625.41 759.277 1623.18 762.715 1623.2 768.203ZM1642.77 788.32V753.32H1646.48V761.875H1651.91V765.039H1646.48V772.305H1651.91V775.352H1646.48V788.32H1642.77ZM1681.89 753.32V788.32H1678.14V753.32H1681.89ZM1653.14 778.945C1662.44 774.512 1666.99 768.203 1667.71 760.039H1654.82V757.07H1671.46C1671.46 767.324 1667.11 776.191 1655.09 781.953L1653.14 778.945ZM1702.57 775.117C1709.78 775.117 1714.17 777.539 1714.17 781.68C1714.17 785.879 1709.78 788.301 1702.57 788.32C1695.29 788.301 1690.81 785.879 1690.81 781.68C1690.81 777.539 1695.29 775.117 1702.57 775.117ZM1687.73 771.758V755.508H1691.36V760.547H1700.54V755.508H1704.21V771.758H1687.73ZM1691.36 768.789H1700.54V763.477H1691.36V768.789ZM1694.52 781.68C1694.5 784.023 1697.51 785.352 1702.57 785.352C1707.59 785.352 1710.56 784.023 1710.54 781.68C1710.56 779.355 1707.59 778.047 1702.57 778.047C1697.51 778.047 1694.5 779.355 1694.52 781.68ZM1710.15 774.219V753.32H1713.86V761.875H1718.94V765.039H1713.86V774.219H1710.15Z" fill="white"/>
<defs>
<filter id="filter0_f_2686_3473" x="1115" y="903" width="80" height="30" filterUnits="userSpaceOnUse" color-interpolation-filters="sRGB">
<feFlood flood-opacity="0" result="BackgroundImageFix"/>
<feBlend mode="normal" in="SourceGraphic" in2="BackgroundImageFix" result="shape"/>
<feGaussianBlur stdDeviation="2.5" result="effect1_foregroundBlur_2686_3473"/>
</filter>
<filter id="filter1_f_2686_3473" x="675" y="204" width="80" height="30" filterUnits="userSpaceOnUse" color-interpolation-filters="sRGB">
<feFlood flood-opacity="0" result="BackgroundImageFix"/>
<feBlend mode="normal" in="SourceGraphic" in2="BackgroundImageFix" result="shape"/>
<feGaussianBlur stdDeviation="2.5" result="effect1_foregroundBlur_2686_3473"/>
</filter>
<linearGradient id="paint0_linear_2686_3473" x1="1186.7" y1="785.156" x2="1124.25" y2="892.663" gradientUnits="userSpaceOnUse">
<stop offset="0.144416" stop-color="#C41818"/>
<stop offset="1" stop-color="#072B24"/>
</linearGradient>
<linearGradient id="paint1_linear_2686_3473" x1="746.703" y1="86.1559" x2="684.25" y2="193.663" gradientUnits="userSpaceOnUse">
<stop offset="0.144416" stop-color="#C41818"/>
<stop offset="1" stop-color="#072B24"/>
</linearGradient>
</defs>
</svg>
