<svg width="1860" height="1310" viewBox="0 0 1860 1310" fill="none" xmlns="http://www.w3.org/2000/svg">
<path d="M1725.2 902.257L1625.8 958.957M1658.54 884.137L1756.77 940.252M1642.17 893.489L1740.4 949.604M1625.8 902.842L1724.03 958.957M1609.42 912.194L1707.65 968.309M1593.05 921.547L1691.28 977.662M1625.8 958.957L1674.91 987.014M1625.8 958.957L1593.05 977.842" stroke="white" stroke-width="3" stroke-linecap="round" stroke-linejoin="round"/>
<path d="M512.522 5L5 294.928L758.097 725.144L332.434 968.309L921.814 1305L1855 771.906L512.522 5Z" stroke="white" stroke-width="10" stroke-linejoin="round"/>
<path d="M1805.88 912.194L1707.65 856.079L1511.19 968.309L1609.42 1024.42L1805.88 912.194Z" stroke="white" stroke-width="4" stroke-linejoin="round"/>
<path d="M1134.65 322.985L954.558 425.863M1232.88 379.1L1052.79 481.978" stroke="white" stroke-width="4" stroke-linecap="round" stroke-linejoin="round"/>
<path d="M1152.19 369.163L1052.79 425.863M1085.53 351.043L1183.76 407.158M1069.16 360.395L1167.39 416.511M1052.79 369.748L1151.02 425.863M1036.42 379.101L1134.65 435.216M1020.04 388.453L1118.27 444.568M1052.79 425.863L1101.9 453.921M1052.79 425.863L1020.36 444.568" stroke="white" stroke-width="3" stroke-linecap="round" stroke-linejoin="round"/>
<path d="M1069.16 472.626L970.929 416.511L954.558 425.863L1052.79 481.978L1069.16 472.626Z" fill="white" fill-opacity="0.5"/>
<path d="M889.071 650.324L643.496 510.036L627.124 519.389L872.699 659.676L889.071 650.324Z" fill="white" fill-opacity="0.5"/>
<path d="M921.814 631.619L758.097 725.144L659.867 781.259L790.841 856.08L1052.79 706.439L921.814 631.619Z" stroke="white" stroke-width="4" stroke-linejoin="round"/>
<path d="M1151.02 949.604L1347.48 1061.83L1642.17 893.489L1445.71 781.259L1151.02 949.604Z" stroke="white" stroke-width="4" stroke-linejoin="round"/>
<path d="M1511.19 743.848L1707.65 856.079L1855 771.906L1658.54 659.676L1511.19 743.848Z" stroke="white" stroke-width="4" stroke-linejoin="round"/>
<path d="M1052.79 481.978L1183.76 556.798L1331.11 472.626L1200.13 397.806L1052.79 481.978Z" stroke="white" stroke-width="4" stroke-linejoin="round"/>
<path d="M823.584 351.043L954.557 425.863L1101.9 341.69L970.929 266.87L823.584 351.043Z" stroke="white" stroke-width="4" stroke-linejoin="round"/>
<path d="M1183.76 556.799L1511.19 743.849L1658.54 659.676L1331.11 472.626L1183.76 556.799Z" stroke="white" stroke-width="4" stroke-linejoin="round"/>
<path d="M365.177 89.1727L823.584 351.043L970.929 266.871L512.522 5L365.177 89.1727Z" stroke="white" stroke-width="4" stroke-linejoin="round"/>
<path d="M365.177 89.1729L5 294.928L512.522 584.856L790.841 425.863L594.381 313.633L676.239 266.871L365.177 89.1729Z" stroke="white" stroke-width="4" stroke-linejoin="round"/>
<mask id="mask0_2710_3987" style="mask-type:alpha" maskUnits="userSpaceOnUse" x="952" y="667" width="496" height="285">
<path d="M954.558 837.375L1151.02 949.605L1445.71 781.26L1249.25 669.029L954.558 837.375Z" stroke="white" stroke-width="4" stroke-linejoin="round"/>
</mask>
<g mask="url(#mask0_2710_3987)">
<path d="M1299.5 714L1323 696.5H1327L1299.5 652L1235.5 660.5L914.5 835.5L1142.5 998L1472 799L1453.5 761.5L1434.5 764L1419 774V786.5L1390.5 799L1148.5 925.5L1039 835.5L1254.5 708.5L1299.5 714Z" fill="white"/>
</g>
<path d="M921.814 631.618L987.301 669.028L1069.16 622.266L1003.67 584.855L921.814 631.618Z" stroke="white" stroke-width="4" stroke-linejoin="round"/>
<path d="M332.434 968.309L659.867 781.259L1052.79 1005.72L725.354 1192.77L332.434 968.309Z" stroke="white" stroke-width="4" stroke-linejoin="round"/>
<path d="M921.815 1305L725.354 1192.77L1052.79 1005.72L1249.25 1117.95L921.815 1305Z" stroke="white" stroke-width="4" stroke-linejoin="round"/>
<g filter="url(#filter0_f_2710_3987)">
<ellipse cx="404" cy="407" rx="35" ry="10" fill="black" fill-opacity="0.25"/>
</g>
<path d="M459 314.28C459 344.81 448.878 351.526 404 407C359.338 351.998 349 344.81 349 314.28C349 283.75 373.624 259 404 259C434.376 259 459 283.75 459 314.28Z" fill="url(#paint0_linear_2710_3987)"/>
<rect x="366.068" y="276.465" width="75.8621" height="75.8974" rx="37.931" fill="white"/>
<path d="M392.978 325.229L404.149 314.96C405.252 313.9 406.104 313.026 406.706 312.339C407.322 311.637 407.795 310.942 408.124 310.255C408.453 309.553 408.618 308.801 408.618 307.999C408.618 307.097 408.403 306.309 407.974 305.636C407.558 304.948 406.971 304.425 406.212 304.067C405.467 303.709 404.622 303.53 403.677 303.53C402.201 303.516 401.027 303.946 400.153 304.819C399.28 305.679 398.85 306.853 398.864 308.343H392.72C392.72 306.352 393.178 304.604 394.095 303.101C395.026 301.582 396.322 300.415 397.983 299.599C399.659 298.782 401.586 298.374 403.763 298.374C405.954 298.374 407.888 298.768 409.563 299.556C411.239 300.329 412.535 301.41 413.452 302.8C414.383 304.189 414.849 305.779 414.849 307.569C414.849 308.801 414.612 309.983 414.14 311.114C413.667 312.231 412.843 313.478 411.669 314.853C410.509 316.228 408.862 317.882 406.728 319.815L402.001 324.413V324.585H415.278V329.913H393.021L392.978 325.229Z" fill="#191F28"/>
<g filter="url(#filter1_f_2710_3987)">
<ellipse cx="863" cy="746" rx="35" ry="10" fill="black" fill-opacity="0.25"/>
</g>
<path d="M918 653.28C918 683.81 907.878 690.526 863 746C818.338 690.998 808 683.81 808 653.28C808 622.75 832.624 598 863 598C893.376 598 918 622.75 918 653.28Z" fill="url(#paint1_linear_2710_3987)"/>
<rect x="825.068" y="615.465" width="75.8621" height="75.8974" rx="37.931" fill="white"/>
<path d="M863.085 669.343C860.951 669.343 859.024 668.949 857.306 668.161C855.601 667.373 854.255 666.285 853.267 664.896C852.278 663.492 851.77 661.909 851.741 660.147H858.015C858.058 660.935 858.308 661.644 858.767 662.274C859.239 662.89 859.848 663.37 860.593 663.714C861.352 664.058 862.183 664.229 863.085 664.229C864.145 664.229 865.09 664 865.921 663.542C866.766 663.069 867.418 662.418 867.876 661.587C868.349 660.756 868.585 659.804 868.585 658.729C868.585 657.641 868.349 656.674 867.876 655.829C867.403 654.97 866.737 654.304 865.878 653.831C865.033 653.344 864.073 653.101 862.999 653.101C860.664 653.101 859.032 653.974 858.101 655.722H852.257L853.933 637.804H873.097V643.089H859.261L858.401 650.952H858.659C859.232 650.164 860.084 649.534 861.216 649.062C862.347 648.575 863.586 648.331 864.933 648.331C866.809 648.331 868.499 648.768 870.003 649.642C871.521 650.515 872.71 651.733 873.569 653.294C874.429 654.855 874.858 656.61 874.858 658.558C874.858 660.634 874.364 662.496 873.376 664.144C872.388 665.776 870.998 667.051 869.208 667.968C867.432 668.884 865.391 669.343 863.085 669.343Z" fill="#191F28"/>
<g filter="url(#filter2_f_2710_3987)">
<ellipse cx="1162" cy="847" rx="35" ry="10" fill="black" fill-opacity="0.25"/>
</g>
<path d="M1217 754.28C1217 784.81 1206.88 791.526 1162 847C1117.34 791.998 1107 784.81 1107 754.28C1107 723.75 1131.62 699 1162 699C1192.38 699 1217 723.75 1217 754.28Z" fill="url(#paint2_linear_2710_3987)"/>
<rect x="1124.07" y="716.465" width="75.8621" height="75.8974" rx="37.931" fill="white"/>
<path d="M1162.39 770.343C1160.09 770.343 1158 769.849 1156.11 768.86C1154.24 767.858 1152.71 766.225 1151.54 763.962C1150.38 761.699 1149.8 758.763 1149.8 755.153C1149.8 751.701 1150.31 748.715 1151.34 746.194C1152.39 743.659 1153.87 741.726 1155.79 740.394C1157.72 739.047 1159.99 738.374 1162.6 738.374C1164.63 738.374 1166.46 738.768 1168.08 739.556C1169.7 740.343 1170.99 741.432 1171.97 742.821C1172.96 744.196 1173.56 745.736 1173.77 747.44H1167.41C1167.16 746.352 1166.6 745.493 1165.74 744.862C1164.89 744.232 1163.85 743.917 1162.6 743.917C1160.52 743.917 1158.93 744.798 1157.81 746.56C1156.71 748.307 1156.14 750.735 1156.11 753.843H1156.41C1157.13 752.468 1158.2 751.394 1159.61 750.62C1161.05 749.847 1162.63 749.46 1164.36 749.46C1166.21 749.46 1167.88 749.89 1169.37 750.749C1170.86 751.608 1172.02 752.804 1172.85 754.337C1173.69 755.869 1174.12 757.595 1174.12 759.515C1174.12 761.591 1173.62 763.453 1172.63 765.101C1171.66 766.748 1170.28 768.037 1168.51 768.968C1166.73 769.884 1164.69 770.343 1162.39 770.343ZM1156.76 759.687C1156.77 760.703 1157.01 761.634 1157.49 762.479C1157.97 763.325 1158.64 763.998 1159.49 764.499C1160.33 764.986 1161.27 765.229 1162.3 765.229C1163.35 765.229 1164.29 764.993 1165.14 764.521C1165.98 764.034 1166.64 763.368 1167.11 762.522C1167.6 761.663 1167.84 760.718 1167.84 759.687C1167.84 758.655 1167.61 757.724 1167.13 756.894C1166.66 756.049 1166.01 755.382 1165.18 754.896C1164.35 754.394 1163.42 754.144 1162.39 754.144C1161.34 754.144 1160.39 754.394 1159.53 754.896C1158.68 755.397 1158.01 756.07 1157.51 756.915C1157.02 757.76 1156.77 758.684 1156.76 759.687Z" fill="#191F28"/>
<g filter="url(#filter3_f_2710_3987)">
<ellipse cx="1351" cy="959" rx="35" ry="10" fill="black" fill-opacity="0.25"/>
</g>
<path d="M1406 866.28C1406 896.81 1395.88 903.526 1351 959C1306.34 903.998 1296 896.81 1296 866.28C1296 835.75 1320.62 811 1351 811C1381.38 811 1406 835.75 1406 866.28Z" fill="url(#paint3_linear_2710_3987)"/>
<rect x="1313.07" y="828.465" width="75.8621" height="75.8974" rx="37.931" fill="white"/>
<path d="M1342 881.913L1355.1 856.304V856.089H1339.85V850.804H1361.81V856.175L1348.7 881.913H1342Z" fill="#191F28"/>
<g filter="url(#filter4_f_2710_3987)">
<ellipse cx="665" cy="1089" rx="35" ry="10" fill="black" fill-opacity="0.25"/>
</g>
<path d="M720 996.28C720 1026.81 709.878 1033.53 665 1089C620.338 1034 610 1026.81 610 996.28C610 965.75 634.624 941 665 941C695.376 941 720 965.75 720 996.28Z" fill="url(#paint4_linear_2710_3987)"/>
<rect x="627.068" y="958.465" width="75.8621" height="75.8974" rx="37.931" fill="white"/>
<path d="M664.978 1012.34C657.866 1012.34 652.774 1008.6 652.774 1003.53C652.774 999.624 655.782 996.444 659.649 995.843V995.628C656.276 994.983 653.956 992.169 653.978 988.753C653.956 983.919 658.618 980.374 664.978 980.374C671.337 980.374 675.999 983.919 676.021 988.753C675.999 992.169 673.614 994.983 670.349 995.628V995.843C674.13 996.444 677.181 999.624 677.181 1003.53C677.181 1008.6 672.067 1012.34 664.978 1012.34ZM659.521 1002.89C659.499 1005.55 661.69 1007.42 664.978 1007.4C668.265 1007.42 670.456 1005.55 670.435 1002.89C670.456 1000.2 668.136 998.228 664.978 998.206C661.819 998.228 659.499 1000.18 659.521 1002.89ZM660.294 989.397C660.272 991.89 662.228 993.63 664.978 993.651C667.706 993.63 669.683 991.89 669.704 989.397C669.683 986.97 667.749 985.272 664.978 985.272C662.185 985.272 660.272 986.97 660.294 989.397Z" fill="#191F28"/>
<g filter="url(#filter5_f_2710_3987)">
<ellipse cx="884" cy="1222" rx="35" ry="10" fill="black" fill-opacity="0.25"/>
</g>
<path d="M939 1129.28C939 1159.81 928.878 1166.53 884 1222C839.338 1167 829 1159.81 829 1129.28C829 1098.75 853.624 1074 884 1074C914.376 1074 939 1098.75 939 1129.28Z" fill="url(#paint5_linear_2710_3987)"/>
<rect x="846.068" y="1091.46" width="75.8621" height="75.8974" rx="37.931" fill="white"/>
<path d="M883.655 1113.37C890.101 1113.4 896.202 1117.24 896.202 1128.54C896.224 1139.11 891.218 1145.34 883.397 1145.34C877.146 1145.34 872.849 1141.41 872.226 1136.15H878.585C879.122 1138.45 880.905 1139.8 883.397 1139.8C887.63 1139.8 889.864 1136 889.886 1129.79H889.628C888.167 1132.54 885.095 1134.17 881.636 1134.17C876.05 1134.17 871.925 1129.96 871.882 1124.16C871.882 1117.91 876.63 1113.35 883.655 1113.37ZM878.198 1123.99C878.198 1127.06 880.454 1129.44 883.655 1129.44C886.813 1129.44 889.241 1126.93 889.241 1123.94C889.198 1120.98 886.878 1118.47 883.698 1118.44C880.519 1118.47 878.155 1120.89 878.198 1123.99Z" fill="#191F28"/>
<g filter="url(#filter6_f_2710_3987)">
<ellipse cx="745" cy="219" rx="35" ry="10" fill="black" fill-opacity="0.25"/>
</g>
<path d="M800 126.28C800 156.81 789.878 163.526 745 219C700.338 163.998 690 156.81 690 126.28C690 95.7495 714.624 71 745 71C775.376 71 800 95.7495 800 126.28Z" fill="url(#paint6_linear_2710_3987)"/>
<rect x="707.068" y="88.4648" width="75.8621" height="75.8974" rx="37.931" fill="white"/>
<path d="M750.542 141.913H744.054V116.948H743.882L736.749 121.417V115.702L744.44 110.804H750.542V141.913Z" fill="#191F28"/>
<g filter="url(#filter7_f_2710_3987)">
<ellipse cx="1428" cy="608" rx="35" ry="10" fill="black" fill-opacity="0.25"/>
</g>
<path d="M1483 515.28C1483 545.81 1472.88 552.526 1428 608C1383.34 552.998 1373 545.81 1373 515.28C1373 484.75 1397.62 460 1428 460C1458.38 460 1483 484.75 1483 515.28Z" fill="url(#paint7_linear_2710_3987)"/>
<rect x="1390.07" y="477.465" width="75.8621" height="75.8974" rx="37.931" fill="white"/>
<path d="M1427.91 531.343C1425.66 531.343 1423.64 530.956 1421.85 530.183C1420.08 529.409 1418.67 528.328 1417.64 526.938C1416.63 525.535 1416.1 523.938 1416.05 522.147H1422.58C1422.61 522.907 1422.86 523.58 1423.34 524.167C1423.81 524.74 1424.45 525.191 1425.25 525.521C1426.05 525.85 1426.95 526.015 1427.96 526.015C1428.97 526.015 1429.88 525.836 1430.68 525.478C1431.5 525.105 1432.13 524.604 1432.58 523.974C1433.02 523.329 1433.24 522.591 1433.24 521.761C1433.24 520.916 1433 520.171 1432.53 519.526C1432.06 518.868 1431.38 518.352 1430.49 517.979C1429.6 517.607 1428.56 517.421 1427.35 517.421H1424.48V512.651H1427.35C1428.37 512.651 1429.27 512.479 1430.06 512.136C1430.85 511.792 1431.46 511.305 1431.89 510.675C1432.33 510.045 1432.55 509.328 1432.55 508.526C1432.55 507.739 1432.37 507.044 1432 506.442C1431.62 505.841 1431.09 505.375 1430.41 505.046C1429.73 504.702 1428.94 504.53 1428.04 504.53C1427.13 504.53 1426.28 504.695 1425.51 505.024C1424.73 505.34 1424.11 505.791 1423.64 506.378C1423.17 506.965 1422.91 507.653 1422.89 508.44H1416.7C1416.73 506.693 1417.24 505.132 1418.22 503.757C1419.23 502.368 1420.58 501.293 1422.28 500.534C1423.99 499.761 1425.89 499.374 1428 499.374C1430.12 499.374 1432 499.761 1433.63 500.534C1435.28 501.308 1436.54 502.36 1437.43 503.692C1438.33 505.024 1438.78 506.507 1438.78 508.14C1438.78 509.271 1438.54 510.302 1438.05 511.233C1437.57 512.15 1436.87 512.909 1435.97 513.511C1435.08 514.098 1434.06 514.499 1432.9 514.714V514.972C1435.16 515.244 1436.91 516.024 1438.14 517.313C1439.37 518.603 1439.97 520.228 1439.94 522.19C1439.96 523.938 1439.45 525.513 1438.42 526.917C1437.4 528.306 1435.98 529.395 1434.14 530.183C1432.31 530.956 1430.23 531.343 1427.91 531.343Z" fill="#191F28"/>
<g filter="url(#filter8_f_2710_3987)">
<ellipse cx="1693" cy="762" rx="35" ry="10" fill="black" fill-opacity="0.25"/>
</g>
<path d="M1748 669.28C1748 699.81 1737.88 706.526 1693 762C1648.34 706.998 1638 699.81 1638 669.28C1638 638.75 1662.62 614 1693 614C1723.38 614 1748 638.75 1748 669.28Z" fill="url(#paint8_linear_2710_3987)"/>
<rect x="1655.07" y="631.465" width="75.8621" height="75.8974" rx="37.931" fill="white"/>
<path d="M1680.47 674.3L1693.62 653.804H1701.74V674.214H1705.7V679.413H1701.74V684.913H1695.6V679.413H1680.47V674.3ZM1695.68 674.214V660.894H1695.38L1687 673.956V674.214H1695.68Z" fill="#191F28"/>
<path d="M660.207 26.5859V29.5938H628.293V26.5859H642.395V22.7578H632.277V10.7266H656.301V13.6953H635.988V19.7109H656.652V22.7578H646.105V26.5859H660.207ZM631.848 35.6875V32.6797H656.34V44.5156H652.668V35.6875H631.848ZM690.223 25.4531V28.4219H679.637V36.9766H693.895V40.0234H661.863V36.9766H675.965V28.4219H665.848V12.0156H689.91V15.0234H669.559V25.4531H690.223ZM723.871 12.6797V16.4297C723.832 20.8242 723.832 25.4336 722.582 32.1328L718.949 31.7422C720.18 25.4141 720.18 20.7266 720.16 16.4297V15.6875H698.715V12.6797H723.871ZM695.434 39.5938V36.5078H702.973V25.1797H706.684V36.5078H711.723V25.1797H715.355V36.5078H727.348V39.5938H695.434ZM760.918 26V29.0078H752.676V33.0703H757.012V44.3203H753.262V36H732.559V33.0703H737.168V29.0078H729.004V26H760.918ZM732.441 16.8594C732.422 12.6211 737.285 10.082 744.941 10.1016C752.578 10.082 757.422 12.6211 757.441 16.8594C757.422 21.0781 752.578 23.6367 744.941 23.6172C737.285 23.6367 732.422 21.0781 732.441 16.8594ZM736.27 16.8594C736.25 19.3008 739.551 20.7266 744.941 20.7266C750.293 20.7266 753.633 19.3008 753.613 16.8594C753.633 14.4375 750.293 13.0117 744.941 13.0312C739.551 13.0117 736.25 14.4375 736.27 16.8594ZM740.879 33.0703H749.043V29.0078H740.879V33.0703ZM773.043 20.0625C773.043 25.5703 775.602 31.1758 780.426 33.7734L778.355 36.5078C774.957 34.7109 772.613 31.3711 771.344 27.4062C770.094 31.6445 767.75 35.2969 764.371 37.3281L762.184 34.5156C767.027 31.7031 769.527 25.707 769.566 20.0625V18.6562H763.238V15.6094H769.566V10.5703H773.043V15.6094H779.254V18.6562H773.043V20.0625ZM776.949 26.0391V22.9531H781.988V10.0625H785.504V42.5625H781.988V26.0391H776.949ZM789.059 44.3203V9.32031H792.613V44.3203H789.059ZM825.324 9.32031V30.5312H821.613V22.9141H816.145V19.8281H821.613V9.32031H825.324ZM796.184 15.7656V12.7969H804.621V9.00781H808.293V12.7969H816.691V15.7656H796.184ZM798.215 23.6172C798.215 19.9453 801.652 17.3672 806.457 17.3672C811.262 17.3672 814.66 19.9453 814.66 23.6172C814.66 27.3867 811.262 29.8867 806.457 29.9062C801.652 29.8867 798.215 27.3867 798.215 23.6172ZM801.77 23.6172C801.77 25.7461 803.664 27.0742 806.457 27.0938C809.211 27.0742 811.105 25.7461 811.105 23.6172C811.105 21.5664 809.211 20.1992 806.457 20.2188C803.664 20.1992 801.77 21.5664 801.77 23.6172ZM802.238 43.8906V32.25H825.324V43.8906H802.238ZM805.91 40.8828H821.691V35.1797H805.91V40.8828ZM849.207 11.9766V13.9297C849.168 16.2734 849.168 19.75 848.309 24.2812L844.637 23.9297C845.398 20.0625 845.516 17.2305 845.555 15.0234H831.551V11.9766H849.207ZM829.441 27.2891C831.59 27.2891 834.031 27.2695 836.59 27.2109V19.8281H840.262V27.0938C844.012 26.9375 847.879 26.6641 851.395 26.1562L851.629 28.8516C844.324 30.1406 835.965 30.2773 829.793 30.2969L829.441 27.2891ZM834.754 43.5781V33.2266H838.465V40.5703H858.543V43.5781H834.754ZM853.621 35.6094V9.32031H857.41V20.4531H862.215V23.5781H857.41V35.6094H853.621Z" fill="white"/>
<path d="M364.121 198.453C367.129 198.453 369.668 199.527 371.309 201.344H379.902V197.32H383.574V215.133H379.902V211.461H371.387C369.746 213.336 367.168 214.449 364.121 214.43C358.828 214.449 354.922 211.188 354.941 206.422C354.922 201.715 358.828 198.453 364.121 198.453ZM358.496 206.422C358.477 209.43 360.84 211.441 364.121 211.461C367.305 211.441 369.668 209.43 369.668 206.422C369.668 203.492 367.305 201.48 364.121 201.5C360.84 201.48 358.477 203.492 358.496 206.422ZM360.684 219.742V216.852H383.574V225.562H364.473V228.922H384.824V231.891H360.762V222.789H379.902V219.742H360.684ZM372.93 204.273C373.125 204.957 373.223 205.66 373.223 206.422C373.223 207.164 373.125 207.867 372.949 208.531H379.902V204.273H372.93ZM415.504 197.359V206.07H420.621V209.195H415.504V218.18H411.793V197.359H415.504ZM389.41 202.164V199.195H405.348V209.078H393.16V213.453C399.234 213.434 403.531 213.258 408.629 212.398L409.02 215.367C403.609 216.344 398.98 216.539 392.262 216.539H389.449V206.266H401.715V202.164H389.41ZM393.082 231.891V219.82H415.504V231.891H393.082ZM396.715 228.883H411.91V222.711H396.715V228.883ZM450.559 197.32V215.328H446.887V197.32H450.559ZM421.691 212.203C427.16 210.387 430.5 205.797 430.52 200.953V198.258H434.309V200.953C434.289 205.641 437.648 209.898 443.02 211.578L441.184 214.469C437.102 213.141 434.035 210.387 432.453 206.832C430.871 210.66 427.746 213.707 423.566 215.133L421.691 212.203ZM427.59 219.938V217.008H450.598V225.758H431.301V229H451.77V231.969H427.707V222.945H446.926V219.938H427.59Z" fill="white"/>
<path d="M1364.97 364.859V367.867H1361.61V378.453C1363.1 378.336 1364.52 378.199 1365.91 378.023L1366.07 380.836C1359.33 381.891 1351.48 382.008 1345.87 382.008L1345.4 378.922C1346.71 378.922 1348.16 378.922 1349.66 378.902V367.867H1346.38V364.859H1364.97ZM1350.99 390.914C1350.97 386.832 1355.42 384.508 1362.82 384.508C1370.21 384.508 1374.64 386.832 1374.66 390.914C1374.64 394.918 1370.21 397.262 1362.82 397.242C1355.42 397.262 1350.97 394.918 1350.99 390.914ZM1353.25 378.844C1354.84 378.805 1356.44 378.746 1358.06 378.668V367.867H1353.25V378.844ZM1354.66 390.914C1354.64 393.121 1357.65 394.371 1362.82 394.391C1367.96 394.371 1370.97 393.121 1370.99 390.914C1370.97 388.648 1367.96 387.379 1362.82 387.398C1357.65 387.379 1354.64 388.648 1354.66 390.914ZM1365.48 377.75V374.781H1370.83V371.383H1365.48V368.414H1370.83V362.32H1374.54V383.844H1370.83V377.75H1365.48ZM1389.64 369.039C1389.64 372.867 1392.08 376.734 1396.63 378.453L1394.68 381.305C1391.41 380.055 1389.13 377.672 1387.88 374.801C1386.59 378.043 1384.21 380.855 1380.81 382.32L1378.78 379.43C1383.5 377.379 1386.04 372.926 1386.04 369.039V364.508H1389.64V369.039ZM1385.22 390.914C1385.18 386.93 1389.73 384.566 1397.06 384.547C1404.36 384.566 1408.95 386.93 1408.97 390.914C1408.95 394.898 1404.36 397.262 1397.06 397.242C1389.73 397.262 1385.18 394.898 1385.22 390.914ZM1388.89 390.914C1388.86 393.141 1391.96 394.43 1397.06 394.391C1402.14 394.43 1405.24 393.141 1405.26 390.914C1405.24 388.668 1402.14 387.379 1397.06 387.398C1391.96 387.379 1388.86 388.668 1388.89 390.914ZM1397.72 382.789V362.984H1401.16V371.461H1405.26V362.359H1408.78V383.883H1405.26V374.508H1401.16V382.789H1397.72ZM1433.4 365.875V368.844H1412.54V365.875H1421.14V362.164H1424.85V365.875H1433.4ZM1414.46 376.773C1414.44 372.945 1417.91 370.445 1422.97 370.406C1428.01 370.445 1431.45 372.945 1431.45 376.773C1431.45 380.621 1428.01 383.141 1422.97 383.141C1417.91 383.141 1414.44 380.621 1414.46 376.773ZM1416.88 389V385.992H1440V397.32H1436.29V389H1416.88ZM1418.05 376.773C1418.01 378.941 1420 380.25 1422.97 380.25C1425.94 380.25 1427.93 378.941 1427.97 376.773C1427.93 374.625 1425.94 373.277 1422.97 373.258C1420 373.277 1418.01 374.625 1418.05 376.773ZM1436.29 384.195V362.32H1440V371.812H1445.08V374.898H1440V384.195H1436.29ZM1453.69 383.297V387.008H1470.14V383.297H1473.85V396.891H1450.02V383.297H1453.69ZM1446.07 381.109V378.023H1477.99V381.109H1446.07ZM1447.79 372.945C1454.57 372.066 1460.12 368.336 1460.14 364.195V362.711H1463.93V364.195C1463.95 368.219 1469.53 372.125 1476.23 372.945L1474.9 375.875C1469.24 375.094 1464.3 372.398 1462.05 368.668C1459.79 372.418 1454.82 375.094 1449.2 375.875L1447.79 372.945ZM1453.69 393.922H1470.14V389.898H1453.69V393.922ZM1508.63 362.32V380.328H1504.96V362.32H1508.63ZM1479.76 377.203C1485.23 375.387 1488.57 370.797 1488.59 365.953V363.258H1492.38V365.953C1492.36 370.641 1495.72 374.898 1501.09 376.578L1499.25 379.469C1495.17 378.141 1492.11 375.387 1490.52 371.832C1488.94 375.66 1485.82 378.707 1481.64 380.133L1479.76 377.203ZM1485.66 384.938V382.008H1508.67V390.758H1489.37V394H1509.84V396.969H1485.78V387.945H1505V384.938H1485.66ZM1373.12 423.375C1373.16 417.484 1374.83 412.594 1377.75 408.406H1380.81C1378.66 411.5 1376.59 417.797 1376.59 423.375C1376.59 428.969 1378.66 435.266 1380.81 438.375H1377.75C1374.83 434.172 1373.16 429.281 1373.12 423.375ZM1385.83 409.25V415.938H1391.17V409.25H1393.92V427.75H1383.01V409.25H1385.83ZM1385.83 425.344H1391.17V418.281H1385.83V425.344ZM1397.04 433.281V407.188H1399.86V417.625H1403.33V406.656H1406.17V434.656H1403.33V420.062H1399.86V433.281H1397.04ZM1421.68 407.125C1427.82 407.141 1431.67 409.109 1431.68 412.469C1431.67 415.766 1427.82 417.719 1421.68 417.719C1415.56 417.719 1411.67 415.766 1411.68 412.469C1411.67 409.109 1415.56 407.141 1421.68 407.125ZM1408.93 422.031V419.625H1434.46V422.031H1423.15V424.969H1431.34V434.312H1411.99V424.969H1420.21V422.031H1408.93ZM1414.74 412.469C1414.73 414.344 1417.37 415.406 1421.68 415.406C1425.96 415.406 1428.63 414.344 1428.62 412.469C1428.63 410.531 1425.96 409.438 1421.68 409.438C1417.37 409.438 1414.73 410.531 1414.74 412.469ZM1414.93 431.906H1428.46V427.344H1414.93V431.906ZM1445.35 409.375V432H1441.88V412.812H1441.76L1436.35 416.344V413.062L1441.97 409.375H1445.35ZM1472.52 406.656V421.062H1469.58V406.656H1472.52ZM1449.43 418.562C1453.8 417.109 1456.47 413.438 1456.49 409.562V407.406H1459.52V409.562C1459.5 413.312 1462.19 416.719 1466.49 418.062L1465.02 420.375C1461.75 419.312 1459.3 417.109 1458.03 414.266C1456.77 417.328 1454.27 419.766 1450.93 420.906L1449.43 418.562ZM1454.14 424.75V422.406H1472.55V429.406H1457.11V432H1473.49V434.375H1454.24V427.156H1469.61V424.75H1454.14ZM1483.88 423.375C1483.84 429.281 1482.17 434.172 1479.25 438.375H1476.19C1478.34 435.266 1480.41 428.969 1480.41 423.375C1480.41 417.797 1478.34 411.5 1476.19 408.406H1479.25C1482.17 412.594 1483.84 417.484 1483.88 423.375Z" fill="white"/>
<path d="M921.219 331.656V343.375H925.438V345.875H921.219V359.656H918.25V331.656H921.219ZM898.938 352.031C901.141 352.031 903.703 352.031 906.375 351.953V349.109C903.219 348.641 901.156 346.734 901.188 344.031C901.156 340.875 903.891 338.797 907.875 338.781C911.844 338.797 914.609 340.875 914.625 344.031C914.609 346.734 912.516 348.656 909.344 349.109V351.844C911.828 351.719 914.328 351.516 916.656 351.188L916.844 353.375C910.781 354.453 904.234 354.516 899.406 354.5L898.938 352.031ZM899.469 337.344V334.969H906.375V331.719H909.344V334.969H916.25V337.344H899.469ZM903.969 344.031C903.969 345.812 905.531 346.922 907.875 346.906C910.219 346.922 911.766 345.812 911.781 344.031C911.766 342.234 910.219 341.094 907.875 341.094C905.531 341.094 903.969 342.234 903.969 344.031ZM935.919 336.812C935.903 340.375 938.388 343.625 942.638 344.969L941.231 347.281C938.044 346.266 935.716 344.156 934.481 341.5C933.263 344.562 930.809 346.984 927.45 348.156L925.919 345.781C930.294 344.344 932.934 340.734 932.95 336.844V336.062H926.794V333.656H941.95V336.062H935.919V336.812ZM929.7 354.344C929.7 351.062 933.278 349.141 939.106 349.156C944.872 349.141 948.388 351.062 948.388 354.344C948.388 357.672 944.872 359.609 939.106 359.594C933.278 359.609 929.7 357.672 929.7 354.344ZM932.669 354.344C932.653 356.219 935.059 357.266 939.106 357.25C943.122 357.266 945.497 356.219 945.481 354.344C945.497 352.516 943.122 351.484 939.106 351.5C935.059 351.484 932.653 352.516 932.669 354.344ZM945.169 348.469V331.656H948.138V338.594H952.2V341.031H948.138V348.469H945.169ZM976.181 331.656V346.062H973.244V331.656H976.181ZM953.088 343.562C957.463 342.109 960.134 338.438 960.15 334.562V332.406H963.181V334.562C963.166 338.312 965.853 341.719 970.15 343.062L968.681 345.375C965.416 344.312 962.963 342.109 961.697 339.266C960.431 342.328 957.931 344.766 954.588 345.906L953.088 343.562ZM957.806 349.75V347.406H976.213V354.406H960.775V357H977.15V359.375H957.9V352.156H973.275V349.75H957.806ZM981.537 348.375C981.569 342.484 983.241 337.594 986.162 333.406H989.225C987.069 336.5 985.006 342.797 985.006 348.375C985.006 353.969 987.069 360.266 989.225 363.375H986.162C983.241 359.172 981.569 354.281 981.537 348.375ZM998.081 333.75C1000.64 333.766 1002.74 335.219 1003.97 337.75H1010.89V331.656H1013.83V359.719H1010.89V348.969H1004.18C1002.97 351.781 1000.78 353.422 998.081 353.406C993.909 353.422 990.956 349.609 990.988 343.562C990.956 337.578 993.909 333.766 998.081 333.75ZM993.8 343.562C993.816 348.016 995.55 350.75 998.081 350.75C1000.61 350.75 1002.35 348.016 1002.36 343.562C1002.35 339.172 1000.61 336.422 998.081 336.406C995.55 336.422 993.816 339.172 993.8 343.562ZM1004.82 340.188C1005.03 341.219 1005.18 342.344 1005.18 343.562C1005.18 344.625 1005.08 345.609 1004.89 346.531H1010.89V340.188H1004.82ZM1025.03 348.375C1025 354.281 1023.33 359.172 1020.41 363.375H1017.34C1019.5 360.266 1021.56 353.969 1021.56 348.375C1021.56 342.797 1019.5 336.5 1017.34 333.406H1020.41C1023.33 337.594 1025 342.484 1025.03 348.375Z" fill="white"/>
<path d="M1150.22 462.656V474.375H1154.44V476.875H1150.22V490.656H1147.25V462.656H1150.22ZM1127.94 483.031C1130.14 483.031 1132.7 483.031 1135.38 482.953V480.109C1132.22 479.641 1130.16 477.734 1130.19 475.031C1130.16 471.875 1132.89 469.797 1136.88 469.781C1140.84 469.797 1143.61 471.875 1143.62 475.031C1143.61 477.734 1141.52 479.656 1138.34 480.109V482.844C1140.83 482.719 1143.33 482.516 1145.66 482.188L1145.84 484.375C1139.78 485.453 1133.23 485.516 1128.41 485.5L1127.94 483.031ZM1128.47 468.344V465.969H1135.38V462.719H1138.34V465.969H1145.25V468.344H1128.47ZM1132.97 475.031C1132.97 476.812 1134.53 477.922 1136.88 477.906C1139.22 477.922 1140.77 476.812 1140.78 475.031C1140.77 473.234 1139.22 472.094 1136.88 472.094C1134.53 472.094 1132.97 473.234 1132.97 475.031ZM1164.92 467.812C1164.9 471.375 1167.39 474.625 1171.64 475.969L1170.23 478.281C1167.04 477.266 1164.72 475.156 1163.48 472.5C1162.26 475.562 1159.81 477.984 1156.45 479.156L1154.92 476.781C1159.29 475.344 1161.93 471.734 1161.95 467.844V467.062H1155.79V464.656H1170.95V467.062H1164.92V467.812ZM1158.7 485.344C1158.7 482.062 1162.28 480.141 1168.11 480.156C1173.87 480.141 1177.39 482.062 1177.39 485.344C1177.39 488.672 1173.87 490.609 1168.11 490.594C1162.28 490.609 1158.7 488.672 1158.7 485.344ZM1161.67 485.344C1161.65 487.219 1164.06 488.266 1168.11 488.25C1172.12 488.266 1174.5 487.219 1174.48 485.344C1174.5 483.516 1172.12 482.484 1168.11 482.5C1164.06 482.484 1161.65 483.516 1161.67 485.344ZM1174.17 479.469V462.656H1177.14V469.594H1181.2V472.031H1177.14V479.469H1174.17ZM1205.18 462.656V477.062H1202.24V462.656H1205.18ZM1182.09 474.562C1186.46 473.109 1189.13 469.438 1189.15 465.562V463.406H1192.18V465.562C1192.17 469.312 1194.85 472.719 1199.15 474.062L1197.68 476.375C1194.42 475.312 1191.96 473.109 1190.7 470.266C1189.43 473.328 1186.93 475.766 1183.59 476.906L1182.09 474.562ZM1186.81 480.75V478.406H1205.21V485.406H1189.78V488H1206.15V490.375H1186.9V483.156H1202.28V480.75H1186.81ZM1210.54 479.375C1210.57 473.484 1212.24 468.594 1215.16 464.406H1218.22C1216.07 467.5 1214.01 473.797 1214.01 479.375C1214.01 484.969 1216.07 491.266 1218.22 494.375H1215.16C1212.24 490.172 1210.57 485.281 1210.54 479.375ZM1241.49 462.688V468.906H1245.58V471.375H1241.49V478.469H1238.52V462.688H1241.49ZM1220.77 476.562V464.062H1223.74V474.094C1227.53 474.062 1231.49 473.734 1235.8 472.875L1236.18 475.312C1231.46 476.266 1227.18 476.547 1223.05 476.562H1220.77ZM1223.55 490.281V479.938H1241.49V490.281H1223.55ZM1226.46 487.906H1238.61V482.25H1226.46V487.906ZM1254.03 479.375C1254 485.281 1252.33 490.172 1249.41 494.375H1246.34C1248.5 491.266 1250.56 484.969 1250.56 479.375C1250.56 473.797 1248.5 467.5 1246.34 464.406H1249.41C1252.33 468.594 1254 473.484 1254.03 479.375Z" fill="white"/>
<path d="M799.973 502.859V505.867H796.613V516.453C798.098 516.336 799.523 516.199 800.91 516.023L801.066 518.836C794.328 519.891 786.477 520.008 780.871 520.008L780.402 516.922C781.711 516.922 783.156 516.922 784.66 516.902V505.867H781.379V502.859H799.973ZM785.988 528.914C785.969 524.832 790.422 522.508 797.824 522.508C805.207 522.508 809.641 524.832 809.66 528.914C809.641 532.918 805.207 535.262 797.824 535.242C790.422 535.262 785.969 532.918 785.988 528.914ZM788.254 516.844C789.836 516.805 791.438 516.746 793.059 516.668V505.867H788.254V516.844ZM789.66 528.914C789.641 531.121 792.648 532.371 797.824 532.391C802.961 532.371 805.969 531.121 805.988 528.914C805.969 526.648 802.961 525.379 797.824 525.398C792.648 525.379 789.641 526.648 789.66 528.914ZM800.48 515.75V512.781H805.832V509.383H800.48V506.414H805.832V500.32H809.543V521.844H805.832V515.75H800.48ZM824.637 507.039C824.637 510.867 827.078 514.734 831.629 516.453L829.676 519.305C826.414 518.055 824.129 515.672 822.879 512.801C821.59 516.043 819.207 518.855 815.809 520.32L813.777 517.43C818.504 515.379 821.043 510.926 821.043 507.039V502.508H824.637V507.039ZM820.223 528.914C820.184 524.93 824.734 522.566 832.059 522.547C839.363 522.566 843.953 524.93 843.973 528.914C843.953 532.898 839.363 535.262 832.059 535.242C824.734 535.262 820.184 532.898 820.223 528.914ZM823.895 528.914C823.855 531.141 826.961 532.43 832.059 532.391C837.137 532.43 840.242 531.141 840.262 528.914C840.242 526.668 837.137 525.379 832.059 525.398C826.961 525.379 823.855 526.668 823.895 528.914ZM832.723 520.789V500.984H836.16V509.461H840.262V500.359H843.777V521.883H840.262V512.508H836.16V520.789H832.723ZM868.402 503.875V506.844H847.543V503.875H856.137V500.164H859.848V503.875H868.402ZM849.457 514.773C849.438 510.945 852.914 508.445 857.973 508.406C863.012 508.445 866.449 510.945 866.449 514.773C866.449 518.621 863.012 521.141 857.973 521.141C852.914 521.141 849.438 518.621 849.457 514.773ZM851.879 527V523.992H875.004V535.32H871.293V527H851.879ZM853.051 514.773C853.012 516.941 855.004 518.25 857.973 518.25C860.941 518.25 862.934 516.941 862.973 514.773C862.934 512.625 860.941 511.277 857.973 511.258C855.004 511.277 853.012 512.625 853.051 514.773ZM871.293 522.195V500.32H875.004V509.812H880.082V512.898H875.004V522.195H871.293ZM888.691 521.297V525.008H905.137V521.297H908.848V534.891H885.02V521.297H888.691ZM881.074 519.109V516.023H912.988V519.109H881.074ZM882.793 510.945C889.57 510.066 895.117 506.336 895.137 502.195V500.711H898.926V502.195C898.945 506.219 904.531 510.125 911.23 510.945L909.902 513.875C904.238 513.094 899.297 510.398 897.051 506.668C894.785 510.418 889.824 513.094 884.199 513.875L882.793 510.945ZM888.691 531.922H905.137V527.898H888.691V531.922ZM943.629 500.32V518.328H939.957V500.32H943.629ZM914.762 515.203C920.23 513.387 923.57 508.797 923.59 503.953V501.258H927.379V503.953C927.359 508.641 930.719 512.898 936.09 514.578L934.254 517.469C930.172 516.141 927.105 513.387 925.523 509.832C923.941 513.66 920.816 516.707 916.637 518.133L914.762 515.203ZM920.66 522.938V520.008H943.668V528.758H924.371V532H944.84V534.969H920.777V525.945H939.996V522.938H920.66ZM808.125 561.375C808.156 555.484 809.828 550.594 812.75 546.406H815.812C813.656 549.5 811.594 555.797 811.594 561.375C811.594 566.969 813.656 573.266 815.812 576.375H812.75C809.828 572.172 808.156 567.281 808.125 561.375ZM843.231 555.656V558.094H838.888V572.625H835.919V544.656H838.888V555.656H843.231ZM818.138 565.594V547.375H821.075V563.125C824.981 563.109 829.059 562.781 833.513 561.875L833.856 564.375C829.059 565.328 824.653 565.609 820.45 565.594H818.138ZM866.556 552.062V554.438H847.338V545.156H850.275V552.062H866.556ZM843.931 559.562V557.156H869.494V559.562H858.088V562.719H866.275V572.281H847.181V562.719H855.181V559.562H843.931ZM850.088 569.906H863.4V565.031H850.088V569.906ZM880.35 547.375V570H876.881V550.812H876.756L871.35 554.344V551.062L876.975 547.375H880.35ZM907.519 544.656V559.062H904.581V544.656H907.519ZM884.425 556.562C888.8 555.109 891.472 551.438 891.488 547.562V545.406H894.519V547.562C894.503 551.312 897.191 554.719 901.488 556.062L900.019 558.375C896.753 557.312 894.3 555.109 893.034 552.266C891.769 555.328 889.269 557.766 885.925 558.906L884.425 556.562ZM889.144 562.75V560.406H907.55V567.406H892.113V570H908.488V572.375H889.238V565.156H904.613V562.75H889.144ZM918.875 561.375C918.844 567.281 917.172 572.172 914.25 576.375H911.188C913.344 573.266 915.406 566.969 915.406 561.375C915.406 555.797 913.344 549.5 911.188 546.406H914.25C917.172 550.594 918.844 555.484 918.875 561.375Z" fill="white"/>
<path d="M1097.97 603.859V606.867H1094.61V617.453C1096.1 617.336 1097.52 617.199 1098.91 617.023L1099.07 619.836C1092.33 620.891 1084.48 621.008 1078.87 621.008L1078.4 617.922C1079.71 617.922 1081.16 617.922 1082.66 617.902V606.867H1079.38V603.859H1097.97ZM1083.99 629.914C1083.97 625.832 1088.42 623.508 1095.82 623.508C1103.21 623.508 1107.64 625.832 1107.66 629.914C1107.64 633.918 1103.21 636.262 1095.82 636.242C1088.42 636.262 1083.97 633.918 1083.99 629.914ZM1086.25 617.844C1087.84 617.805 1089.44 617.746 1091.06 617.668V606.867H1086.25V617.844ZM1087.66 629.914C1087.64 632.121 1090.65 633.371 1095.82 633.391C1100.96 633.371 1103.97 632.121 1103.99 629.914C1103.97 627.648 1100.96 626.379 1095.82 626.398C1090.65 626.379 1087.64 627.648 1087.66 629.914ZM1098.48 616.75V613.781H1103.83V610.383H1098.48V607.414H1103.83V601.32H1107.54V622.844H1103.83V616.75H1098.48ZM1122.64 608.039C1122.64 611.867 1125.08 615.734 1129.63 617.453L1127.68 620.305C1124.41 619.055 1122.13 616.672 1120.88 613.801C1119.59 617.043 1117.21 619.855 1113.81 621.32L1111.78 618.43C1116.5 616.379 1119.04 611.926 1119.04 608.039V603.508H1122.64V608.039ZM1118.22 629.914C1118.18 625.93 1122.73 623.566 1130.06 623.547C1137.36 623.566 1141.95 625.93 1141.97 629.914C1141.95 633.898 1137.36 636.262 1130.06 636.242C1122.73 636.262 1118.18 633.898 1118.22 629.914ZM1121.89 629.914C1121.86 632.141 1124.96 633.43 1130.06 633.391C1135.14 633.43 1138.24 632.141 1138.26 629.914C1138.24 627.668 1135.14 626.379 1130.06 626.398C1124.96 626.379 1121.86 627.668 1121.89 629.914ZM1130.72 621.789V601.984H1134.16V610.461H1138.26V601.359H1141.78V622.883H1138.26V613.508H1134.16V621.789H1130.72ZM1166.4 604.875V607.844H1145.54V604.875H1154.14V601.164H1157.85V604.875H1166.4ZM1147.46 615.773C1147.44 611.945 1150.91 609.445 1155.97 609.406C1161.01 609.445 1164.45 611.945 1164.45 615.773C1164.45 619.621 1161.01 622.141 1155.97 622.141C1150.91 622.141 1147.44 619.621 1147.46 615.773ZM1149.88 628V624.992H1173V636.32H1169.29V628H1149.88ZM1151.05 615.773C1151.01 617.941 1153 619.25 1155.97 619.25C1158.94 619.25 1160.93 617.941 1160.97 615.773C1160.93 613.625 1158.94 612.277 1155.97 612.258C1153 612.277 1151.01 613.625 1151.05 615.773ZM1169.29 623.195V601.32H1173V610.812H1178.08V613.898H1173V623.195H1169.29ZM1186.69 622.297V626.008H1203.14V622.297H1206.85V635.891H1183.02V622.297H1186.69ZM1179.07 620.109V617.023H1210.99V620.109H1179.07ZM1180.79 611.945C1187.57 611.066 1193.12 607.336 1193.14 603.195V601.711H1196.93V603.195C1196.95 607.219 1202.53 611.125 1209.23 611.945L1207.9 614.875C1202.24 614.094 1197.3 611.398 1195.05 607.668C1192.79 611.418 1187.82 614.094 1182.2 614.875L1180.79 611.945ZM1186.69 632.922H1203.14V628.898H1186.69V632.922ZM1241.63 601.32V619.328H1237.96V601.32H1241.63ZM1212.76 616.203C1218.23 614.387 1221.57 609.797 1221.59 604.953V602.258H1225.38V604.953C1225.36 609.641 1228.72 613.898 1234.09 615.578L1232.25 618.469C1228.17 617.141 1225.11 614.387 1223.52 610.832C1221.94 614.66 1218.82 617.707 1214.64 619.133L1212.76 616.203ZM1218.66 623.938V621.008H1241.67V629.758H1222.37V633H1242.84V635.969H1218.78V626.945H1238V623.938H1218.66ZM1103.78 662.375C1103.81 656.484 1105.48 651.594 1108.41 647.406H1111.47C1109.31 650.5 1107.25 656.797 1107.25 662.375C1107.25 667.969 1109.31 674.266 1111.47 677.375H1108.41C1105.48 673.172 1103.81 668.281 1103.78 662.375ZM1138.89 656.656V659.094H1134.54V673.625H1131.58V645.656H1134.54V656.656H1138.89ZM1113.79 666.594V648.375H1116.73V664.125C1120.64 664.109 1124.72 663.781 1129.17 662.875L1129.51 665.375C1124.72 666.328 1120.31 666.609 1116.11 666.594H1113.79ZM1162.21 653.062V655.438H1142.99V646.156H1145.93V653.062H1162.21ZM1139.59 660.562V658.156H1165.15V660.562H1153.74V663.719H1161.93V673.281H1142.84V663.719H1150.84V660.562H1139.59ZM1145.74 670.906H1159.06V666.031H1145.74V670.906ZM1167.41 671V668.5L1175.26 660.594C1177.74 658.016 1178.97 656.578 1178.97 654.594C1178.97 652.359 1177.16 650.938 1174.79 650.938C1172.27 650.938 1170.68 652.531 1170.66 654.938H1167.41C1167.38 650.797 1170.54 648.062 1174.85 648.062C1179.21 648.062 1182.22 650.828 1182.26 654.5C1182.22 657.031 1181.04 659.047 1176.79 663.219L1172.19 667.875V668.062H1182.63V671H1167.41ZM1207.86 645.656V660.062H1204.93V645.656H1207.86ZM1184.77 657.562C1189.14 656.109 1191.82 652.438 1191.83 648.562V646.406H1194.86V648.562C1194.85 652.312 1197.53 655.719 1201.83 657.062L1200.36 659.375C1197.1 658.312 1194.64 656.109 1193.38 653.266C1192.11 656.328 1189.61 658.766 1186.27 659.906L1184.77 657.562ZM1189.49 663.75V661.406H1207.89V668.406H1192.46V671H1208.83V673.375H1189.58V666.156H1204.96V663.75H1189.49ZM1219.22 662.375C1219.19 668.281 1217.52 673.172 1214.59 677.375H1211.53C1213.69 674.266 1215.75 667.969 1215.75 662.375C1215.75 656.797 1213.69 650.5 1211.53 647.406H1214.59C1217.52 651.594 1219.19 656.484 1219.22 662.375Z" fill="white"/>
<path d="M600.973 845.859V848.867H597.613V859.453C599.098 859.336 600.523 859.199 601.91 859.023L602.066 861.836C595.328 862.891 587.477 863.008 581.871 863.008L581.402 859.922C582.711 859.922 584.156 859.922 585.66 859.902V848.867H582.379V845.859H600.973ZM586.988 871.914C586.969 867.832 591.422 865.508 598.824 865.508C606.207 865.508 610.641 867.832 610.66 871.914C610.641 875.918 606.207 878.262 598.824 878.242C591.422 878.262 586.969 875.918 586.988 871.914ZM589.254 859.844C590.836 859.805 592.438 859.746 594.059 859.668V848.867H589.254V859.844ZM590.66 871.914C590.641 874.121 593.648 875.371 598.824 875.391C603.961 875.371 606.969 874.121 606.988 871.914C606.969 869.648 603.961 868.379 598.824 868.398C593.648 868.379 590.641 869.648 590.66 871.914ZM601.48 858.75V855.781H606.832V852.383H601.48V849.414H606.832V843.32H610.543V864.844H606.832V858.75H601.48ZM625.637 850.039C625.637 853.867 628.078 857.734 632.629 859.453L630.676 862.305C627.414 861.055 625.129 858.672 623.879 855.801C622.59 859.043 620.207 861.855 616.809 863.32L614.777 860.43C619.504 858.379 622.043 853.926 622.043 850.039V845.508H625.637V850.039ZM621.223 871.914C621.184 867.93 625.734 865.566 633.059 865.547C640.363 865.566 644.953 867.93 644.973 871.914C644.953 875.898 640.363 878.262 633.059 878.242C625.734 878.262 621.184 875.898 621.223 871.914ZM624.895 871.914C624.855 874.141 627.961 875.43 633.059 875.391C638.137 875.43 641.242 874.141 641.262 871.914C641.242 869.668 638.137 868.379 633.059 868.398C627.961 868.379 624.855 869.668 624.895 871.914ZM633.723 863.789V843.984H637.16V852.461H641.262V843.359H644.777V864.883H641.262V855.508H637.16V863.789H633.723ZM669.402 846.875V849.844H648.543V846.875H657.137V843.164H660.848V846.875H669.402ZM650.457 857.773C650.438 853.945 653.914 851.445 658.973 851.406C664.012 851.445 667.449 853.945 667.449 857.773C667.449 861.621 664.012 864.141 658.973 864.141C653.914 864.141 650.438 861.621 650.457 857.773ZM652.879 870V866.992H676.004V878.32H672.293V870H652.879ZM654.051 857.773C654.012 859.941 656.004 861.25 658.973 861.25C661.941 861.25 663.934 859.941 663.973 857.773C663.934 855.625 661.941 854.277 658.973 854.258C656.004 854.277 654.012 855.625 654.051 857.773ZM672.293 865.195V843.32H676.004V852.812H681.082V855.898H676.004V865.195H672.293ZM689.691 864.297V868.008H706.137V864.297H709.848V877.891H686.02V864.297H689.691ZM682.074 862.109V859.023H713.988V862.109H682.074ZM683.793 853.945C690.57 853.066 696.117 849.336 696.137 845.195V843.711H699.926V845.195C699.945 849.219 705.531 853.125 712.23 853.945L710.902 856.875C705.238 856.094 700.297 853.398 698.051 849.668C695.785 853.418 690.824 856.094 685.199 856.875L683.793 853.945ZM689.691 874.922H706.137V870.898H689.691V874.922ZM744.629 843.32V861.328H740.957V843.32H744.629ZM715.762 858.203C721.23 856.387 724.57 851.797 724.59 846.953V844.258H728.379V846.953C728.359 851.641 731.719 855.898 737.09 857.578L735.254 860.469C731.172 859.141 728.105 856.387 726.523 852.832C724.941 856.66 721.816 859.707 717.637 861.133L715.762 858.203ZM721.66 865.938V863.008H744.668V871.758H725.371V875H745.84V877.969H721.777V868.945H740.996V865.938H721.66ZM609.125 904.375C609.156 898.484 610.828 893.594 613.75 889.406H616.812C614.656 892.5 612.594 898.797 612.594 904.375C612.594 909.969 614.656 916.266 616.812 919.375H613.75C610.828 915.172 609.156 910.281 609.125 904.375ZM626.45 896.219C626.45 900.578 628.481 905.078 632.388 907.125L630.7 909.344C627.981 907.906 626.091 905.234 625.075 902.078C624.091 905.453 622.216 908.375 619.513 909.938L617.763 907.75C621.622 905.5 623.638 900.734 623.669 896.219V895.188H618.481V892.719H623.669V888.656H626.45V892.719H631.544V895.188H626.45V896.219ZM633.263 914.281V888.188H636.075V898.781H639.419V887.656H642.263V915.656H639.419V901.281H636.075V914.281H633.263ZM657.681 888.125C663.822 888.141 667.666 890.109 667.681 893.469C667.666 896.766 663.822 898.719 657.681 898.719C651.556 898.719 647.666 896.766 647.681 893.469C647.666 890.109 651.556 888.141 657.681 888.125ZM644.931 903.031V900.625H670.463V903.031H659.15V905.969H667.338V915.312H647.994V905.969H656.213V903.031H644.931ZM650.744 893.469C650.728 895.344 653.369 896.406 657.681 896.406C661.963 896.406 664.634 895.344 664.619 893.469C664.634 891.531 661.963 890.438 657.681 890.438C653.369 890.438 650.728 891.531 650.744 893.469ZM650.931 912.906H664.463V908.344H650.931V912.906ZM681.35 890.375V913H677.881V893.812H677.756L672.35 897.344V894.062L677.975 890.375H681.35ZM708.519 887.656V902.062H705.581V887.656H708.519ZM685.425 899.562C689.8 898.109 692.472 894.438 692.488 890.562V888.406H695.519V890.562C695.503 894.312 698.191 897.719 702.488 899.062L701.019 901.375C697.753 900.312 695.3 898.109 694.034 895.266C692.769 898.328 690.269 900.766 686.925 901.906L685.425 899.562ZM690.144 905.75V903.406H708.55V910.406H693.113V913H709.488V915.375H690.238V908.156H705.613V905.75H690.144ZM719.875 904.375C719.844 910.281 718.172 915.172 715.25 919.375H712.188C714.344 916.266 716.406 909.969 716.406 904.375C716.406 898.797 714.344 892.5 712.188 889.406H715.25C718.172 893.594 719.844 898.484 719.875 904.375Z" fill="white"/>
<path d="M819.973 978.859V981.867H816.613V992.453C818.098 992.336 819.523 992.199 820.91 992.023L821.066 994.836C814.328 995.891 806.477 996.008 800.871 996.008L800.402 992.922C801.711 992.922 803.156 992.922 804.66 992.902V981.867H801.379V978.859H819.973ZM805.988 1004.91C805.969 1000.83 810.422 998.508 817.824 998.508C825.207 998.508 829.641 1000.83 829.66 1004.91C829.641 1008.92 825.207 1011.26 817.824 1011.24C810.422 1011.26 805.969 1008.92 805.988 1004.91ZM808.254 992.844C809.836 992.805 811.438 992.746 813.059 992.668V981.867H808.254V992.844ZM809.66 1004.91C809.641 1007.12 812.648 1008.37 817.824 1008.39C822.961 1008.37 825.969 1007.12 825.988 1004.91C825.969 1002.65 822.961 1001.38 817.824 1001.4C812.648 1001.38 809.641 1002.65 809.66 1004.91ZM820.48 991.75V988.781H825.832V985.383H820.48V982.414H825.832V976.32H829.543V997.844H825.832V991.75H820.48ZM844.637 983.039C844.637 986.867 847.078 990.734 851.629 992.453L849.676 995.305C846.414 994.055 844.129 991.672 842.879 988.801C841.59 992.043 839.207 994.855 835.809 996.32L833.777 993.43C838.504 991.379 841.043 986.926 841.043 983.039V978.508H844.637V983.039ZM840.223 1004.91C840.184 1000.93 844.734 998.566 852.059 998.547C859.363 998.566 863.953 1000.93 863.973 1004.91C863.953 1008.9 859.363 1011.26 852.059 1011.24C844.734 1011.26 840.184 1008.9 840.223 1004.91ZM843.895 1004.91C843.855 1007.14 846.961 1008.43 852.059 1008.39C857.137 1008.43 860.242 1007.14 860.262 1004.91C860.242 1002.67 857.137 1001.38 852.059 1001.4C846.961 1001.38 843.855 1002.67 843.895 1004.91ZM852.723 996.789V976.984H856.16V985.461H860.262V976.359H863.777V997.883H860.262V988.508H856.16V996.789H852.723ZM888.402 979.875V982.844H867.543V979.875H876.137V976.164H879.848V979.875H888.402ZM869.457 990.773C869.438 986.945 872.914 984.445 877.973 984.406C883.012 984.445 886.449 986.945 886.449 990.773C886.449 994.621 883.012 997.141 877.973 997.141C872.914 997.141 869.438 994.621 869.457 990.773ZM871.879 1003V999.992H895.004V1011.32H891.293V1003H871.879ZM873.051 990.773C873.012 992.941 875.004 994.25 877.973 994.25C880.941 994.25 882.934 992.941 882.973 990.773C882.934 988.625 880.941 987.277 877.973 987.258C875.004 987.277 873.012 988.625 873.051 990.773ZM891.293 998.195V976.32H895.004V985.812H900.082V988.898H895.004V998.195H891.293ZM908.691 997.297V1001.01H925.137V997.297H928.848V1010.89H905.02V997.297H908.691ZM901.074 995.109V992.023H932.988V995.109H901.074ZM902.793 986.945C909.57 986.066 915.117 982.336 915.137 978.195V976.711H918.926V978.195C918.945 982.219 924.531 986.125 931.23 986.945L929.902 989.875C924.238 989.094 919.297 986.398 917.051 982.668C914.785 986.418 909.824 989.094 904.199 989.875L902.793 986.945ZM908.691 1007.92H925.137V1003.9H908.691V1007.92ZM963.629 976.32V994.328H959.957V976.32H963.629ZM934.762 991.203C940.23 989.387 943.57 984.797 943.59 979.953V977.258H947.379V979.953C947.359 984.641 950.719 988.898 956.09 990.578L954.254 993.469C950.172 992.141 947.105 989.387 945.523 985.832C943.941 989.66 940.816 992.707 936.637 994.133L934.762 991.203ZM940.66 998.938V996.008H963.668V1004.76H944.371V1008H964.84V1010.97H940.777V1001.95H959.996V998.938H940.66ZM825.781 1037.38C825.812 1031.48 827.484 1026.59 830.406 1022.41H833.469C831.312 1025.5 829.25 1031.8 829.25 1037.38C829.25 1042.97 831.312 1049.27 833.469 1052.38H830.406C827.484 1048.17 825.812 1043.28 825.781 1037.38ZM843.106 1029.22C843.106 1033.58 845.138 1038.08 849.044 1040.12L847.356 1042.34C844.638 1040.91 842.747 1038.23 841.731 1035.08C840.747 1038.45 838.872 1041.38 836.169 1042.94L834.419 1040.75C838.278 1038.5 840.294 1033.73 840.325 1029.22V1028.19H835.138V1025.72H840.325V1021.66H843.106V1025.72H848.2V1028.19H843.106V1029.22ZM849.919 1047.28V1021.19H852.731V1031.78H856.075V1020.66H858.919V1048.66H856.075V1034.28H852.731V1047.28H849.919ZM874.338 1021.12C880.478 1021.14 884.322 1023.11 884.338 1026.47C884.322 1029.77 880.478 1031.72 874.338 1031.72C868.213 1031.72 864.322 1029.77 864.338 1026.47C864.322 1023.11 868.213 1021.14 874.338 1021.12ZM861.588 1036.03V1033.62H887.119V1036.03H875.806V1038.97H883.994V1048.31H864.65V1038.97H872.869V1036.03H861.588ZM867.4 1026.47C867.384 1028.34 870.025 1029.41 874.338 1029.41C878.619 1029.41 881.291 1028.34 881.275 1026.47C881.291 1024.53 878.619 1023.44 874.338 1023.44C870.025 1023.44 867.384 1024.53 867.4 1026.47ZM867.588 1045.91H881.119V1041.34H867.588V1045.91ZM889.412 1046V1043.5L897.256 1035.59C899.741 1033.02 900.975 1031.58 900.975 1029.59C900.975 1027.36 899.162 1025.94 896.787 1025.94C894.272 1025.94 892.678 1027.53 892.662 1029.94H889.412C889.381 1025.8 892.537 1023.06 896.85 1023.06C901.209 1023.06 904.225 1025.83 904.256 1029.5C904.225 1032.03 903.037 1034.05 898.787 1038.22L894.194 1042.88V1043.06H904.631V1046H889.412ZM929.863 1020.66V1035.06H926.925V1020.66H929.863ZM906.769 1032.56C911.144 1031.11 913.816 1027.44 913.831 1023.56V1021.41H916.863V1023.56C916.847 1027.31 919.534 1030.72 923.831 1032.06L922.363 1034.38C919.097 1033.31 916.644 1031.11 915.378 1028.27C914.113 1031.33 911.613 1033.77 908.269 1034.91L906.769 1032.56ZM911.488 1038.75V1036.41H929.894V1043.41H914.456V1046H930.831V1048.38H911.581V1041.16H926.956V1038.75H911.488ZM941.219 1037.38C941.188 1043.28 939.516 1048.17 936.594 1052.38H933.531C935.688 1049.27 937.75 1042.97 937.75 1037.38C937.75 1031.8 935.688 1025.5 933.531 1022.41H936.594C939.516 1026.59 941.188 1031.48 941.219 1037.38Z" fill="white"/>
<path d="M1287.97 715.859V718.867H1284.61V729.453C1286.1 729.336 1287.52 729.199 1288.91 729.023L1289.07 731.836C1282.33 732.891 1274.48 733.008 1268.87 733.008L1268.4 729.922C1269.71 729.922 1271.16 729.922 1272.66 729.902V718.867H1269.38V715.859H1287.97ZM1273.99 741.914C1273.97 737.832 1278.42 735.508 1285.82 735.508C1293.21 735.508 1297.64 737.832 1297.66 741.914C1297.64 745.918 1293.21 748.262 1285.82 748.242C1278.42 748.262 1273.97 745.918 1273.99 741.914ZM1276.25 729.844C1277.84 729.805 1279.44 729.746 1281.06 729.668V718.867H1276.25V729.844ZM1277.66 741.914C1277.64 744.121 1280.65 745.371 1285.82 745.391C1290.96 745.371 1293.97 744.121 1293.99 741.914C1293.97 739.648 1290.96 738.379 1285.82 738.398C1280.65 738.379 1277.64 739.648 1277.66 741.914ZM1288.48 728.75V725.781H1293.83V722.383H1288.48V719.414H1293.83V713.32H1297.54V734.844H1293.83V728.75H1288.48ZM1312.64 720.039C1312.64 723.867 1315.08 727.734 1319.63 729.453L1317.68 732.305C1314.41 731.055 1312.13 728.672 1310.88 725.801C1309.59 729.043 1307.21 731.855 1303.81 733.32L1301.78 730.43C1306.5 728.379 1309.04 723.926 1309.04 720.039V715.508H1312.64V720.039ZM1308.22 741.914C1308.18 737.93 1312.73 735.566 1320.06 735.547C1327.36 735.566 1331.95 737.93 1331.97 741.914C1331.95 745.898 1327.36 748.262 1320.06 748.242C1312.73 748.262 1308.18 745.898 1308.22 741.914ZM1311.89 741.914C1311.86 744.141 1314.96 745.43 1320.06 745.391C1325.14 745.43 1328.24 744.141 1328.26 741.914C1328.24 739.668 1325.14 738.379 1320.06 738.398C1314.96 738.379 1311.86 739.668 1311.89 741.914ZM1320.72 733.789V713.984H1324.16V722.461H1328.26V713.359H1331.78V734.883H1328.26V725.508H1324.16V733.789H1320.72ZM1356.4 716.875V719.844H1335.54V716.875H1344.14V713.164H1347.85V716.875H1356.4ZM1337.46 727.773C1337.44 723.945 1340.91 721.445 1345.97 721.406C1351.01 721.445 1354.45 723.945 1354.45 727.773C1354.45 731.621 1351.01 734.141 1345.97 734.141C1340.91 734.141 1337.44 731.621 1337.46 727.773ZM1339.88 740V736.992H1363V748.32H1359.29V740H1339.88ZM1341.05 727.773C1341.01 729.941 1343 731.25 1345.97 731.25C1348.94 731.25 1350.93 729.941 1350.97 727.773C1350.93 725.625 1348.94 724.277 1345.97 724.258C1343 724.277 1341.01 725.625 1341.05 727.773ZM1359.29 735.195V713.32H1363V722.812H1368.08V725.898H1363V735.195H1359.29ZM1376.69 734.297V738.008H1393.14V734.297H1396.85V747.891H1373.02V734.297H1376.69ZM1369.07 732.109V729.023H1400.99V732.109H1369.07ZM1370.79 723.945C1377.57 723.066 1383.12 719.336 1383.14 715.195V713.711H1386.93V715.195C1386.95 719.219 1392.53 723.125 1399.23 723.945L1397.9 726.875C1392.24 726.094 1387.3 723.398 1385.05 719.668C1382.79 723.418 1377.82 726.094 1372.2 726.875L1370.79 723.945ZM1376.69 744.922H1393.14V740.898H1376.69V744.922ZM1431.63 713.32V731.328H1427.96V713.32H1431.63ZM1402.76 728.203C1408.23 726.387 1411.57 721.797 1411.59 716.953V714.258H1415.38V716.953C1415.36 721.641 1418.72 725.898 1424.09 727.578L1422.25 730.469C1418.17 729.141 1415.11 726.387 1413.52 722.832C1411.94 726.66 1408.82 729.707 1404.64 731.133L1402.76 728.203ZM1408.66 735.938V733.008H1431.67V741.758H1412.37V745H1432.84V747.969H1408.78V738.945H1428V735.938H1408.66ZM1293.31 774.375C1293.34 768.484 1295.02 763.594 1297.94 759.406H1301C1298.84 762.5 1296.78 768.797 1296.78 774.375C1296.78 779.969 1298.84 786.266 1301 789.375H1297.94C1295.02 785.172 1293.34 780.281 1293.31 774.375ZM1328.42 768.656V771.094H1324.08V785.625H1321.11V757.656H1324.08V768.656H1328.42ZM1303.33 778.594V760.375H1306.26V776.125C1310.17 776.109 1314.25 775.781 1318.7 774.875L1319.04 777.375C1314.25 778.328 1309.84 778.609 1305.64 778.594H1303.33ZM1351.74 765.062V767.438H1332.53V758.156H1335.46V765.062H1351.74ZM1329.12 772.562V770.156H1354.68V772.562H1343.28V775.719H1351.46V785.281H1332.37V775.719H1340.37V772.562H1329.12ZM1335.28 782.906H1348.59V778.031H1335.28V782.906ZM1364.97 783.312C1360.29 783.312 1356.96 780.797 1356.82 777.094H1360.32C1360.44 779.078 1362.41 780.344 1364.94 780.344C1367.68 780.344 1369.66 778.859 1369.66 776.656C1369.66 774.422 1367.8 772.828 1364.57 772.812H1362.63V770H1364.57C1367.15 770.016 1368.94 768.578 1368.94 766.406C1368.94 764.344 1367.4 762.938 1365.01 762.938C1362.74 762.938 1360.71 764.203 1360.63 766.25H1357.32C1357.41 762.562 1360.82 760.062 1365.04 760.062C1369.49 760.062 1372.29 762.875 1372.26 766.219C1372.29 768.797 1370.69 770.641 1368.26 771.25V771.406C1371.35 771.844 1373.15 773.922 1373.13 776.781C1373.15 780.547 1369.66 783.312 1364.97 783.312ZM1398.33 757.656V772.062H1395.39V757.656H1398.33ZM1375.24 769.562C1379.61 768.109 1382.28 764.438 1382.3 760.562V758.406H1385.33V760.562C1385.32 764.312 1388 767.719 1392.3 769.062L1390.83 771.375C1387.57 770.312 1385.11 768.109 1383.85 765.266C1382.58 768.328 1380.08 770.766 1376.74 771.906L1375.24 769.562ZM1379.96 775.75V773.406H1398.36V780.406H1382.93V783H1399.3V785.375H1380.05V778.156H1395.43V775.75H1379.96ZM1409.69 774.375C1409.66 780.281 1407.98 785.172 1405.06 789.375H1402C1404.16 786.266 1406.22 779.969 1406.22 774.375C1406.22 768.797 1404.16 762.5 1402 759.406H1405.06C1407.98 763.594 1409.66 768.484 1409.69 774.375Z" fill="white"/>
<path d="M972.612 638V615.375H986.8V618.344H976.05V625.188H986.05V628.125H976.05V635.031H986.925V638H972.612ZM998.562 614.312L991.281 641.406H988.312L995.594 614.312H998.562ZM1002.61 615.375L1008.89 633.781H1009.14L1015.42 615.375H1019.14L1010.98 638H1007.01L998.887 615.375H1002.61Z" fill="white"/>
<path d="M1629.97 518.859V521.867H1626.61V532.453C1628.1 532.336 1629.52 532.199 1630.91 532.023L1631.07 534.836C1624.33 535.891 1616.48 536.008 1610.87 536.008L1610.4 532.922C1611.71 532.922 1613.16 532.922 1614.66 532.902V521.867H1611.38V518.859H1629.97ZM1615.99 544.914C1615.97 540.832 1620.42 538.508 1627.82 538.508C1635.21 538.508 1639.64 540.832 1639.66 544.914C1639.64 548.918 1635.21 551.262 1627.82 551.242C1620.42 551.262 1615.97 548.918 1615.99 544.914ZM1618.25 532.844C1619.84 532.805 1621.44 532.746 1623.06 532.668V521.867H1618.25V532.844ZM1619.66 544.914C1619.64 547.121 1622.65 548.371 1627.82 548.391C1632.96 548.371 1635.97 547.121 1635.99 544.914C1635.97 542.648 1632.96 541.379 1627.82 541.398C1622.65 541.379 1619.64 542.648 1619.66 544.914ZM1630.48 531.75V528.781H1635.83V525.383H1630.48V522.414H1635.83V516.32H1639.54V537.844H1635.83V531.75H1630.48ZM1654.64 523.039C1654.64 526.867 1657.08 530.734 1661.63 532.453L1659.68 535.305C1656.41 534.055 1654.13 531.672 1652.88 528.801C1651.59 532.043 1649.21 534.855 1645.81 536.32L1643.78 533.43C1648.5 531.379 1651.04 526.926 1651.04 523.039V518.508H1654.64V523.039ZM1650.22 544.914C1650.18 540.93 1654.73 538.566 1662.06 538.547C1669.36 538.566 1673.95 540.93 1673.97 544.914C1673.95 548.898 1669.36 551.262 1662.06 551.242C1654.73 551.262 1650.18 548.898 1650.22 544.914ZM1653.89 544.914C1653.86 547.141 1656.96 548.43 1662.06 548.391C1667.14 548.43 1670.24 547.141 1670.26 544.914C1670.24 542.668 1667.14 541.379 1662.06 541.398C1656.96 541.379 1653.86 542.668 1653.89 544.914ZM1662.72 536.789V516.984H1666.16V525.461H1670.26V516.359H1673.78V537.883H1670.26V528.508H1666.16V536.789H1662.72ZM1698.4 519.875V522.844H1677.54V519.875H1686.14V516.164H1689.85V519.875H1698.4ZM1679.46 530.773C1679.44 526.945 1682.91 524.445 1687.97 524.406C1693.01 524.445 1696.45 526.945 1696.45 530.773C1696.45 534.621 1693.01 537.141 1687.97 537.141C1682.91 537.141 1679.44 534.621 1679.46 530.773ZM1681.88 543V539.992H1705V551.32H1701.29V543H1681.88ZM1683.05 530.773C1683.01 532.941 1685 534.25 1687.97 534.25C1690.94 534.25 1692.93 532.941 1692.97 530.773C1692.93 528.625 1690.94 527.277 1687.97 527.258C1685 527.277 1683.01 528.625 1683.05 530.773ZM1701.29 538.195V516.32H1705V525.812H1710.08V528.898H1705V538.195H1701.29ZM1718.69 537.297V541.008H1735.14V537.297H1738.85V550.891H1715.02V537.297H1718.69ZM1711.07 535.109V532.023H1742.99V535.109H1711.07ZM1712.79 526.945C1719.57 526.066 1725.12 522.336 1725.14 518.195V516.711H1728.93V518.195C1728.95 522.219 1734.53 526.125 1741.23 526.945L1739.9 529.875C1734.24 529.094 1729.3 526.398 1727.05 522.668C1724.79 526.418 1719.82 529.094 1714.2 529.875L1712.79 526.945ZM1718.69 547.922H1735.14V543.898H1718.69V547.922ZM1773.63 516.32V534.328H1769.96V516.32H1773.63ZM1744.76 531.203C1750.23 529.387 1753.57 524.797 1753.59 519.953V517.258H1757.38V519.953C1757.36 524.641 1760.72 528.898 1766.09 530.578L1764.25 533.469C1760.17 532.141 1757.11 529.387 1755.52 525.832C1753.94 529.66 1750.82 532.707 1746.64 534.133L1744.76 531.203ZM1750.66 538.938V536.008H1773.67V544.758H1754.37V548H1774.84V550.969H1750.78V541.945H1770V538.938H1750.66ZM1635.78 577.375C1635.81 571.484 1637.48 566.594 1640.41 562.406H1643.47C1641.31 565.5 1639.25 571.797 1639.25 577.375C1639.25 582.969 1641.31 589.266 1643.47 592.375H1640.41C1637.48 588.172 1635.81 583.281 1635.78 577.375ZM1648.48 563.25V569.938H1653.83V563.25H1656.58V581.75H1645.67V563.25H1648.48ZM1648.48 579.344H1653.83V572.281H1648.48V579.344ZM1659.7 587.281V561.188H1662.51V571.625H1665.98V560.656H1668.83V588.656H1665.98V574.062H1662.51V587.281H1659.7ZM1684.34 561.125C1690.48 561.141 1694.32 563.109 1694.34 566.469C1694.32 569.766 1690.48 571.719 1684.34 571.719C1678.21 571.719 1674.32 569.766 1674.34 566.469C1674.32 563.109 1678.21 561.141 1684.34 561.125ZM1671.59 576.031V573.625H1697.12V576.031H1685.81V578.969H1693.99V588.312H1674.65V578.969H1682.87V576.031H1671.59ZM1677.4 566.469C1677.38 568.344 1680.03 569.406 1684.34 569.406C1688.62 569.406 1691.29 568.344 1691.28 566.469C1691.29 564.531 1688.62 563.438 1684.34 563.438C1680.03 563.438 1677.38 564.531 1677.4 566.469ZM1677.59 585.906H1691.12V581.344H1677.59V585.906ZM1699.41 586V583.5L1707.26 575.594C1709.74 573.016 1710.97 571.578 1710.97 569.594C1710.97 567.359 1709.16 565.938 1706.79 565.938C1704.27 565.938 1702.68 567.531 1702.66 569.938H1699.41C1699.38 565.797 1702.54 563.062 1706.85 563.062C1711.21 563.062 1714.22 565.828 1714.26 569.5C1714.22 572.031 1713.04 574.047 1708.79 578.219L1704.19 582.875V583.062H1714.63V586H1699.41ZM1739.86 560.656V575.062H1736.93V560.656H1739.86ZM1716.77 572.562C1721.14 571.109 1723.82 567.438 1723.83 563.562V561.406H1726.86V563.562C1726.85 567.312 1729.53 570.719 1733.83 572.062L1732.36 574.375C1729.1 573.312 1726.64 571.109 1725.38 568.266C1724.11 571.328 1721.61 573.766 1718.27 574.906L1716.77 572.562ZM1721.49 578.75V576.406H1739.89V583.406H1724.46V586H1740.83V588.375H1721.58V581.156H1736.96V578.75H1721.49ZM1751.22 577.375C1751.19 583.281 1749.52 588.172 1746.59 592.375H1743.53C1745.69 589.266 1747.75 582.969 1747.75 577.375C1747.75 571.797 1745.69 565.5 1743.53 562.406H1746.59C1749.52 566.594 1751.19 571.484 1751.22 577.375Z" fill="white"/>
<defs>
<filter id="filter0_f_2710_3987" x="364" y="392" width="80" height="30" filterUnits="userSpaceOnUse" color-interpolation-filters="sRGB">
<feFlood flood-opacity="0" result="BackgroundImageFix"/>
<feBlend mode="normal" in="SourceGraphic" in2="BackgroundImageFix" result="shape"/>
<feGaussianBlur stdDeviation="2.5" result="effect1_foregroundBlur_2710_3987"/>
</filter>
<filter id="filter1_f_2710_3987" x="823" y="731" width="80" height="30" filterUnits="userSpaceOnUse" color-interpolation-filters="sRGB">
<feFlood flood-opacity="0" result="BackgroundImageFix"/>
<feBlend mode="normal" in="SourceGraphic" in2="BackgroundImageFix" result="shape"/>
<feGaussianBlur stdDeviation="2.5" result="effect1_foregroundBlur_2710_3987"/>
</filter>
<filter id="filter2_f_2710_3987" x="1122" y="832" width="80" height="30" filterUnits="userSpaceOnUse" color-interpolation-filters="sRGB">
<feFlood flood-opacity="0" result="BackgroundImageFix"/>
<feBlend mode="normal" in="SourceGraphic" in2="BackgroundImageFix" result="shape"/>
<feGaussianBlur stdDeviation="2.5" result="effect1_foregroundBlur_2710_3987"/>
</filter>
<filter id="filter3_f_2710_3987" x="1311" y="944" width="80" height="30" filterUnits="userSpaceOnUse" color-interpolation-filters="sRGB">
<feFlood flood-opacity="0" result="BackgroundImageFix"/>
<feBlend mode="normal" in="SourceGraphic" in2="BackgroundImageFix" result="shape"/>
<feGaussianBlur stdDeviation="2.5" result="effect1_foregroundBlur_2710_3987"/>
</filter>
<filter id="filter4_f_2710_3987" x="625" y="1074" width="80" height="30" filterUnits="userSpaceOnUse" color-interpolation-filters="sRGB">
<feFlood flood-opacity="0" result="BackgroundImageFix"/>
<feBlend mode="normal" in="SourceGraphic" in2="BackgroundImageFix" result="shape"/>
<feGaussianBlur stdDeviation="2.5" result="effect1_foregroundBlur_2710_3987"/>
</filter>
<filter id="filter5_f_2710_3987" x="844" y="1207" width="80" height="30" filterUnits="userSpaceOnUse" color-interpolation-filters="sRGB">
<feFlood flood-opacity="0" result="BackgroundImageFix"/>
<feBlend mode="normal" in="SourceGraphic" in2="BackgroundImageFix" result="shape"/>
<feGaussianBlur stdDeviation="2.5" result="effect1_foregroundBlur_2710_3987"/>
</filter>
<filter id="filter6_f_2710_3987" x="705" y="204" width="80" height="30" filterUnits="userSpaceOnUse" color-interpolation-filters="sRGB">
<feFlood flood-opacity="0" result="BackgroundImageFix"/>
<feBlend mode="normal" in="SourceGraphic" in2="BackgroundImageFix" result="shape"/>
<feGaussianBlur stdDeviation="2.5" result="effect1_foregroundBlur_2710_3987"/>
</filter>
<filter id="filter7_f_2710_3987" x="1388" y="593" width="80" height="30" filterUnits="userSpaceOnUse" color-interpolation-filters="sRGB">
<feFlood flood-opacity="0" result="BackgroundImageFix"/>
<feBlend mode="normal" in="SourceGraphic" in2="BackgroundImageFix" result="shape"/>
<feGaussianBlur stdDeviation="2.5" result="effect1_foregroundBlur_2710_3987"/>
</filter>
<filter id="filter8_f_2710_3987" x="1653" y="747" width="80" height="30" filterUnits="userSpaceOnUse" color-interpolation-filters="sRGB">
<feFlood flood-opacity="0" result="BackgroundImageFix"/>
<feBlend mode="normal" in="SourceGraphic" in2="BackgroundImageFix" result="shape"/>
<feGaussianBlur stdDeviation="2.5" result="effect1_foregroundBlur_2710_3987"/>
</filter>
<linearGradient id="paint0_linear_2710_3987" x1="435.703" y1="274.156" x2="373.25" y2="381.663" gradientUnits="userSpaceOnUse">
<stop offset="0.144416" stop-color="#C41818"/>
<stop offset="1" stop-color="#072B24"/>
</linearGradient>
<linearGradient id="paint1_linear_2710_3987" x1="894.703" y1="613.156" x2="832.25" y2="720.663" gradientUnits="userSpaceOnUse">
<stop offset="0.144416" stop-color="#C41818"/>
<stop offset="1" stop-color="#072B24"/>
</linearGradient>
<linearGradient id="paint2_linear_2710_3987" x1="1193.7" y1="714.156" x2="1131.25" y2="821.663" gradientUnits="userSpaceOnUse">
<stop offset="0.144416" stop-color="#C41818"/>
<stop offset="1" stop-color="#072B24"/>
</linearGradient>
<linearGradient id="paint3_linear_2710_3987" x1="1382.7" y1="826.156" x2="1320.25" y2="933.663" gradientUnits="userSpaceOnUse">
<stop offset="0.144416" stop-color="#C41818"/>
<stop offset="1" stop-color="#072B24"/>
</linearGradient>
<linearGradient id="paint4_linear_2710_3987" x1="696.703" y1="956.156" x2="634.25" y2="1063.66" gradientUnits="userSpaceOnUse">
<stop offset="0.144416" stop-color="#C41818"/>
<stop offset="1" stop-color="#072B24"/>
</linearGradient>
<linearGradient id="paint5_linear_2710_3987" x1="915.703" y1="1089.16" x2="853.25" y2="1196.66" gradientUnits="userSpaceOnUse">
<stop offset="0.144416" stop-color="#C41818"/>
<stop offset="1" stop-color="#072B24"/>
</linearGradient>
<linearGradient id="paint6_linear_2710_3987" x1="776.703" y1="86.1559" x2="714.25" y2="193.663" gradientUnits="userSpaceOnUse">
<stop offset="0.144416" stop-color="#C41818"/>
<stop offset="1" stop-color="#072B24"/>
</linearGradient>
<linearGradient id="paint7_linear_2710_3987" x1="1459.7" y1="475.156" x2="1397.25" y2="582.663" gradientUnits="userSpaceOnUse">
<stop offset="0.144416" stop-color="#C41818"/>
<stop offset="1" stop-color="#072B24"/>
</linearGradient>
<linearGradient id="paint8_linear_2710_3987" x1="1724.7" y1="629.156" x2="1662.25" y2="736.663" gradientUnits="userSpaceOnUse">
<stop offset="0.144416" stop-color="#C41818"/>
<stop offset="1" stop-color="#072B24"/>
</linearGradient>
</defs>
</svg>
