<svg width="1860" height="1310" viewBox="0 0 1860 1310" fill="none" xmlns="http://www.w3.org/2000/svg">
<path d="M1725.2 902.257L1625.8 958.957M1580.19 985.261L1625.8 958.957M1658.54 884.137L1756.77 940.252M1642.17 893.489L1740.4 949.604M1625.8 902.842L1724.03 958.957M1609.42 912.194L1707.65 968.309M1593.05 921.547L1691.28 977.662M1625.8 958.957L1674.91 987.014" stroke="white" stroke-width="3" stroke-linecap="round" stroke-linejoin="round"/>
<path d="M5 294.928L2.51985 290.587C0.961669 291.477 0 293.134 0 294.928C0 296.723 0.961669 298.379 2.51985 299.27L5 294.928ZM512.522 5L515.002 0.658473C513.465 -0.219491 511.579 -0.219491 510.042 0.658473L512.522 5ZM1855 771.906L1857.48 776.248C1859.04 775.358 1860 773.701 1860 771.906C1860 770.112 1859.04 768.455 1857.48 767.565L1855 771.906ZM921.814 1305L919.334 1309.34C920.871 1310.22 922.757 1310.22 924.294 1309.34L921.814 1305ZM332.434 968.309L329.953 963.968C328.395 964.858 327.434 966.515 327.434 968.309C327.434 970.104 328.395 971.761 329.953 972.651L332.434 968.309ZM758.097 725.144L760.578 729.485L768.177 725.144L760.578 720.802L758.097 725.144ZM7.48015 299.27L515.002 9.34153L510.042 0.658473L2.51985 290.587L7.48015 299.27ZM510.042 9.34153L1852.52 776.248L1857.48 767.565L515.002 0.658473L510.042 9.34153ZM1852.52 767.565L919.334 1300.66L924.294 1309.34L1857.48 776.248L1852.52 767.565ZM924.294 1300.66L334.914 963.968L329.953 972.651L919.334 1309.34L924.294 1300.66ZM334.914 972.651L760.578 729.485L755.617 720.802L329.953 963.968L334.914 972.651ZM760.578 720.802L7.48015 290.587L2.51985 299.27L755.617 729.485L760.578 720.802Z" fill="white"/>
<path d="M1805.89 912.194L1707.66 856.079L1511.2 968.309L1609.43 1024.42L1805.89 912.194Z" stroke="white" stroke-width="4" stroke-linejoin="round"/>
<path d="M1134.65 322.985L954.559 425.863M1232.88 379.1L1052.79 481.978" stroke="white" stroke-width="4" stroke-linecap="round" stroke-linejoin="round"/>
<path d="M1152.19 369.163L1052.79 425.863M1007.18 452.167L1052.79 425.863M1085.53 351.043L1183.76 407.158M1069.16 360.395L1167.39 416.511M1052.79 369.748L1151.02 425.863M1036.41 379.101L1134.64 435.216M1020.04 388.453L1118.27 444.568M1052.79 425.863L1101.9 453.921" stroke="white" stroke-width="3" stroke-linecap="round" stroke-linejoin="round"/>
<path d="M1069.16 472.626L970.93 416.511L954.559 425.863L1052.79 481.978L1069.16 472.626Z" fill="#D1D1D1"/>
<path d="M889.072 650.324L643.497 510.036L627.125 519.389L872.7 659.676L889.072 650.324Z" fill="#D1D1D1"/>
<path d="M1052.79 481.978L1183.76 556.798L1331.11 472.626L1200.13 397.806L1052.79 481.978Z" stroke="white" stroke-width="4" stroke-linejoin="round"/>
<path d="M823.584 351.043L954.557 425.863L1101.9 341.69L970.929 266.87L823.584 351.043Z" stroke="white" stroke-width="4" stroke-linejoin="round"/>
<path d="M512.522 5L5 294.928L512.522 584.856L872.699 379.101L823.584 351.043L970.929 266.87L512.522 5Z" stroke="white" stroke-width="4" stroke-linejoin="round"/>
<path d="M921.814 631.619L987.301 669.029L1069.16 622.267L1003.67 584.856L921.814 631.619Z" stroke="white" stroke-width="4" stroke-linejoin="round"/>
<path d="M921.814 1305L332.434 968.309L1003.67 584.856L1036.42 603.561L1151.02 538.094L1183.76 556.799L1331.11 472.626L1855 771.907L921.814 1305Z" stroke="white" stroke-width="4" stroke-linejoin="round"/>
<g filter="url(#filter0_f_2686_3442)">
<ellipse cx="1125" cy="926" rx="35" ry="10" fill="black" fill-opacity="0.25"/>
</g>
<path d="M1180 833.28C1180 863.81 1169.88 870.526 1125 926C1080.34 870.998 1070 863.81 1070 833.28C1070 802.75 1094.62 778 1125 778C1155.38 778 1180 802.75 1180 833.28Z" fill="url(#paint0_linear_2686_3442)"/>
<rect x="1087.07" y="795.465" width="75.8621" height="75.8974" rx="37.931" fill="white"/>
<path d="M1114.02 848.913L1113.98 844.229L1125.15 833.96C1128.05 831.188 1129.62 829.47 1129.62 826.999C1129.62 824.228 1127.54 822.509 1124.68 822.53C1121.76 822.509 1119.84 824.356 1119.87 827.343H1113.72C1113.7 821.263 1118.21 817.374 1124.76 817.374C1131.42 817.374 1135.85 821.177 1135.85 826.569C1135.85 830.114 1134.13 833.015 1127.73 838.815L1123 843.413V843.585H1136.28V848.913H1114.02Z" fill="#191F28"/>
<g filter="url(#filter1_f_2686_3442)">
<ellipse cx="509" cy="345" rx="35" ry="10" fill="black" fill-opacity="0.25"/>
</g>
<path d="M564 252.28C564 282.81 553.878 289.526 509 345C464.338 289.998 454 282.81 454 252.28C454 221.75 478.624 197 509 197C539.376 197 564 221.75 564 252.28Z" fill="url(#paint1_linear_2686_3442)"/>
<rect x="471.068" y="214.465" width="75.8621" height="75.8974" rx="37.931" fill="white"/>
<path d="M514.543 267.913H508.055V242.948H507.883L500.75 247.417V241.702L508.441 236.804H514.543V267.913Z" fill="#191F28"/>
<path d="M438.758 135.32V156.141H435.047V147.273H428.523V144.227H435.047V135.32H438.758ZM409.578 152.977C415.008 151.082 418.348 146.355 418.328 141.531V140.75H410.75V137.742H429.617V140.75H422.117V141.492C422.098 145.926 425.262 150.242 430.555 152.039L428.641 154.969C424.715 153.621 421.824 150.809 420.301 147.352C418.777 151.258 415.711 154.402 411.531 155.945L409.578 152.977ZM415.203 163.719C415.184 159.559 419.676 157.137 427.039 157.117C434.363 157.137 438.855 159.559 438.875 163.719C438.855 167.879 434.363 170.301 427.039 170.32C419.676 170.301 415.184 167.879 415.203 163.719ZM418.875 163.719C418.855 166.082 421.902 167.43 427.039 167.391C432.137 167.43 435.184 166.082 435.203 163.719C435.184 161.336 432.137 159.988 427.039 160.008C421.902 159.988 418.855 161.336 418.875 163.719ZM475.18 162.898V165.984H443.148V162.898H457.25V155.711H446.82V137.703H450.531V143.719H467.719V137.703H471.391V155.711H460.922V162.898H475.18ZM450.531 152.703H467.719V146.727H450.531V152.703ZM489.57 144.227C489.531 150.613 493.398 157.059 498.828 159.461L496.602 162.391C492.578 160.477 489.395 156.551 487.754 151.766C486.133 156.902 482.91 161.121 478.711 163.172L476.445 160.047C481.953 157.605 485.82 150.906 485.82 144.227V138.25H489.57V144.227ZM501.992 170.398V135.32H505.703V170.398H501.992ZM528.062 140.281C528.062 145.984 534.137 151.375 540.875 152.586L539.156 155.672C533.551 154.461 528.414 150.789 526.148 145.867C523.844 150.77 518.707 154.422 513.102 155.672L511.461 152.586C518.102 151.336 524.137 145.984 524.156 140.281V137.625H528.062V140.281ZM510.289 165.711V162.625H542.32V165.711H510.289ZM558.742 137.547V140.594H548.977V144.383H557.375V147.273H548.977V151.453C553.605 151.414 556.633 151.238 560.227 150.594L560.578 153.523C556.555 154.285 553.215 154.422 547.688 154.422H545.422V137.547H558.742ZM550.305 169.891V157.898H573.703V169.891H550.305ZM554.016 166.883H570.07V160.828H554.016V166.883ZM558.977 147V143.992H563.312V135.906H566.828V156.062H563.312V147H558.977ZM570.188 156.336V135.32H573.703V156.336H570.188ZM606.414 135.32V153.328H602.742V135.32H606.414ZM577.547 150.203C583.016 148.387 586.355 143.797 586.375 138.953V136.258H590.164V138.953C590.145 143.641 593.504 147.898 598.875 149.578L597.039 152.469C592.957 151.141 589.891 148.387 588.309 144.832C586.727 148.66 583.602 151.707 579.422 153.133L577.547 150.203ZM583.445 157.938V155.008H606.453V163.758H587.156V167H607.625V169.969H583.562V160.945H602.781V157.938H583.445Z" fill="white"/>
<path d="M921.219 331.656V343.375H925.438V345.875H921.219V359.656H918.25V331.656H921.219ZM898.938 352.031C901.141 352.031 903.703 352.031 906.375 351.953V349.109C903.219 348.641 901.156 346.734 901.188 344.031C901.156 340.875 903.891 338.797 907.875 338.781C911.844 338.797 914.609 340.875 914.625 344.031C914.609 346.734 912.516 348.656 909.344 349.109V351.844C911.828 351.719 914.328 351.516 916.656 351.188L916.844 353.375C910.781 354.453 904.234 354.516 899.406 354.5L898.938 352.031ZM899.469 337.344V334.969H906.375V331.719H909.344V334.969H916.25V337.344H899.469ZM903.969 344.031C903.969 345.812 905.531 346.922 907.875 346.906C910.219 346.922 911.766 345.812 911.781 344.031C911.766 342.234 910.219 341.094 907.875 341.094C905.531 341.094 903.969 342.234 903.969 344.031ZM935.919 336.812C935.903 340.375 938.388 343.625 942.638 344.969L941.231 347.281C938.044 346.266 935.716 344.156 934.481 341.5C933.263 344.562 930.809 346.984 927.45 348.156L925.919 345.781C930.294 344.344 932.934 340.734 932.95 336.844V336.062H926.794V333.656H941.95V336.062H935.919V336.812ZM929.7 354.344C929.7 351.062 933.278 349.141 939.106 349.156C944.872 349.141 948.388 351.062 948.388 354.344C948.388 357.672 944.872 359.609 939.106 359.594C933.278 359.609 929.7 357.672 929.7 354.344ZM932.669 354.344C932.653 356.219 935.059 357.266 939.106 357.25C943.122 357.266 945.497 356.219 945.481 354.344C945.497 352.516 943.122 351.484 939.106 351.5C935.059 351.484 932.653 352.516 932.669 354.344ZM945.169 348.469V331.656H948.138V338.594H952.2V341.031H948.138V348.469H945.169ZM976.181 331.656V346.062H973.244V331.656H976.181ZM953.088 343.562C957.463 342.109 960.134 338.438 960.15 334.562V332.406H963.181V334.562C963.166 338.312 965.853 341.719 970.15 343.062L968.681 345.375C965.416 344.312 962.963 342.109 961.697 339.266C960.431 342.328 957.931 344.766 954.588 345.906L953.088 343.562ZM957.806 349.75V347.406H976.213V354.406H960.775V357H977.15V359.375H957.9V352.156H973.275V349.75H957.806ZM981.537 348.375C981.569 342.484 983.241 337.594 986.162 333.406H989.225C987.069 336.5 985.006 342.797 985.006 348.375C985.006 353.969 987.069 360.266 989.225 363.375H986.162C983.241 359.172 981.569 354.281 981.537 348.375ZM998.081 333.75C1000.64 333.766 1002.74 335.219 1003.97 337.75H1010.89V331.656H1013.83V359.719H1010.89V348.969H1004.18C1002.97 351.781 1000.78 353.422 998.081 353.406C993.909 353.422 990.956 349.609 990.988 343.562C990.956 337.578 993.909 333.766 998.081 333.75ZM993.8 343.562C993.816 348.016 995.55 350.75 998.081 350.75C1000.61 350.75 1002.35 348.016 1002.36 343.562C1002.35 339.172 1000.61 336.422 998.081 336.406C995.55 336.422 993.816 339.172 993.8 343.562ZM1004.82 340.188C1005.03 341.219 1005.18 342.344 1005.18 343.562C1005.18 344.625 1005.08 345.609 1004.89 346.531H1010.89V340.188H1004.82ZM1025.03 348.375C1025 354.281 1023.33 359.172 1020.41 363.375H1017.34C1019.5 360.266 1021.56 353.969 1021.56 348.375C1021.56 342.797 1019.5 336.5 1017.34 333.406H1020.41C1023.33 337.594 1025 342.484 1025.03 348.375Z" fill="white"/>
<path d="M1150.22 462.656V474.375H1154.44V476.875H1150.22V490.656H1147.25V462.656H1150.22ZM1127.94 483.031C1130.14 483.031 1132.7 483.031 1135.38 482.953V480.109C1132.22 479.641 1130.16 477.734 1130.19 475.031C1130.16 471.875 1132.89 469.797 1136.88 469.781C1140.84 469.797 1143.61 471.875 1143.62 475.031C1143.61 477.734 1141.52 479.656 1138.34 480.109V482.844C1140.83 482.719 1143.33 482.516 1145.66 482.188L1145.84 484.375C1139.78 485.453 1133.23 485.516 1128.41 485.5L1127.94 483.031ZM1128.47 468.344V465.969H1135.38V462.719H1138.34V465.969H1145.25V468.344H1128.47ZM1132.97 475.031C1132.97 476.812 1134.53 477.922 1136.88 477.906C1139.22 477.922 1140.77 476.812 1140.78 475.031C1140.77 473.234 1139.22 472.094 1136.88 472.094C1134.53 472.094 1132.97 473.234 1132.97 475.031ZM1164.92 467.812C1164.9 471.375 1167.39 474.625 1171.64 475.969L1170.23 478.281C1167.04 477.266 1164.72 475.156 1163.48 472.5C1162.26 475.562 1159.81 477.984 1156.45 479.156L1154.92 476.781C1159.29 475.344 1161.93 471.734 1161.95 467.844V467.062H1155.79V464.656H1170.95V467.062H1164.92V467.812ZM1158.7 485.344C1158.7 482.062 1162.28 480.141 1168.11 480.156C1173.87 480.141 1177.39 482.062 1177.39 485.344C1177.39 488.672 1173.87 490.609 1168.11 490.594C1162.28 490.609 1158.7 488.672 1158.7 485.344ZM1161.67 485.344C1161.65 487.219 1164.06 488.266 1168.11 488.25C1172.12 488.266 1174.5 487.219 1174.48 485.344C1174.5 483.516 1172.12 482.484 1168.11 482.5C1164.06 482.484 1161.65 483.516 1161.67 485.344ZM1174.17 479.469V462.656H1177.14V469.594H1181.2V472.031H1177.14V479.469H1174.17ZM1205.18 462.656V477.062H1202.24V462.656H1205.18ZM1182.09 474.562C1186.46 473.109 1189.13 469.438 1189.15 465.562V463.406H1192.18V465.562C1192.17 469.312 1194.85 472.719 1199.15 474.062L1197.68 476.375C1194.42 475.312 1191.96 473.109 1190.7 470.266C1189.43 473.328 1186.93 475.766 1183.59 476.906L1182.09 474.562ZM1186.81 480.75V478.406H1205.21V485.406H1189.78V488H1206.15V490.375H1186.9V483.156H1202.28V480.75H1186.81ZM1210.54 479.375C1210.57 473.484 1212.24 468.594 1215.16 464.406H1218.22C1216.07 467.5 1214.01 473.797 1214.01 479.375C1214.01 484.969 1216.07 491.266 1218.22 494.375H1215.16C1212.24 490.172 1210.57 485.281 1210.54 479.375ZM1241.49 462.688V468.906H1245.58V471.375H1241.49V478.469H1238.52V462.688H1241.49ZM1220.77 476.562V464.062H1223.74V474.094C1227.53 474.062 1231.49 473.734 1235.8 472.875L1236.18 475.312C1231.46 476.266 1227.18 476.547 1223.05 476.562H1220.77ZM1223.55 490.281V479.938H1241.49V490.281H1223.55ZM1226.46 487.906H1238.61V482.25H1226.46V487.906ZM1254.03 479.375C1254 485.281 1252.33 490.172 1249.41 494.375H1246.34C1248.5 491.266 1250.56 484.969 1250.56 479.375C1250.56 473.797 1248.5 467.5 1246.34 464.406H1249.41C1252.33 468.594 1254 473.484 1254.03 479.375Z" fill="white"/>
<path d="M1059.14 728.781V733.508H1073.28V736.555H1041.36V733.508H1055.46V728.781H1059.14ZM1043 727.688C1049.33 727.043 1054.29 724.27 1054.8 720.891H1044.29V717.922H1070.43V720.891H1059.8C1060.33 724.25 1065.29 727.043 1071.64 727.688L1070.31 730.617C1064.23 729.914 1059.21 727.414 1057.3 723.723C1055.39 727.414 1050.41 729.914 1044.33 730.617L1043 727.688ZM1045.15 745.188C1045.15 741.262 1049.68 739.094 1057.3 739.094C1064.86 739.094 1069.35 741.262 1069.37 745.188C1069.35 749.094 1064.86 751.262 1057.3 751.242C1049.68 751.262 1045.15 749.094 1045.15 745.188ZM1048.9 745.188C1048.88 747.277 1051.89 748.43 1057.3 748.43C1062.63 748.43 1065.66 747.277 1065.66 745.188C1065.66 743.098 1062.63 741.965 1057.3 741.945C1051.89 741.965 1048.88 743.098 1048.9 745.188ZM1102.43 716.32V725.109H1107.51V728.234H1102.43V736.711H1098.72V716.32H1102.43ZM1074.97 722.727V719.758H1083.57V716.008H1087.28V719.758H1095.83V722.727H1074.97ZM1076.89 730.305C1076.87 726.574 1080.3 724.152 1085.4 724.172C1090.44 724.152 1093.88 726.574 1093.88 730.305C1093.88 734.035 1090.44 736.477 1085.4 736.438C1080.3 736.477 1076.87 734.035 1076.89 730.305ZM1080.05 750.891V738.156H1083.72V741.555H1098.72V738.156H1102.43V750.891H1080.05ZM1080.48 730.305C1080.44 732.395 1082.43 733.684 1085.4 733.703C1088.37 733.684 1090.36 732.395 1090.4 730.305C1090.36 728.254 1088.37 726.926 1085.4 726.945C1082.43 726.926 1080.44 728.254 1080.48 730.305ZM1083.72 747.922H1098.72V744.445H1083.72V747.922ZM1120.69 726.633C1120.67 732.16 1124.32 738.332 1129.64 740.852L1127.53 743.742C1123.6 741.867 1120.48 737.922 1118.89 733.352C1117.29 738.332 1114.01 742.648 1110.03 744.641L1107.84 741.711C1113.15 739.152 1117 732.551 1117.02 726.633V722.922H1109.13V719.836H1128.31V722.922H1120.69V726.633ZM1132.06 751.32V716.32H1135.77V730.188H1141.39V733.312H1135.77V751.32H1132.06ZM1174.11 744.016V747.141H1142.07V744.016H1150.82V737.844H1145.98V726.711H1166.53V721.828H1145.9V718.781H1170.2V729.719H1149.65V734.797H1171.02V737.844H1165.71V744.016H1174.11ZM1154.42 744.016H1162.07V737.844H1154.42V744.016ZM1204.63 716.32V734.328H1200.96V716.32H1204.63ZM1175.76 731.203C1181.23 729.387 1184.57 724.797 1184.59 719.953V717.258H1188.38V719.953C1188.36 724.641 1191.72 728.898 1197.09 730.578L1195.25 733.469C1191.17 732.141 1188.11 729.387 1186.52 725.832C1184.94 729.66 1181.82 732.707 1177.64 734.133L1175.76 731.203ZM1181.66 738.938V736.008H1204.67V744.758H1185.37V748H1205.84V750.969H1181.78V741.945H1201V738.938H1181.66Z" fill="white"/>
<path d="M972.612 638V615.375H986.8V618.344H976.05V625.188H986.05V628.125H976.05V635.031H986.925V638H972.612ZM998.562 614.312L991.281 641.406H988.312L995.594 614.312H998.562ZM1002.61 615.375L1008.89 633.781H1009.14L1015.42 615.375H1019.14L1010.98 638H1007.01L998.887 615.375H1002.61Z" fill="white"/>
<defs>
<filter id="filter0_f_2686_3442" x="1085" y="911" width="80" height="30" filterUnits="userSpaceOnUse" color-interpolation-filters="sRGB">
<feFlood flood-opacity="0" result="BackgroundImageFix"/>
<feBlend mode="normal" in="SourceGraphic" in2="BackgroundImageFix" result="shape"/>
<feGaussianBlur stdDeviation="2.5" result="effect1_foregroundBlur_2686_3442"/>
</filter>
<filter id="filter1_f_2686_3442" x="469" y="330" width="80" height="30" filterUnits="userSpaceOnUse" color-interpolation-filters="sRGB">
<feFlood flood-opacity="0" result="BackgroundImageFix"/>
<feBlend mode="normal" in="SourceGraphic" in2="BackgroundImageFix" result="shape"/>
<feGaussianBlur stdDeviation="2.5" result="effect1_foregroundBlur_2686_3442"/>
</filter>
<linearGradient id="paint0_linear_2686_3442" x1="1156.7" y1="793.156" x2="1094.25" y2="900.663" gradientUnits="userSpaceOnUse">
<stop offset="0.144416" stop-color="#C41818"/>
<stop offset="1" stop-color="#072B24"/>
</linearGradient>
<linearGradient id="paint1_linear_2686_3442" x1="540.703" y1="212.156" x2="478.25" y2="319.663" gradientUnits="userSpaceOnUse">
<stop offset="0.144416" stop-color="#C41818"/>
<stop offset="1" stop-color="#072B24"/>
</linearGradient>
</defs>
</svg>
