<svg width="60" height="61" viewBox="0 0 60 61" fill="none" xmlns="http://www.w3.org/2000/svg">
<path d="M45.0005 50.1045H32.5005V37.4545C37.9989 36.8398 43.0781 34.2207 46.7675 30.0978C50.4569 25.9749 52.4979 20.6371 52.5005 15.1045C52.5132 12.196 51.9436 9.31447 50.8255 6.62949C50.6962 6.32945 50.5094 6.05766 50.2755 5.82949L50.0005 5.62949C49.8409 5.49805 49.6644 5.38874 49.4755 5.30449C49.254 5.20187 49.0178 5.13439 48.7755 5.10449H48.5255H11.4755H11.2505C11.0025 5.11587 10.7578 5.1665 10.5255 5.25449C10.3437 5.36063 10.1684 5.4775 10.0005 5.60449L9.70054 5.82949C9.4667 6.05766 9.27984 6.32945 9.15054 6.62949C8.04101 9.31623 7.48001 12.1977 7.50054 15.1045C7.50317 20.6371 9.54418 25.9749 13.2336 30.0978C16.923 34.2207 22.0021 36.8398 27.5005 37.4545V50.1045H15.0005C14.3375 50.1045 13.7016 50.3679 13.2328 50.8367C12.7639 51.3056 12.5005 51.9415 12.5005 52.6045C12.5005 53.2675 12.7639 53.9034 13.2328 54.3723C13.7016 54.8411 14.3375 55.1045 15.0005 55.1045H45.0005C45.6636 55.1045 46.2995 54.8411 46.7683 54.3723C47.2372 53.9034 47.5005 53.2675 47.5005 52.6045C47.5005 51.9415 47.2372 51.3056 46.7683 50.8367C46.2995 50.3679 45.6636 50.1045 45.0005 50.1045ZM12.5005 15.1045C12.4959 13.4113 12.7401 11.7266 13.2255 10.1045H46.7755C47.2609 11.7266 47.5052 13.4113 47.5005 15.1045C47.5005 19.7458 45.6568 24.197 42.3749 27.4789C39.093 30.7607 34.6418 32.6045 30.0005 32.6045C25.3593 32.6045 20.9081 30.7607 17.6262 27.4789C14.3443 24.197 12.5005 19.7458 12.5005 15.1045Z" fill="#EFF1F3"/>
</svg>
