<svg width="68" height="84" viewBox="0 0 68 84" fill="none" xmlns="http://www.w3.org/2000/svg">
<path d="M29.24 48.12L21.845 40.725C21.2217 40.1017 20.4567 39.79 19.55 39.79C18.6433 39.79 17.85 40.13 17.17 40.81C16.5467 41.4333 16.235 42.2267 16.235 43.19C16.235 44.1533 16.5467 44.9467 17.17 45.57L26.86 55.26C27.4833 55.8833 28.2767 56.195 29.24 56.195C30.2033 56.195 30.9967 55.8833 31.62 55.26L50.915 35.965C51.5383 35.3417 51.85 34.5767 51.85 33.67C51.85 32.7633 51.51 31.97 50.83 31.29C50.2067 30.6667 49.4133 30.355 48.45 30.355C47.4867 30.355 46.6933 30.6667 46.07 31.29L29.24 48.12ZM34 76C29.2967 76 24.8767 75.1069 20.74 73.3208C16.6033 71.5369 13.005 69.115 9.945 66.055C6.885 62.995 4.46307 59.3967 2.6792 55.26C0.893067 51.1233 0 46.7033 0 42C0 37.2967 0.893067 32.8767 2.6792 28.74C4.46307 24.6033 6.885 21.005 9.945 17.945C13.005 14.885 16.6033 12.4619 20.74 10.6758C24.8767 8.89193 29.2967 8 34 8C38.7033 8 43.1233 8.89193 47.26 10.6758C51.3967 12.4619 54.995 14.885 58.055 17.945C61.115 21.005 63.5369 24.6033 65.3208 28.74C67.1069 32.8767 68 37.2967 68 42C68 46.7033 67.1069 51.1233 65.3208 55.26C63.5369 59.3967 61.115 62.995 58.055 66.055C54.995 69.115 51.3967 71.5369 47.26 73.3208C43.1233 75.1069 38.7033 76 34 76Z" fill="#6B7684"/>
</svg>
