<svg width="104" height="104" viewBox="0 0 104 104" fill="none" xmlns="http://www.w3.org/2000/svg">
<path d="M77.9994 8.66699L95.3327 26.0003M8.66602 95.3337L14.1971 75.0531C14.5579 73.7299 14.7384 73.0684 15.0154 72.4514C15.2613 71.9037 15.5635 71.3829 15.9171 70.8976C16.3153 70.3511 16.8002 69.8662 17.7699 68.8964L62.548 24.1183C63.4061 23.2603 63.8351 22.8312 64.3298 22.6705C64.765 22.5291 65.2337 22.5291 65.6689 22.6705C66.1636 22.8312 66.5926 23.2603 67.4507 24.1183L79.8814 36.549C80.7394 37.4071 81.1684 37.8361 81.3292 38.3308C81.4706 38.766 81.4706 39.2347 81.3292 39.6699C81.1684 40.1646 80.7394 40.5936 79.8814 41.4516L35.1033 86.2297C34.1335 87.1995 33.6486 87.6844 33.102 88.0826C32.6167 88.4362 32.096 88.7384 31.5482 88.9843C30.9313 89.2613 30.2698 89.4417 28.9466 89.8026L8.66602 95.3337Z" stroke="#4480F3" stroke-width="8.66667" stroke-linecap="round" stroke-linejoin="round"/>
</svg>
