<?xml version="1.0" encoding="utf-8"?>
<!-- Generator: Adobe Illustrator 24.0.1, SVG Export Plug-In . SVG Version: 6.00 Build 0)  -->
<svg version="1.1" id="레이어_1" xmlns="http://www.w3.org/2000/svg" xmlns:xlink="http://www.w3.org/1999/xlink" x="0px"
	 y="0px" viewBox="0 0 104 105" style="enable-background:new 0 0 104 105;" xml:space="preserve">
<style type="text/css">
	.st0{fill:#ADB5BD;}
	.st1{fill:none;stroke:#4480F3;stroke-width:5.0913;stroke-linecap:round;stroke-linejoin:round;}
</style>
<circle class="st0" cx="52.5" cy="52.5" r="48"/>
<path class="st1" d="M67.3,27.1l10.2,10.2 M26.5,78l3.2-11.9c0.2-0.8,0.3-1.2,0.5-1.5c0.1-0.3,0.3-0.6,0.5-0.9
	c0.2-0.3,0.5-0.6,1.1-1.2l26.3-26.3c0.5-0.5,0.8-0.8,1-0.9c0.3-0.1,0.5-0.1,0.8,0c0.3,0.1,0.5,0.3,1,0.9l7.3,7.3
	c0.5,0.5,0.8,0.8,0.9,1c0.1,0.3,0.1,0.5,0,0.8c-0.1,0.3-0.3,0.5-0.9,1L42.1,72.7c-0.6,0.6-0.9,0.9-1.2,1.1c-0.3,0.2-0.6,0.4-0.9,0.5
	c-0.4,0.2-0.8,0.3-1.5,0.5L26.5,78z"/>
</svg>
