<svg width="69" height="84" viewBox="0 0 69 84" fill="none" xmlns="http://www.w3.org/2000/svg">
<path d="M29.74 48.12L22.345 40.725C21.7217 40.1017 20.9567 39.79 20.05 39.79C19.1433 39.79 18.35 40.13 17.67 40.81C17.0467 41.4333 16.735 42.2267 16.735 43.19C16.735 44.1533 17.0467 44.9467 17.67 45.57L27.36 55.26C27.9833 55.8833 28.7767 56.195 29.74 56.195C30.7033 56.195 31.4967 55.8833 32.12 55.26L51.415 35.965C52.0383 35.3417 52.35 34.5767 52.35 33.67C52.35 32.7633 52.01 31.97 51.33 31.29C50.7067 30.6667 49.9133 30.355 48.95 30.355C47.9867 30.355 47.1933 30.6667 46.57 31.29L29.74 48.12ZM34.5 76C29.7967 76 25.3767 75.1069 21.24 73.3208C17.1033 71.5369 13.505 69.115 10.445 66.055C7.385 62.995 4.96307 59.3967 3.1792 55.26C1.39307 51.1233 0.5 46.7033 0.5 42C0.5 37.2967 1.39307 32.8767 3.1792 28.74C4.96307 24.6033 7.385 21.005 10.445 17.945C13.505 14.885 17.1033 12.4619 21.24 10.6758C25.3767 8.89193 29.7967 8 34.5 8C39.2033 8 43.6233 8.89193 47.76 10.6758C51.8967 12.4619 55.495 14.885 58.555 17.945C61.615 21.005 64.0369 24.6033 65.8208 28.74C67.6069 32.8767 68.5 37.2967 68.5 42C68.5 46.7033 67.6069 51.1233 65.8208 55.26C64.0369 59.3967 61.615 62.995 58.555 66.055C55.495 69.115 51.8967 71.5369 47.76 73.3208C43.6233 75.1069 39.2033 76 34.5 76Z" fill="#ADB5BD"/>
</svg>
