<svg width="68" height="84" viewBox="0 0 68 84" fill="none" xmlns="http://www.w3.org/2000/svg">
<path d="M29.2478 48.12L21.8528 40.725C21.2295 40.1017 20.4645 39.79 19.5578 39.79C18.6511 39.79 17.8578 40.13 17.1778 40.81C16.5545 41.4333 16.2428 42.2267 16.2428 43.19C16.2428 44.1533 16.5545 44.9467 17.1778 45.57L26.8678 55.26C27.4911 55.8833 28.2845 56.195 29.2478 56.195C30.2111 56.195 31.0045 55.8833 31.6278 55.26L50.9228 35.965C51.5462 35.3417 51.8578 34.5767 51.8578 33.67C51.8578 32.7633 51.5178 31.97 50.8378 31.29C50.2145 30.6667 49.4211 30.355 48.4578 30.355C47.4945 30.355 46.7011 30.6667 46.0778 31.29L29.2478 48.12ZM34.0078 76C29.3045 76 24.8845 75.1069 20.7478 73.3208C16.6111 71.5369 13.0128 69.115 9.95281 66.055C6.89281 62.995 4.47088 59.3967 2.68701 55.26C0.90088 51.1233 0.0078125 46.7033 0.0078125 42C0.0078125 37.2967 0.90088 32.8767 2.68701 28.74C4.47088 24.6033 6.89281 21.005 9.95281 17.945C13.0128 14.885 16.6111 12.4619 20.7478 10.6758C24.8845 8.89193 29.3045 8 34.0078 8C38.7111 8 43.1311 8.89193 47.2678 10.6758C51.4045 12.4619 55.0028 14.885 58.0628 17.945C61.1228 21.005 63.5447 24.6033 65.3286 28.74C67.1147 32.8767 68.0078 37.2967 68.0078 42C68.0078 46.7033 67.1147 51.1233 65.3286 55.26C63.5447 59.3967 61.1228 62.995 58.0628 66.055C55.0028 69.115 51.4045 71.5369 47.2678 73.3208C43.1311 75.1069 38.7111 76 34.0078 76Z" fill="#ADB5BD"/>
</svg>
