<?xml version="1.0" encoding="utf-8"?>
<!-- Generator: Adobe Illustrator 24.0.1, SVG Export Plug-In . SVG Version: 6.00 Build 0)  -->
<svg version="1.1" id="레이어_1" xmlns="http://www.w3.org/2000/svg" xmlns:xlink="http://www.w3.org/1999/xlink" x="0px"
	 y="0px" viewBox="0 0 104 105" style="enable-background:new 0 0 104 105;" xml:space="preserve">
<style type="text/css">
	.st0{fill:#ADB5BD;}
	.st1{fill:none;stroke:#FFFFFF;stroke-width:5.799;stroke-linecap:round;stroke-linejoin:round;}
</style>
<circle class="st0" cx="52" cy="52.5" r="48"/>
<path class="st1" d="M43.3,61.2h17.4 M78.1,40.9H25.9 M63.6,23.5v8.7 M40.4,23.5v8.7 M39.8,81.5h24.4c4.9,0,7.3,0,9.2-0.9
	c1.6-0.8,3-2.2,3.8-3.8c0.9-1.9,0.9-4.3,0.9-9.2V43.3c0-4.9,0-7.3-0.9-9.2c-0.8-1.6-2.2-3-3.8-3.8c-1.9-0.9-4.3-0.9-9.2-0.9H39.8
	c-4.9,0-7.3,0-9.2,0.9c-1.6,0.8-3,2.2-3.8,3.8c-0.9,1.9-0.9,4.3-0.9,9.2v24.4c0,4.9,0,7.3,0.9,9.2c0.8,1.6,2.2,3,3.8,3.8
	C32.5,81.5,35,81.5,39.8,81.5z"/>
</svg>
