<svg width="60" height="61" viewBox="0 0 60 61" fill="none" xmlns="http://www.w3.org/2000/svg">
<path d="M54.9969 27.7295C54.9969 27.4545 54.9969 27.1795 54.9969 26.9045L54.7719 25.4045L54.5469 24.4295C54.5469 24.0045 54.3469 23.5795 54.2219 23.1545C54.0969 22.7295 54.0219 22.4795 53.8969 22.1545C53.8271 21.958 53.7686 21.7577 53.7219 21.5545C53.7219 21.5545 53.7219 21.5545 53.7219 21.4295C52.456 18.062 50.4851 15.004 47.9412 12.4601C45.3974 9.9163 42.3393 7.94541 38.9719 6.67949C38.9719 6.67949 38.9719 6.67949 38.8469 6.67949L38.2719 6.50449L37.2219 6.17949C36.8469 6.17949 36.4469 5.97949 36.0719 5.87949L34.9219 5.62949L33.7719 5.45449C33.3719 5.45449 32.9969 5.45449 32.5719 5.30449C32.1469 5.15449 31.6969 5.30449 31.2719 5.30449L29.9969 5.10449H29.0219C28.5969 5.10449 28.1469 5.10449 27.7219 5.10449C27.2969 5.10449 26.9219 5.10449 26.5219 5.25449L25.3719 5.42949L24.2219 5.67949C23.8469 5.67949 23.4469 5.85449 23.0719 5.97949L22.0219 6.30449L21.4469 6.47949C21.4469 6.47949 21.4469 6.47949 21.3219 6.47949C17.9544 7.74541 14.8964 9.7163 12.3525 12.2601C9.80868 14.804 7.83779 17.862 6.57188 21.2295C6.57188 21.2295 6.57188 21.2295 6.57188 21.3545C6.52512 21.5577 6.46669 21.758 6.39688 21.9545C6.39688 22.2795 6.17188 22.6045 6.07188 22.9545C5.97188 23.3045 5.84688 23.8045 5.74688 24.2295L5.52188 25.2045L5.29688 26.7045C5.29688 26.9795 5.29688 27.2545 5.29688 27.5295C5.29688 28.3045 5.29688 29.1045 5.29688 29.9045C5.29688 30.7045 5.29688 31.5045 5.29688 32.2795C5.29688 32.5545 5.29688 32.8295 5.29688 33.1045L5.52188 34.6045L5.74688 35.5795C5.74688 36.0045 5.94688 36.4295 6.07188 36.8545C6.19688 37.2795 6.27188 37.5295 6.39688 37.8545C6.46669 38.051 6.52512 38.2513 6.57188 38.4545C6.57663 38.5127 6.57663 38.5713 6.57188 38.6295C7.82678 41.9934 9.79152 45.0475 12.3324 47.5841C14.8734 50.1208 17.9308 52.0803 21.2969 53.3295C21.2969 53.3295 21.2969 53.3295 21.4219 53.3295L22.0219 53.5045L23.0219 53.8295L24.2969 54.1545L25.2719 54.3795L26.7719 54.6045H27.5969C28.3719 54.6045 29.1719 54.7295 29.9719 54.7295C30.7719 54.7295 31.5719 54.7295 32.3469 54.6045H33.1719L34.6719 54.3795L35.6469 54.1545L36.9219 53.8295L37.9219 53.5045L38.5219 53.3295C38.5219 53.3295 38.5219 53.3295 38.6469 53.3295C42.0129 52.0803 45.0704 50.1208 47.6113 47.5841C50.1522 45.0475 52.117 41.9934 53.3719 38.6295C53.3671 38.5713 53.3671 38.5127 53.3719 38.4545C53.3719 38.2545 53.4969 38.0545 53.5469 37.8545C53.5969 37.6545 53.7719 37.2045 53.8719 36.8545C53.9719 36.5045 54.0969 36.0045 54.1969 35.5795L54.4219 34.6045L54.6469 33.1045C54.6469 32.8295 54.6469 32.5545 54.6469 32.2795C54.6469 31.5045 54.7719 30.7045 54.7719 29.9045C54.7719 29.1045 54.9969 28.5045 54.9969 27.7295ZM39.2469 12.3295C42.9629 14.2386 45.9877 17.2635 47.8969 20.9795L40.7469 23.4795C39.7104 21.8183 38.3081 20.4159 36.6469 19.3795L39.2469 12.3295ZM25.8469 10.5795C26.3719 10.4545 26.8719 10.3795 27.3719 10.3045H27.9719C29.4013 10.1545 30.8425 10.1545 32.2719 10.3045H32.8719C33.3719 10.3045 33.8719 10.4545 34.3969 10.5795H34.5469L32.0469 17.7295C31.3688 17.6253 30.6826 17.5834 29.9969 17.6045C29.3854 17.6037 28.775 17.6539 28.1719 17.7545L25.6719 10.6045L25.8469 10.5795ZM20.9969 12.3295L23.4969 19.4795C21.8266 20.5129 20.4155 21.9155 19.3719 23.5795L12.2219 21.0795C14.1141 17.3264 17.1407 14.2648 20.8719 12.3295H20.9969ZM10.4719 34.3795C10.3521 33.8862 10.2686 33.3849 10.2219 32.8795C10.2219 32.6545 10.2219 32.4545 10.2219 32.2545C10.0552 30.826 10.0552 29.383 10.2219 27.9545C10.2219 27.7545 10.2219 27.5545 10.2219 27.3295C10.2686 26.8241 10.3521 26.3227 10.4719 25.8295C10.4719 25.8295 10.4719 25.8295 10.4719 25.6795L17.6219 28.1795C17.4218 29.3879 17.4218 30.621 17.6219 31.8295L10.4719 34.3295C10.4719 34.3295 10.4719 34.4295 10.4719 34.3795ZM20.8719 47.8795C17.1559 45.9704 14.131 42.9455 12.2219 39.2295L19.3719 36.7295C20.4083 38.3907 21.8107 39.793 23.4719 40.8295L20.8719 47.8795ZM34.2719 49.6295C33.7469 49.7545 33.2469 49.8295 32.7469 49.9045H32.1469C30.7175 50.0545 29.2763 50.0545 27.8469 49.9045H27.2469C26.7469 49.9045 26.2469 49.7545 25.7219 49.6295H25.5719L28.0719 42.4795C29.2803 42.6795 30.5134 42.6795 31.7219 42.4795L34.2219 49.6295H34.2719ZM32.5969 37.1295C32.1719 37.2795 31.7469 37.3795 31.3469 37.4795C30.5206 37.6334 29.6731 37.6334 28.8469 37.4795C28.4469 37.4795 28.0219 37.2795 27.5969 37.1295C26.5417 36.7651 25.5812 36.1698 24.7854 35.387C23.9896 34.6041 23.3785 33.6535 22.9969 32.6045C22.8456 32.1898 22.7285 31.7633 22.6469 31.3295C22.487 30.5038 22.487 29.6552 22.6469 28.8295C22.7229 28.4133 22.8316 28.0037 22.9719 27.6045C23.3488 26.5678 23.9497 25.627 24.7319 24.8492C25.514 24.0714 26.4581 23.4757 27.4969 23.1045C27.9219 22.9545 28.3469 22.8545 28.7469 22.7545C29.5731 22.6006 30.4207 22.6006 31.2469 22.7545C31.6469 22.7545 32.0719 22.9545 32.4969 23.1045C33.531 23.4788 34.4702 24.0759 35.2478 24.8535C36.0255 25.6312 36.6226 26.5704 36.9969 27.6045C37.1482 28.0192 37.2653 28.4456 37.3469 28.8795C37.5068 29.7052 37.5068 30.5538 37.3469 31.3795C37.2653 31.8133 37.1482 32.2398 36.9969 32.6545C36.6164 33.6794 36.0166 34.6087 35.2392 35.3774C34.4619 36.1461 33.5259 36.7355 32.4969 37.1045L32.5969 37.1295ZM39.1219 47.9045L36.6219 40.7545C38.2831 39.718 39.6854 38.3157 40.7219 36.6545L47.8719 39.1545C45.9493 42.9135 42.8864 45.9677 39.1219 47.8795V47.9045ZM49.9969 32.2545C49.9969 32.4545 49.9969 32.6545 49.9969 32.8795C49.9502 33.3849 49.8666 33.8862 49.7469 34.3795C49.7469 34.3795 49.7469 34.3795 49.7469 34.5295L42.5969 32.0295C42.7969 30.821 42.7969 29.5879 42.5969 28.3795L49.7469 25.8795C49.7469 25.8795 49.7469 25.8795 49.7469 26.0295C49.8666 26.5227 49.9502 27.0241 49.9969 27.5295C49.9969 27.7545 49.9969 27.9545 49.9969 28.1545C50.1636 29.583 50.1636 31.026 49.9969 32.4545V32.2545Z" fill="#EFF1F3"/>
</svg>
