<svg width="1860" height="1310" viewBox="0 0 1860 1310" fill="none" xmlns="http://www.w3.org/2000/svg">
<path d="M1725.2 902.257L1625.8 958.957M1580.19 985.261L1625.8 958.957M1658.54 884.137L1756.77 940.252M1642.17 893.489L1740.4 949.604M1625.8 902.842L1724.03 958.957M1609.42 912.194L1707.65 968.309M1593.05 921.547L1691.28 977.662M1625.8 958.957L1674.91 987.014" stroke="white" stroke-width="3" stroke-linecap="round" stroke-linejoin="round"/>
<path d="M512.522 5L5 294.928L758.097 725.144L332.434 968.309L921.814 1305L1855 771.906L512.522 5Z" stroke="white" stroke-width="10" stroke-linejoin="round"/>
<path d="M1805.89 912.194L1707.66 856.079L1511.2 968.309L1609.43 1024.42L1805.89 912.194Z" stroke="white" stroke-width="4" stroke-linejoin="round"/>
<path d="M1134.65 322.985L954.559 425.863M1232.88 379.1L1052.79 481.978" stroke="white" stroke-width="4" stroke-linecap="round" stroke-linejoin="round"/>
<path d="M1152.19 369.163L1052.79 425.863M1007.18 452.167L1052.79 425.863M1085.53 351.043L1183.76 407.158M1069.16 360.395L1167.39 416.511M1052.79 369.748L1151.02 425.863M1036.41 379.101L1134.64 435.216M1020.04 388.453L1118.27 444.568M1052.79 425.863L1101.9 453.921" stroke="white" stroke-width="3" stroke-linecap="round" stroke-linejoin="round"/>
<path d="M1069.16 472.626L970.93 416.511L954.559 425.863L1052.79 481.978L1069.16 472.626Z" fill="#D1D1D1"/>
<path d="M889.072 650.324L643.497 510.036L627.125 519.389L872.7 659.676L889.072 650.324Z" fill="#D1D1D1"/>
<path d="M1052.79 481.978L1183.76 556.798L1331.11 472.626L1200.13 397.806L1052.79 481.978Z" stroke="white" stroke-width="4" stroke-linejoin="round"/>
<path d="M823.584 351.043L954.557 425.863L1101.9 341.69L970.929 266.87L823.584 351.043Z" stroke="white" stroke-width="4" stroke-linejoin="round"/>
<path d="M512.522 5L5 294.928L512.522 584.856L872.699 379.101L823.584 351.043L970.929 266.87L512.522 5Z" stroke="white" stroke-width="4" stroke-linejoin="round"/>
<path d="M921.814 631.619L987.301 669.029L1069.16 622.267L1003.67 584.856L921.814 631.619Z" stroke="white" stroke-width="4" stroke-linejoin="round"/>
<path d="M921.814 1305L332.434 968.309L1003.67 584.856L1036.42 603.561L1151.02 538.094L1183.76 556.799L1331.11 472.626L1855 771.907L921.814 1305Z" stroke="white" stroke-width="4" stroke-linejoin="round"/>
</svg>
