<svg width="96" height="96" viewBox="0 0 96 96" fill="none" xmlns="http://www.w3.org/2000/svg">
<path d="M60.3188 50.3668C63.5868 47.7956 65.9721 44.2698 67.1429 40.2799C68.3138 36.29 68.2119 32.0343 66.8514 28.105C65.491 24.1757 62.9397 20.7681 59.5524 18.3563C56.1651 15.9445 52.1103 14.6484 47.9521 14.6484C43.794 14.6484 39.7392 15.9445 36.3519 18.3563C32.9646 20.7681 30.4133 24.1757 29.0528 28.105C27.6924 32.0343 27.5905 36.29 28.7613 40.2799C29.9322 44.2698 32.3175 47.7956 35.5855 50.3668C29.9857 52.6102 25.0998 56.3313 21.4484 61.1331C17.7971 65.935 15.5173 71.6378 14.8521 77.6334C14.804 78.0712 14.8425 78.5141 14.9656 78.937C15.0886 79.3598 15.2937 79.7543 15.5692 80.0978C16.1255 80.7917 16.9347 81.2362 17.8188 81.3334C18.7029 81.4307 19.5893 81.1727 20.2832 80.6164C20.9771 80.06 21.4216 79.2508 21.5188 78.3668C22.2508 71.8507 25.3578 65.8328 30.2462 61.4627C35.1346 57.0927 41.4618 54.6769 48.0188 54.6769C54.5758 54.6769 60.903 57.0927 65.7914 61.4627C70.6798 65.8328 73.7869 71.8507 74.5188 78.3668C74.6094 79.1858 75.0003 79.9423 75.6158 80.4901C76.2314 81.038 77.0281 81.3384 77.8521 81.3334H78.2188C79.0926 81.2329 79.8912 80.7911 80.4407 80.1043C80.9901 79.4174 81.2459 78.5413 81.1521 77.6668C80.4838 71.6541 78.1917 65.9367 74.5216 61.1274C70.8516 56.3182 65.9418 52.5984 60.3188 50.3668ZM47.9521 48.0001C45.3151 48.0001 42.7372 47.2181 40.5445 45.753C38.3519 44.2879 36.6429 42.2056 35.6337 39.7692C34.6246 37.3329 34.3605 34.652 34.875 32.0656C35.3895 29.4791 36.6593 27.1034 38.524 25.2387C40.3887 23.374 42.7645 22.1041 45.3509 21.5896C47.9374 21.0752 50.6182 21.3392 53.0546 22.3484C55.4909 23.3575 57.5733 25.0665 59.0384 27.2592C60.5035 29.4518 61.2855 32.0297 61.2855 34.6668C61.2855 38.203 59.8807 41.5944 57.3802 44.0949C54.8797 46.5953 51.4884 48.0001 47.9521 48.0001Z" fill="#8B95A1"/>
</svg>
