<svg width="1850" height="1300" viewBox="0 0 1850 1300" fill="none" xmlns="http://www.w3.org/2000/svg">
<path d="M1720.2 897.257L1620.8 953.957M1653.54 879.137L1751.77 935.252M1637.17 888.489L1735.4 944.604M1620.8 897.842L1719.03 953.957M1604.42 907.194L1702.65 963.309M1588.05 916.547L1686.28 972.662M1620.8 953.957L1669.91 982.014M1620.8 953.957L1588.05 972.842" stroke="white" stroke-width="3" stroke-linecap="round" stroke-linejoin="round"/>
<path d="M507.522 0L0 289.928L753.097 720.144L327.434 963.309L916.814 1300L1850 766.906L507.522 0Z" stroke="white" stroke-width="10" stroke-linejoin="round"/>
<path d="M1800.88 907.194L1702.65 851.079L1506.19 963.309L1604.42 1019.42L1800.88 907.194Z" stroke="white" stroke-width="4" stroke-linejoin="round"/>
<path d="M1129.65 317.985L949.558 420.863M1227.88 374.1L1047.79 476.978" stroke="white" stroke-width="4" stroke-linecap="round" stroke-linejoin="round"/>
<path d="M1147.19 364.163L1047.79 420.863M1080.53 346.043L1178.76 402.158M1064.16 355.395L1162.39 411.511M1047.79 364.748L1146.02 420.863M1031.42 374.101L1129.65 430.216M1015.04 383.453L1113.27 439.568M1047.79 420.863L1096.9 448.921M1047.79 420.863L1015.36 439.568" stroke="white" stroke-width="3" stroke-linecap="round" stroke-linejoin="round"/>
<path d="M1064.16 467.626L965.929 411.511L949.558 420.863L1047.79 476.978L1064.16 467.626Z" fill="white" fill-opacity="0.5"/>
<path d="M884.071 645.324L638.496 505.036L622.124 514.389L867.699 654.676L884.071 645.324Z" fill="white" fill-opacity="0.5"/>
<path d="M916.814 626.619L753.097 720.144L654.867 776.259L785.841 851.08L1047.79 701.439L916.814 626.619Z" stroke="white" stroke-width="4" stroke-linejoin="round"/>
<path d="M1146.02 944.604L1342.48 1056.83L1637.17 888.489L1440.71 776.259L1146.02 944.604Z" stroke="white" stroke-width="4" stroke-linejoin="round"/>
<path d="M1506.19 738.848L1702.65 851.079L1850 766.906L1653.54 654.676L1506.19 738.848Z" stroke="white" stroke-width="4" stroke-linejoin="round"/>
<path d="M1047.79 476.978L1178.76 551.798L1326.11 467.626L1195.13 392.806L1047.79 476.978Z" stroke="white" stroke-width="4" stroke-linejoin="round"/>
<path d="M818.584 346.043L949.557 420.863L1096.9 336.69L965.929 261.87L818.584 346.043Z" stroke="white" stroke-width="4" stroke-linejoin="round"/>
<path d="M1178.76 551.799L1506.19 738.849L1653.54 654.676L1326.11 467.626L1178.76 551.799Z" stroke="white" stroke-width="4" stroke-linejoin="round"/>
<path d="M360.177 84.1727L818.584 346.043L965.929 261.871L507.522 0L360.177 84.1727Z" stroke="white" stroke-width="4" stroke-linejoin="round"/>
<path d="M360.177 84.1729L0 289.928L507.522 579.856L785.841 420.863L589.381 308.633L671.239 261.871L360.177 84.1729Z" stroke="white" stroke-width="4" stroke-linejoin="round"/>
<path d="M949.558 832.375L1146.02 944.605L1440.71 776.26L1244.25 664.029L949.558 832.375Z" stroke="white" stroke-width="4" stroke-linejoin="round"/>
<path d="M916.814 626.618L982.301 664.028L1064.16 617.266L998.673 579.855L916.814 626.618Z" stroke="white" stroke-width="4" stroke-linejoin="round"/>
<path d="M327.434 963.309L654.867 776.259L1047.79 1000.72L720.354 1187.77L327.434 963.309Z" stroke="white" stroke-width="4" stroke-linejoin="round"/>
<path d="M916.815 1300L720.354 1187.77L1047.79 1000.72L1244.25 1112.95L916.815 1300Z" stroke="white" stroke-width="4" stroke-linejoin="round"/>
</svg>
