<svg width="1860" height="1314" viewBox="0 0 1860 1314" fill="none" xmlns="http://www.w3.org/2000/svg">
<path d="M1725.2 906.257L1625.8 962.957M1658.54 888.137L1756.77 944.252M1642.17 897.489L1740.4 953.604M1625.8 906.842L1724.03 962.957M1609.42 916.194L1707.65 972.309M1593.05 925.547L1691.28 981.662M1625.8 962.957L1674.91 991.014M1625.8 962.957L1593.05 981.842" stroke="white" stroke-width="3" stroke-linecap="round" stroke-linejoin="round"/>
<path d="M512.522 9L5 298.928L758.097 729.144L332.434 972.309L921.814 1309L1855 775.906L512.522 9Z" stroke="white" stroke-width="10" stroke-linejoin="round"/>
<path d="M1805.88 916.194L1707.65 860.079L1511.19 972.309L1609.42 1028.42L1805.88 916.194Z" stroke="white" stroke-width="4" stroke-linejoin="round"/>
<path d="M1134.65 326.985L954.558 429.863M1232.88 383.1L1052.79 485.978" stroke="white" stroke-width="4" stroke-linecap="round" stroke-linejoin="round"/>
<path d="M1152.19 373.163L1052.79 429.863M1085.53 355.043L1183.76 411.158M1069.16 364.395L1167.39 420.511M1052.79 373.748L1151.02 429.863M1036.42 383.101L1134.65 439.216M1020.04 392.453L1118.27 448.568M1052.79 429.863L1101.9 457.921M1052.79 429.863L1020.36 448.568" stroke="white" stroke-width="3" stroke-linecap="round" stroke-linejoin="round"/>
<path d="M1069.16 476.626L970.929 420.511L954.558 429.863L1052.79 485.978L1069.16 476.626Z" fill="white" fill-opacity="0.5"/>
<path d="M889.071 654.324L643.496 514.036L627.124 523.389L872.699 663.676L889.071 654.324Z" fill="white" fill-opacity="0.5"/>
<path d="M921.814 635.619L758.097 729.144L659.867 785.259L790.841 860.08L1052.79 710.439L921.814 635.619Z" stroke="white" stroke-width="4" stroke-linejoin="round"/>
<path d="M1151.02 953.604L1347.48 1065.83L1642.17 897.489L1445.71 785.259L1151.02 953.604Z" stroke="white" stroke-width="4" stroke-linejoin="round"/>
<path d="M1511.19 747.848L1707.65 860.079L1855 775.906L1658.54 663.676L1511.19 747.848Z" stroke="white" stroke-width="4" stroke-linejoin="round"/>
<path d="M1052.79 485.978L1183.76 560.798L1331.11 476.626L1200.13 401.806L1052.79 485.978Z" stroke="white" stroke-width="4" stroke-linejoin="round"/>
<path d="M823.584 355.043L954.557 429.863L1101.9 345.69L970.929 270.87L823.584 355.043Z" stroke="white" stroke-width="4" stroke-linejoin="round"/>
<path d="M1183.76 560.799L1511.19 747.849L1658.54 663.676L1331.11 476.626L1183.76 560.799Z" stroke="white" stroke-width="4" stroke-linejoin="round"/>
<path d="M365.177 93.1727L823.584 355.043L970.929 270.871L512.522 9L365.177 93.1727Z" stroke="white" stroke-width="4" stroke-linejoin="round"/>
<path d="M365.177 93.1729L5 298.928L512.522 588.856L790.841 429.863L594.381 317.633L676.239 270.871L365.177 93.1729Z" stroke="white" stroke-width="4" stroke-linejoin="round"/>
<mask id="mask0_2710_3987" style="mask-type:alpha" maskUnits="userSpaceOnUse" x="952" y="671" width="496" height="285">
<path d="M954.558 841.375L1151.02 953.605L1445.71 785.26L1249.25 673.029L954.558 841.375Z" stroke="white" stroke-width="4" stroke-linejoin="round"/>
</mask>
<g mask="url(#mask0_2710_3987)">
<path d="M1299.5 718L1323 700.5H1327L1299.5 656L1235.5 664.5L914.5 839.5L1142.5 1002L1472 803L1453.5 765.5L1434.5 768L1419 778V790.5L1390.5 803L1148.5 929.5L1039 839.5L1254.5 712.5L1299.5 718Z" fill="white"/>
</g>
<path d="M921.814 635.618L987.301 673.028L1069.16 626.266L1003.67 588.855L921.814 635.618Z" stroke="white" stroke-width="4" stroke-linejoin="round"/>
<path d="M332.434 972.309L659.867 785.259L1052.79 1009.72L725.354 1196.77L332.434 972.309Z" stroke="white" stroke-width="4" stroke-linejoin="round"/>
<path d="M921.815 1309L725.354 1196.77L1052.79 1009.72L1249.25 1121.95L921.815 1309Z" stroke="white" stroke-width="4" stroke-linejoin="round"/>
<g filter="url(#filter0_f_2710_3987)">
<ellipse cx="404" cy="411" rx="35" ry="10" fill="black" fill-opacity="0.25"/>
</g>
<path d="M459 318.28C459 348.81 448.878 355.526 404 411C359.338 355.998 349 348.81 349 318.28C349 287.75 373.624 263 404 263C434.376 263 459 287.75 459 318.28Z" fill="url(#paint0_linear_2710_3987)"/>
<rect x="366.068" y="280.465" width="75.8621" height="75.8974" rx="37.931" fill="white"/>
<path d="M392.978 329.229L404.149 318.96C405.252 317.9 406.104 317.026 406.706 316.339C407.322 315.637 407.795 314.942 408.124 314.255C408.453 313.553 408.618 312.801 408.618 311.999C408.618 311.097 408.403 310.309 407.974 309.636C407.558 308.948 406.971 308.425 406.212 308.067C405.467 307.709 404.622 307.53 403.677 307.53C402.201 307.516 401.027 307.946 400.153 308.819C399.28 309.679 398.85 310.853 398.864 312.343H392.72C392.72 310.352 393.178 308.604 394.095 307.101C395.026 305.582 396.322 304.415 397.983 303.599C399.659 302.782 401.586 302.374 403.763 302.374C405.954 302.374 407.888 302.768 409.563 303.556C411.239 304.329 412.535 305.41 413.452 306.8C414.383 308.189 414.849 309.779 414.849 311.569C414.849 312.801 414.612 313.983 414.14 315.114C413.667 316.231 412.843 317.478 411.669 318.853C410.509 320.228 408.862 321.882 406.728 323.815L402.001 328.413V328.585H415.278V333.913H393.021L392.978 329.229Z" fill="#191F28"/>
<g filter="url(#filter1_f_2710_3987)">
<ellipse cx="863" cy="750" rx="35" ry="10" fill="black" fill-opacity="0.25"/>
</g>
<path d="M918 657.28C918 687.81 907.878 694.526 863 750C818.338 694.998 808 687.81 808 657.28C808 626.75 832.624 602 863 602C893.376 602 918 626.75 918 657.28Z" fill="url(#paint1_linear_2710_3987)"/>
<rect x="825.068" y="619.465" width="75.8621" height="75.8974" rx="37.931" fill="white"/>
<path d="M863.085 673.343C860.951 673.343 859.024 672.949 857.306 672.161C855.601 671.373 854.255 670.285 853.267 668.896C852.278 667.492 851.77 665.909 851.741 664.147H858.015C858.058 664.935 858.308 665.644 858.767 666.274C859.239 666.89 859.848 667.37 860.593 667.714C861.352 668.058 862.183 668.229 863.085 668.229C864.145 668.229 865.09 668 865.921 667.542C866.766 667.069 867.418 666.418 867.876 665.587C868.349 664.756 868.585 663.804 868.585 662.729C868.585 661.641 868.349 660.674 867.876 659.829C867.403 658.97 866.737 658.304 865.878 657.831C865.033 657.344 864.073 657.101 862.999 657.101C860.664 657.101 859.032 657.974 858.101 659.722H852.257L853.933 641.804H873.097V647.089H859.261L858.401 654.952H858.659C859.232 654.164 860.084 653.534 861.216 653.062C862.347 652.575 863.586 652.331 864.933 652.331C866.809 652.331 868.499 652.768 870.003 653.642C871.521 654.515 872.71 655.733 873.569 657.294C874.429 658.855 874.858 660.61 874.858 662.558C874.858 664.634 874.364 666.496 873.376 668.144C872.388 669.776 870.998 671.051 869.208 671.968C867.432 672.884 865.391 673.343 863.085 673.343Z" fill="#191F28"/>
<g filter="url(#filter2_f_2710_3987)">
<ellipse cx="1162" cy="851" rx="35" ry="10" fill="black" fill-opacity="0.25"/>
</g>
<path d="M1217 758.28C1217 788.81 1206.88 795.526 1162 851C1117.34 795.998 1107 788.81 1107 758.28C1107 727.75 1131.62 703 1162 703C1192.38 703 1217 727.75 1217 758.28Z" fill="url(#paint2_linear_2710_3987)"/>
<rect x="1124.07" y="720.465" width="75.8621" height="75.8974" rx="37.931" fill="white"/>
<path d="M1162.39 774.343C1160.09 774.343 1158 773.849 1156.11 772.86C1154.24 771.858 1152.71 770.225 1151.54 767.962C1150.38 765.699 1149.8 762.763 1149.8 759.153C1149.8 755.701 1150.31 752.715 1151.34 750.194C1152.39 747.659 1153.87 745.726 1155.79 744.394C1157.72 743.047 1159.99 742.374 1162.6 742.374C1164.63 742.374 1166.46 742.768 1168.08 743.556C1169.7 744.343 1170.99 745.432 1171.97 746.821C1172.96 748.196 1173.56 749.736 1173.77 751.44H1167.41C1167.16 750.352 1166.6 749.493 1165.74 748.862C1164.89 748.232 1163.85 747.917 1162.6 747.917C1160.52 747.917 1158.93 748.798 1157.81 750.56C1156.71 752.307 1156.14 754.735 1156.11 757.843H1156.41C1157.13 756.468 1158.2 755.394 1159.61 754.62C1161.05 753.847 1162.63 753.46 1164.36 753.46C1166.21 753.46 1167.88 753.89 1169.37 754.749C1170.86 755.608 1172.02 756.804 1172.85 758.337C1173.69 759.869 1174.12 761.595 1174.12 763.515C1174.12 765.591 1173.62 767.453 1172.63 769.101C1171.66 770.748 1170.28 772.037 1168.51 772.968C1166.73 773.884 1164.69 774.343 1162.39 774.343ZM1156.76 763.687C1156.77 764.703 1157.01 765.634 1157.49 766.479C1157.97 767.325 1158.64 767.998 1159.49 768.499C1160.33 768.986 1161.27 769.229 1162.3 769.229C1163.35 769.229 1164.29 768.993 1165.14 768.521C1165.98 768.034 1166.64 767.368 1167.11 766.522C1167.6 765.663 1167.84 764.718 1167.84 763.687C1167.84 762.655 1167.61 761.724 1167.13 760.894C1166.66 760.049 1166.01 759.382 1165.18 758.896C1164.35 758.394 1163.42 758.144 1162.39 758.144C1161.34 758.144 1160.39 758.394 1159.53 758.896C1158.68 759.397 1158.01 760.07 1157.51 760.915C1157.02 761.76 1156.77 762.684 1156.76 763.687Z" fill="#191F28"/>
<g filter="url(#filter3_f_2710_3987)">
<ellipse cx="1351" cy="963" rx="35" ry="10" fill="black" fill-opacity="0.25"/>
</g>
<path d="M1406 870.28C1406 900.81 1395.88 907.526 1351 963C1306.34 907.998 1296 900.81 1296 870.28C1296 839.75 1320.62 815 1351 815C1381.38 815 1406 839.75 1406 870.28Z" fill="url(#paint3_linear_2710_3987)"/>
<rect x="1313.07" y="832.465" width="75.8621" height="75.8974" rx="37.931" fill="white"/>
<path d="M1342 885.913L1355.1 860.304V860.089H1339.85V854.804H1361.81V860.175L1348.7 885.913H1342Z" fill="#191F28"/>
<g filter="url(#filter4_f_2710_3987)">
<ellipse cx="665" cy="1093" rx="35" ry="10" fill="black" fill-opacity="0.25"/>
</g>
<path d="M720 1000.28C720 1030.81 709.878 1037.53 665 1093C620.338 1038 610 1030.81 610 1000.28C610 969.75 634.624 945 665 945C695.376 945 720 969.75 720 1000.28Z" fill="url(#paint4_linear_2710_3987)"/>
<rect x="627.068" y="962.465" width="75.8621" height="75.8974" rx="37.931" fill="white"/>
<path d="M664.978 1016.34C657.866 1016.34 652.774 1012.6 652.774 1007.53C652.774 1003.62 655.782 1000.44 659.649 999.843V999.628C656.276 998.983 653.956 996.169 653.978 992.753C653.956 987.919 658.618 984.374 664.978 984.374C671.337 984.374 675.999 987.919 676.021 992.753C675.999 996.169 673.614 998.983 670.349 999.628V999.843C674.13 1000.44 677.181 1003.62 677.181 1007.53C677.181 1012.6 672.067 1016.34 664.978 1016.34ZM659.521 1006.89C659.499 1009.55 661.69 1011.42 664.978 1011.4C668.265 1011.42 670.456 1009.55 670.435 1006.89C670.456 1004.2 668.136 1002.23 664.978 1002.21C661.819 1002.23 659.499 1004.18 659.521 1006.89ZM660.294 993.397C660.272 995.89 662.228 997.63 664.978 997.651C667.706 997.63 669.683 995.89 669.704 993.397C669.683 990.97 667.749 989.272 664.978 989.272C662.185 989.272 660.272 990.97 660.294 993.397Z" fill="#191F28"/>
<g filter="url(#filter5_f_2710_3987)">
<ellipse cx="884" cy="1226" rx="35" ry="10" fill="black" fill-opacity="0.25"/>
</g>
<path d="M939 1133.28C939 1163.81 928.878 1170.53 884 1226C839.338 1171 829 1163.81 829 1133.28C829 1102.75 853.624 1078 884 1078C914.376 1078 939 1102.75 939 1133.28Z" fill="url(#paint5_linear_2710_3987)"/>
<rect x="846.068" y="1095.46" width="75.8621" height="75.8974" rx="37.931" fill="white"/>
<path d="M883.655 1117.37C890.101 1117.4 896.202 1121.24 896.202 1132.54C896.224 1143.11 891.218 1149.34 883.397 1149.34C877.146 1149.34 872.849 1145.41 872.226 1140.15H878.585C879.122 1142.45 880.905 1143.8 883.397 1143.8C887.63 1143.8 889.864 1140 889.886 1133.79H889.628C888.167 1136.54 885.095 1138.17 881.636 1138.17C876.05 1138.17 871.925 1133.96 871.882 1128.16C871.882 1121.91 876.63 1117.35 883.655 1117.37ZM878.198 1127.99C878.198 1131.06 880.454 1133.44 883.655 1133.44C886.813 1133.44 889.241 1130.93 889.241 1127.94C889.198 1124.98 886.878 1122.47 883.698 1122.44C880.519 1122.47 878.155 1124.89 878.198 1127.99Z" fill="#191F28"/>
<g filter="url(#filter6_f_2710_3987)">
<ellipse cx="745" cy="223" rx="35" ry="10" fill="black" fill-opacity="0.25"/>
</g>
<path d="M800 130.28C800 160.81 789.878 167.526 745 223C700.338 167.998 690 160.81 690 130.28C690 99.7495 714.624 75 745 75C775.376 75 800 99.7495 800 130.28Z" fill="url(#paint6_linear_2710_3987)"/>
<rect x="707.068" y="92.4648" width="75.8621" height="75.8974" rx="37.931" fill="white"/>
<path d="M750.542 145.913H744.054V120.948H743.882L736.749 125.417V119.702L744.44 114.804H750.542V145.913Z" fill="#191F28"/>
<g filter="url(#filter7_f_2710_3987)">
<ellipse cx="1428" cy="612" rx="35" ry="10" fill="black" fill-opacity="0.25"/>
</g>
<path d="M1483 519.28C1483 549.81 1472.88 556.526 1428 612C1383.34 556.998 1373 549.81 1373 519.28C1373 488.75 1397.62 464 1428 464C1458.38 464 1483 488.75 1483 519.28Z" fill="url(#paint7_linear_2710_3987)"/>
<rect x="1390.07" y="481.465" width="75.8621" height="75.8974" rx="37.931" fill="white"/>
<path d="M1427.91 535.343C1425.66 535.343 1423.64 534.956 1421.85 534.183C1420.08 533.409 1418.67 532.328 1417.64 530.938C1416.63 529.535 1416.1 527.938 1416.05 526.147H1422.58C1422.61 526.907 1422.86 527.58 1423.34 528.167C1423.81 528.74 1424.45 529.191 1425.25 529.521C1426.05 529.85 1426.95 530.015 1427.96 530.015C1428.97 530.015 1429.88 529.836 1430.68 529.478C1431.5 529.105 1432.13 528.604 1432.58 527.974C1433.02 527.329 1433.24 526.591 1433.24 525.761C1433.24 524.916 1433 524.171 1432.53 523.526C1432.06 522.868 1431.38 522.352 1430.49 521.979C1429.6 521.607 1428.56 521.421 1427.35 521.421H1424.48V516.651H1427.35C1428.37 516.651 1429.27 516.479 1430.06 516.136C1430.85 515.792 1431.46 515.305 1431.89 514.675C1432.33 514.045 1432.55 513.328 1432.55 512.526C1432.55 511.739 1432.37 511.044 1432 510.442C1431.62 509.841 1431.09 509.375 1430.41 509.046C1429.73 508.702 1428.94 508.53 1428.04 508.53C1427.13 508.53 1426.28 508.695 1425.51 509.024C1424.73 509.34 1424.11 509.791 1423.64 510.378C1423.17 510.965 1422.91 511.653 1422.89 512.44H1416.7C1416.73 510.693 1417.24 509.132 1418.22 507.757C1419.23 506.368 1420.58 505.293 1422.28 504.534C1423.99 503.761 1425.89 503.374 1428 503.374C1430.12 503.374 1432 503.761 1433.63 504.534C1435.28 505.308 1436.54 506.36 1437.43 507.692C1438.33 509.024 1438.78 510.507 1438.78 512.14C1438.78 513.271 1438.54 514.302 1438.05 515.233C1437.57 516.15 1436.87 516.909 1435.97 517.511C1435.08 518.098 1434.06 518.499 1432.9 518.714V518.972C1435.16 519.244 1436.91 520.024 1438.14 521.313C1439.37 522.603 1439.97 524.228 1439.94 526.19C1439.96 527.938 1439.45 529.513 1438.42 530.917C1437.4 532.306 1435.98 533.395 1434.14 534.183C1432.31 534.956 1430.23 535.343 1427.91 535.343Z" fill="#191F28"/>
<g filter="url(#filter8_f_2710_3987)">
<ellipse cx="1693" cy="766" rx="35" ry="10" fill="black" fill-opacity="0.25"/>
</g>
<path d="M1748 673.28C1748 703.81 1737.88 710.526 1693 766C1648.34 710.998 1638 703.81 1638 673.28C1638 642.75 1662.62 618 1693 618C1723.38 618 1748 642.75 1748 673.28Z" fill="url(#paint8_linear_2710_3987)"/>
<rect x="1655.07" y="635.465" width="75.8621" height="75.8974" rx="37.931" fill="white"/>
<path d="M1680.47 678.3L1693.62 657.804H1701.74V678.214H1705.7V683.413H1701.74V688.913H1695.6V683.413H1680.47V678.3ZM1695.68 678.214V664.894H1695.38L1687 677.956V678.214H1695.68Z" fill="#191F28"/>
<path d="M660.207 30.5859V33.5938H628.293V30.5859H642.395V26.7578H632.277V14.7266H656.301V17.6953H635.988V23.7109H656.652V26.7578H646.105V30.5859H660.207ZM631.848 39.6875V36.6797H656.34V48.5156H652.668V39.6875H631.848ZM690.223 29.4531V32.4219H679.637V40.9766H693.895V44.0234H661.863V40.9766H675.965V32.4219H665.848V16.0156H689.91V19.0234H669.559V29.4531H690.223ZM723.871 16.6797V20.4297C723.832 24.8242 723.832 29.4336 722.582 36.1328L718.949 35.7422C720.18 29.4141 720.18 24.7266 720.16 20.4297V19.6875H698.715V16.6797H723.871ZM695.434 43.5938V40.5078H702.973V29.1797H706.684V40.5078H711.723V29.1797H715.355V40.5078H727.348V43.5938H695.434ZM760.918 30V33.0078H752.676V37.0703H757.012V48.3203H753.262V40H732.559V37.0703H737.168V33.0078H729.004V30H760.918ZM732.441 20.8594C732.422 16.6211 737.285 14.082 744.941 14.1016C752.578 14.082 757.422 16.6211 757.441 20.8594C757.422 25.0781 752.578 27.6367 744.941 27.6172C737.285 27.6367 732.422 25.0781 732.441 20.8594ZM736.27 20.8594C736.25 23.3008 739.551 24.7266 744.941 24.7266C750.293 24.7266 753.633 23.3008 753.613 20.8594C753.633 18.4375 750.293 17.0117 744.941 17.0312C739.551 17.0117 736.25 18.4375 736.27 20.8594ZM740.879 37.0703H749.043V33.0078H740.879V37.0703ZM773.043 24.0625C773.043 29.5703 775.602 35.1758 780.426 37.7734L778.355 40.5078C774.957 38.7109 772.613 35.3711 771.344 31.4062C770.094 35.6445 767.75 39.2969 764.371 41.3281L762.184 38.5156C767.027 35.7031 769.527 29.707 769.566 24.0625V22.6562H763.238V19.6094H769.566V14.5703H773.043V19.6094H779.254V22.6562H773.043V24.0625ZM776.949 30.0391V26.9531H781.988V14.0625H785.504V46.5625H781.988V30.0391H776.949ZM789.059 48.3203V13.3203H792.613V48.3203H789.059ZM825.324 13.3203V34.5312H821.613V26.9141H816.145V23.8281H821.613V13.3203H825.324ZM796.184 19.7656V16.7969H804.621V13.0078H808.293V16.7969H816.691V19.7656H796.184ZM798.215 27.6172C798.215 23.9453 801.652 21.3672 806.457 21.3672C811.262 21.3672 814.66 23.9453 814.66 27.6172C814.66 31.3867 811.262 33.8867 806.457 33.9062C801.652 33.8867 798.215 31.3867 798.215 27.6172ZM801.77 27.6172C801.77 29.7461 803.664 31.0742 806.457 31.0938C809.211 31.0742 811.105 29.7461 811.105 27.6172C811.105 25.5664 809.211 24.1992 806.457 24.2188C803.664 24.1992 801.77 25.5664 801.77 27.6172ZM802.238 47.8906V36.25H825.324V47.8906H802.238ZM805.91 44.8828H821.691V39.1797H805.91V44.8828ZM849.207 15.9766V17.9297C849.168 20.2734 849.168 23.75 848.309 28.2812L844.637 27.9297C845.398 24.0625 845.516 21.2305 845.555 19.0234H831.551V15.9766H849.207ZM829.441 31.2891C831.59 31.2891 834.031 31.2695 836.59 31.2109V23.8281H840.262V31.0938C844.012 30.9375 847.879 30.6641 851.395 30.1562L851.629 32.8516C844.324 34.1406 835.965 34.2773 829.793 34.2969L829.441 31.2891ZM834.754 47.5781V37.2266H838.465V44.5703H858.543V47.5781H834.754ZM853.621 39.6094V13.3203H857.41V24.4531H862.215V27.5781H857.41V39.6094H853.621Z" fill="white"/>
<path d="M364.121 202.453C367.129 202.453 369.668 203.527 371.309 205.344H379.902V201.32H383.574V219.133H379.902V215.461H371.387C369.746 217.336 367.168 218.449 364.121 218.43C358.828 218.449 354.922 215.188 354.941 210.422C354.922 205.715 358.828 202.453 364.121 202.453ZM358.496 210.422C358.477 213.43 360.84 215.441 364.121 215.461C367.305 215.441 369.668 213.43 369.668 210.422C369.668 207.492 367.305 205.48 364.121 205.5C360.84 205.48 358.477 207.492 358.496 210.422ZM360.684 223.742V220.852H383.574V229.562H364.473V232.922H384.824V235.891H360.762V226.789H379.902V223.742H360.684ZM372.93 208.273C373.125 208.957 373.223 209.66 373.223 210.422C373.223 211.164 373.125 211.867 372.949 212.531H379.902V208.273H372.93ZM415.504 201.359V210.07H420.621V213.195H415.504V222.18H411.793V201.359H415.504ZM389.41 206.164V203.195H405.348V213.078H393.16V217.453C399.234 217.434 403.531 217.258 408.629 216.398L409.02 219.367C403.609 220.344 398.98 220.539 392.262 220.539H389.449V210.266H401.715V206.164H389.41ZM393.082 235.891V223.82H415.504V235.891H393.082ZM396.715 232.883H411.91V226.711H396.715V232.883ZM450.559 201.32V219.328H446.887V201.32H450.559ZM421.691 216.203C427.16 214.387 430.5 209.797 430.52 204.953V202.258H434.309V204.953C434.289 209.641 437.648 213.898 443.02 215.578L441.184 218.469C437.102 217.141 434.035 214.387 432.453 210.832C430.871 214.66 427.746 217.707 423.566 219.133L421.691 216.203ZM427.59 223.938V221.008H450.598V229.758H431.301V233H451.77V235.969H427.707V226.945H446.926V223.938H427.59Z" fill="white"/>
<path d="M1364.97 368.859V371.867H1361.61V382.453C1363.1 382.336 1364.52 382.199 1365.91 382.023L1366.07 384.836C1359.33 385.891 1351.48 386.008 1345.87 386.008L1345.4 382.922C1346.71 382.922 1348.16 382.922 1349.66 382.902V371.867H1346.38V368.859H1364.97ZM1350.99 394.914C1350.97 390.832 1355.42 388.508 1362.82 388.508C1370.21 388.508 1374.64 390.832 1374.66 394.914C1374.64 398.918 1370.21 401.262 1362.82 401.242C1355.42 401.262 1350.97 398.918 1350.99 394.914ZM1353.25 382.844C1354.84 382.805 1356.44 382.746 1358.06 382.668V371.867H1353.25V382.844ZM1354.66 394.914C1354.64 397.121 1357.65 398.371 1362.82 398.391C1367.96 398.371 1370.97 397.121 1370.99 394.914C1370.97 392.648 1367.96 391.379 1362.82 391.398C1357.65 391.379 1354.64 392.648 1354.66 394.914ZM1365.48 381.75V378.781H1370.83V375.383H1365.48V372.414H1370.83V366.32H1374.54V387.844H1370.83V381.75H1365.48ZM1389.64 373.039C1389.64 376.867 1392.08 380.734 1396.63 382.453L1394.68 385.305C1391.41 384.055 1389.13 381.672 1387.88 378.801C1386.59 382.043 1384.21 384.855 1380.81 386.32L1378.78 383.43C1383.5 381.379 1386.04 376.926 1386.04 373.039V368.508H1389.64V373.039ZM1385.22 394.914C1385.18 390.93 1389.73 388.566 1397.06 388.547C1404.36 388.566 1408.95 390.93 1408.97 394.914C1408.95 398.898 1404.36 401.262 1397.06 401.242C1389.73 401.262 1385.18 398.898 1385.22 394.914ZM1388.89 394.914C1388.86 397.141 1391.96 398.43 1397.06 398.391C1402.14 398.43 1405.24 397.141 1405.26 394.914C1405.24 392.668 1402.14 391.379 1397.06 391.398C1391.96 391.379 1388.86 392.668 1388.89 394.914ZM1397.72 386.789V366.984H1401.16V375.461H1405.26V366.359H1408.78V387.883H1405.26V378.508H1401.16V386.789H1397.72ZM1433.4 369.875V372.844H1412.54V369.875H1421.14V366.164H1424.85V369.875H1433.4ZM1414.46 380.773C1414.44 376.945 1417.91 374.445 1422.97 374.406C1428.01 374.445 1431.45 376.945 1431.45 380.773C1431.45 384.621 1428.01 387.141 1422.97 387.141C1417.91 387.141 1414.44 384.621 1414.46 380.773ZM1416.88 393V389.992H1440V401.32H1436.29V393H1416.88ZM1418.05 380.773C1418.01 382.941 1420 384.25 1422.97 384.25C1425.94 384.25 1427.93 382.941 1427.97 380.773C1427.93 378.625 1425.94 377.277 1422.97 377.258C1420 377.277 1418.01 378.625 1418.05 380.773ZM1436.29 388.195V366.32H1440V375.812H1445.08V378.898H1440V388.195H1436.29ZM1453.69 387.297V391.008H1470.14V387.297H1473.85V400.891H1450.02V387.297H1453.69ZM1446.07 385.109V382.023H1477.99V385.109H1446.07ZM1447.79 376.945C1454.57 376.066 1460.12 372.336 1460.14 368.195V366.711H1463.93V368.195C1463.95 372.219 1469.53 376.125 1476.23 376.945L1474.9 379.875C1469.24 379.094 1464.3 376.398 1462.05 372.668C1459.79 376.418 1454.82 379.094 1449.2 379.875L1447.79 376.945ZM1453.69 397.922H1470.14V393.898H1453.69V397.922ZM1508.63 366.32V384.328H1504.96V366.32H1508.63ZM1479.76 381.203C1485.23 379.387 1488.57 374.797 1488.59 369.953V367.258H1492.38V369.953C1492.36 374.641 1495.72 378.898 1501.09 380.578L1499.25 383.469C1495.17 382.141 1492.11 379.387 1490.52 375.832C1488.94 379.66 1485.82 382.707 1481.64 384.133L1479.76 381.203ZM1485.66 388.938V386.008H1508.67V394.758H1489.37V398H1509.84V400.969H1485.78V391.945H1505V388.938H1485.66ZM1373.12 427.375C1373.16 421.484 1374.83 416.594 1377.75 412.406H1380.81C1378.66 415.5 1376.59 421.797 1376.59 427.375C1376.59 432.969 1378.66 439.266 1380.81 442.375H1377.75C1374.83 438.172 1373.16 433.281 1373.12 427.375ZM1385.83 413.25V419.938H1391.17V413.25H1393.92V431.75H1383.01V413.25H1385.83ZM1385.83 429.344H1391.17V422.281H1385.83V429.344ZM1397.04 437.281V411.188H1399.86V421.625H1403.33V410.656H1406.17V438.656H1403.33V424.062H1399.86V437.281H1397.04ZM1421.68 411.125C1427.82 411.141 1431.67 413.109 1431.68 416.469C1431.67 419.766 1427.82 421.719 1421.68 421.719C1415.56 421.719 1411.67 419.766 1411.68 416.469C1411.67 413.109 1415.56 411.141 1421.68 411.125ZM1408.93 426.031V423.625H1434.46V426.031H1423.15V428.969H1431.34V438.312H1411.99V428.969H1420.21V426.031H1408.93ZM1414.74 416.469C1414.73 418.344 1417.37 419.406 1421.68 419.406C1425.96 419.406 1428.63 418.344 1428.62 416.469C1428.63 414.531 1425.96 413.438 1421.68 413.438C1417.37 413.438 1414.73 414.531 1414.74 416.469ZM1414.93 435.906H1428.46V431.344H1414.93V435.906ZM1445.35 413.375V436H1441.88V416.812H1441.76L1436.35 420.344V417.062L1441.97 413.375H1445.35ZM1472.52 410.656V425.062H1469.58V410.656H1472.52ZM1449.43 422.562C1453.8 421.109 1456.47 417.438 1456.49 413.562V411.406H1459.52V413.562C1459.5 417.312 1462.19 420.719 1466.49 422.062L1465.02 424.375C1461.75 423.312 1459.3 421.109 1458.03 418.266C1456.77 421.328 1454.27 423.766 1450.93 424.906L1449.43 422.562ZM1454.14 428.75V426.406H1472.55V433.406H1457.11V436H1473.49V438.375H1454.24V431.156H1469.61V428.75H1454.14ZM1483.88 427.375C1483.84 433.281 1482.17 438.172 1479.25 442.375H1476.19C1478.34 439.266 1480.41 432.969 1480.41 427.375C1480.41 421.797 1478.34 415.5 1476.19 412.406H1479.25C1482.17 416.594 1483.84 421.484 1483.88 427.375Z" fill="white"/>
<path d="M921.219 335.656V347.375H925.438V349.875H921.219V363.656H918.25V335.656H921.219ZM898.938 356.031C901.141 356.031 903.703 356.031 906.375 355.953V353.109C903.219 352.641 901.156 350.734 901.188 348.031C901.156 344.875 903.891 342.797 907.875 342.781C911.844 342.797 914.609 344.875 914.625 348.031C914.609 350.734 912.516 352.656 909.344 353.109V355.844C911.828 355.719 914.328 355.516 916.656 355.188L916.844 357.375C910.781 358.453 904.234 358.516 899.406 358.5L898.938 356.031ZM899.469 341.344V338.969H906.375V335.719H909.344V338.969H916.25V341.344H899.469ZM903.969 348.031C903.969 349.812 905.531 350.922 907.875 350.906C910.219 350.922 911.766 349.812 911.781 348.031C911.766 346.234 910.219 345.094 907.875 345.094C905.531 345.094 903.969 346.234 903.969 348.031ZM935.919 340.812C935.903 344.375 938.388 347.625 942.638 348.969L941.231 351.281C938.044 350.266 935.716 348.156 934.481 345.5C933.263 348.562 930.809 350.984 927.45 352.156L925.919 349.781C930.294 348.344 932.934 344.734 932.95 340.844V340.062H926.794V337.656H941.95V340.062H935.919V340.812ZM929.7 358.344C929.7 355.062 933.278 353.141 939.106 353.156C944.872 353.141 948.388 355.062 948.388 358.344C948.388 361.672 944.872 363.609 939.106 363.594C933.278 363.609 929.7 361.672 929.7 358.344ZM932.669 358.344C932.653 360.219 935.059 361.266 939.106 361.25C943.122 361.266 945.497 360.219 945.481 358.344C945.497 356.516 943.122 355.484 939.106 355.5C935.059 355.484 932.653 356.516 932.669 358.344ZM945.169 352.469V335.656H948.138V342.594H952.2V345.031H948.138V352.469H945.169ZM976.181 335.656V350.062H973.244V335.656H976.181ZM953.088 347.562C957.463 346.109 960.134 342.438 960.15 338.562V336.406H963.181V338.562C963.166 342.312 965.853 345.719 970.15 347.062L968.681 349.375C965.416 348.312 962.963 346.109 961.697 343.266C960.431 346.328 957.931 348.766 954.588 349.906L953.088 347.562ZM957.806 353.75V351.406H976.213V358.406H960.775V361H977.15V363.375H957.9V356.156H973.275V353.75H957.806ZM981.537 352.375C981.569 346.484 983.241 341.594 986.162 337.406H989.225C987.069 340.5 985.006 346.797 985.006 352.375C985.006 357.969 987.069 364.266 989.225 367.375H986.162C983.241 363.172 981.569 358.281 981.537 352.375ZM998.081 337.75C1000.64 337.766 1002.74 339.219 1003.97 341.75H1010.89V335.656H1013.83V363.719H1010.89V352.969H1004.18C1002.97 355.781 1000.78 357.422 998.081 357.406C993.909 357.422 990.956 353.609 990.988 347.562C990.956 341.578 993.909 337.766 998.081 337.75ZM993.8 347.562C993.816 352.016 995.55 354.75 998.081 354.75C1000.61 354.75 1002.35 352.016 1002.36 347.562C1002.35 343.172 1000.61 340.422 998.081 340.406C995.55 340.422 993.816 343.172 993.8 347.562ZM1004.82 344.188C1005.03 345.219 1005.18 346.344 1005.18 347.562C1005.18 348.625 1005.08 349.609 1004.89 350.531H1010.89V344.188H1004.82ZM1025.03 352.375C1025 358.281 1023.33 363.172 1020.41 367.375H1017.34C1019.5 364.266 1021.56 357.969 1021.56 352.375C1021.56 346.797 1019.5 340.5 1017.34 337.406H1020.41C1023.33 341.594 1025 346.484 1025.03 352.375Z" fill="white"/>
<path d="M1150.22 466.656V478.375H1154.44V480.875H1150.22V494.656H1147.25V466.656H1150.22ZM1127.94 487.031C1130.14 487.031 1132.7 487.031 1135.38 486.953V484.109C1132.22 483.641 1130.16 481.734 1130.19 479.031C1130.16 475.875 1132.89 473.797 1136.88 473.781C1140.84 473.797 1143.61 475.875 1143.62 479.031C1143.61 481.734 1141.52 483.656 1138.34 484.109V486.844C1140.83 486.719 1143.33 486.516 1145.66 486.188L1145.84 488.375C1139.78 489.453 1133.23 489.516 1128.41 489.5L1127.94 487.031ZM1128.47 472.344V469.969H1135.38V466.719H1138.34V469.969H1145.25V472.344H1128.47ZM1132.97 479.031C1132.97 480.812 1134.53 481.922 1136.88 481.906C1139.22 481.922 1140.77 480.812 1140.78 479.031C1140.77 477.234 1139.22 476.094 1136.88 476.094C1134.53 476.094 1132.97 477.234 1132.97 479.031ZM1164.92 471.812C1164.9 475.375 1167.39 478.625 1171.64 479.969L1170.23 482.281C1167.04 481.266 1164.72 479.156 1163.48 476.5C1162.26 479.562 1159.81 481.984 1156.45 483.156L1154.92 480.781C1159.29 479.344 1161.93 475.734 1161.95 471.844V471.062H1155.79V468.656H1170.95V471.062H1164.92V471.812ZM1158.7 489.344C1158.7 486.062 1162.28 484.141 1168.11 484.156C1173.87 484.141 1177.39 486.062 1177.39 489.344C1177.39 492.672 1173.87 494.609 1168.11 494.594C1162.28 494.609 1158.7 492.672 1158.7 489.344ZM1161.67 489.344C1161.65 491.219 1164.06 492.266 1168.11 492.25C1172.12 492.266 1174.5 491.219 1174.48 489.344C1174.5 487.516 1172.12 486.484 1168.11 486.5C1164.06 486.484 1161.65 487.516 1161.67 489.344ZM1174.17 483.469V466.656H1177.14V473.594H1181.2V476.031H1177.14V483.469H1174.17ZM1205.18 466.656V481.062H1202.24V466.656H1205.18ZM1182.09 478.562C1186.46 477.109 1189.13 473.438 1189.15 469.562V467.406H1192.18V469.562C1192.17 473.312 1194.85 476.719 1199.15 478.062L1197.68 480.375C1194.42 479.312 1191.96 477.109 1190.7 474.266C1189.43 477.328 1186.93 479.766 1183.59 480.906L1182.09 478.562ZM1186.81 484.75V482.406H1205.21V489.406H1189.78V492H1206.15V494.375H1186.9V487.156H1202.28V484.75H1186.81ZM1210.54 483.375C1210.57 477.484 1212.24 472.594 1215.16 468.406H1218.22C1216.07 471.5 1214.01 477.797 1214.01 483.375C1214.01 488.969 1216.07 495.266 1218.22 498.375H1215.16C1212.24 494.172 1210.57 489.281 1210.54 483.375ZM1241.49 466.688V472.906H1245.58V475.375H1241.49V482.469H1238.52V466.688H1241.49ZM1220.77 480.562V468.062H1223.74V478.094C1227.53 478.062 1231.49 477.734 1235.8 476.875L1236.18 479.312C1231.46 480.266 1227.18 480.547 1223.05 480.562H1220.77ZM1223.55 494.281V483.938H1241.49V494.281H1223.55ZM1226.46 491.906H1238.61V486.25H1226.46V491.906ZM1254.03 483.375C1254 489.281 1252.33 494.172 1249.41 498.375H1246.34C1248.5 495.266 1250.56 488.969 1250.56 483.375C1250.56 477.797 1248.5 471.5 1246.34 468.406H1249.41C1252.33 472.594 1254 477.484 1254.03 483.375Z" fill="white"/>
<path d="M799.973 506.859V509.867H796.613V520.453C798.098 520.336 799.523 520.199 800.91 520.023L801.066 522.836C794.328 523.891 786.477 524.008 780.871 524.008L780.402 520.922C781.711 520.922 783.156 520.922 784.66 520.902V509.867H781.379V506.859H799.973ZM785.988 532.914C785.969 528.832 790.422 526.508 797.824 526.508C805.207 526.508 809.641 528.832 809.66 532.914C809.641 536.918 805.207 539.262 797.824 539.242C790.422 539.262 785.969 536.918 785.988 532.914ZM788.254 520.844C789.836 520.805 791.438 520.746 793.059 520.668V509.867H788.254V520.844ZM789.66 532.914C789.641 535.121 792.648 536.371 797.824 536.391C802.961 536.371 805.969 535.121 805.988 532.914C805.969 530.648 802.961 529.379 797.824 529.398C792.648 529.379 789.641 530.648 789.66 532.914ZM800.48 519.75V516.781H805.832V513.383H800.48V510.414H805.832V504.32H809.543V525.844H805.832V519.75H800.48ZM824.637 511.039C824.637 514.867 827.078 518.734 831.629 520.453L829.676 523.305C826.414 522.055 824.129 519.672 822.879 516.801C821.59 520.043 819.207 522.855 815.809 524.32L813.777 521.43C818.504 519.379 821.043 514.926 821.043 511.039V506.508H824.637V511.039ZM820.223 532.914C820.184 528.93 824.734 526.566 832.059 526.547C839.363 526.566 843.953 528.93 843.973 532.914C843.953 536.898 839.363 539.262 832.059 539.242C824.734 539.262 820.184 536.898 820.223 532.914ZM823.895 532.914C823.855 535.141 826.961 536.43 832.059 536.391C837.137 536.43 840.242 535.141 840.262 532.914C840.242 530.668 837.137 529.379 832.059 529.398C826.961 529.379 823.855 530.668 823.895 532.914ZM832.723 524.789V504.984H836.16V513.461H840.262V504.359H843.777V525.883H840.262V516.508H836.16V524.789H832.723ZM868.402 507.875V510.844H847.543V507.875H856.137V504.164H859.848V507.875H868.402ZM849.457 518.773C849.438 514.945 852.914 512.445 857.973 512.406C863.012 512.445 866.449 514.945 866.449 518.773C866.449 522.621 863.012 525.141 857.973 525.141C852.914 525.141 849.438 522.621 849.457 518.773ZM851.879 531V527.992H875.004V539.32H871.293V531H851.879ZM853.051 518.773C853.012 520.941 855.004 522.25 857.973 522.25C860.941 522.25 862.934 520.941 862.973 518.773C862.934 516.625 860.941 515.277 857.973 515.258C855.004 515.277 853.012 516.625 853.051 518.773ZM871.293 526.195V504.32H875.004V513.812H880.082V516.898H875.004V526.195H871.293ZM888.691 525.297V529.008H905.137V525.297H908.848V538.891H885.02V525.297H888.691ZM881.074 523.109V520.023H912.988V523.109H881.074ZM882.793 514.945C889.57 514.066 895.117 510.336 895.137 506.195V504.711H898.926V506.195C898.945 510.219 904.531 514.125 911.23 514.945L909.902 517.875C904.238 517.094 899.297 514.398 897.051 510.668C894.785 514.418 889.824 517.094 884.199 517.875L882.793 514.945ZM888.691 535.922H905.137V531.898H888.691V535.922ZM943.629 504.32V522.328H939.957V504.32H943.629ZM914.762 519.203C920.23 517.387 923.57 512.797 923.59 507.953V505.258H927.379V507.953C927.359 512.641 930.719 516.898 936.09 518.578L934.254 521.469C930.172 520.141 927.105 517.387 925.523 513.832C923.941 517.66 920.816 520.707 916.637 522.133L914.762 519.203ZM920.66 526.938V524.008H943.668V532.758H924.371V536H944.84V538.969H920.777V529.945H939.996V526.938H920.66ZM808.125 565.375C808.156 559.484 809.828 554.594 812.75 550.406H815.812C813.656 553.5 811.594 559.797 811.594 565.375C811.594 570.969 813.656 577.266 815.812 580.375H812.75C809.828 576.172 808.156 571.281 808.125 565.375ZM843.231 559.656V562.094H838.888V576.625H835.919V548.656H838.888V559.656H843.231ZM818.138 569.594V551.375H821.075V567.125C824.981 567.109 829.059 566.781 833.513 565.875L833.856 568.375C829.059 569.328 824.653 569.609 820.45 569.594H818.138ZM866.556 556.062V558.438H847.338V549.156H850.275V556.062H866.556ZM843.931 563.562V561.156H869.494V563.562H858.088V566.719H866.275V576.281H847.181V566.719H855.181V563.562H843.931ZM850.088 573.906H863.4V569.031H850.088V573.906ZM880.35 551.375V574H876.881V554.812H876.756L871.35 558.344V555.062L876.975 551.375H880.35ZM907.519 548.656V563.062H904.581V548.656H907.519ZM884.425 560.562C888.8 559.109 891.472 555.438 891.488 551.562V549.406H894.519V551.562C894.503 555.312 897.191 558.719 901.488 560.062L900.019 562.375C896.753 561.312 894.3 559.109 893.034 556.266C891.769 559.328 889.269 561.766 885.925 562.906L884.425 560.562ZM889.144 566.75V564.406H907.55V571.406H892.113V574H908.488V576.375H889.238V569.156H904.613V566.75H889.144ZM918.875 565.375C918.844 571.281 917.172 576.172 914.25 580.375H911.188C913.344 577.266 915.406 570.969 915.406 565.375C915.406 559.797 913.344 553.5 911.188 550.406H914.25C917.172 554.594 918.844 559.484 918.875 565.375Z" fill="white"/>
<path d="M1097.97 607.859V610.867H1094.61V621.453C1096.1 621.336 1097.52 621.199 1098.91 621.023L1099.07 623.836C1092.33 624.891 1084.48 625.008 1078.87 625.008L1078.4 621.922C1079.71 621.922 1081.16 621.922 1082.66 621.902V610.867H1079.38V607.859H1097.97ZM1083.99 633.914C1083.97 629.832 1088.42 627.508 1095.82 627.508C1103.21 627.508 1107.64 629.832 1107.66 633.914C1107.64 637.918 1103.21 640.262 1095.82 640.242C1088.42 640.262 1083.97 637.918 1083.99 633.914ZM1086.25 621.844C1087.84 621.805 1089.44 621.746 1091.06 621.668V610.867H1086.25V621.844ZM1087.66 633.914C1087.64 636.121 1090.65 637.371 1095.82 637.391C1100.96 637.371 1103.97 636.121 1103.99 633.914C1103.97 631.648 1100.96 630.379 1095.82 630.398C1090.65 630.379 1087.64 631.648 1087.66 633.914ZM1098.48 620.75V617.781H1103.83V614.383H1098.48V611.414H1103.83V605.32H1107.54V626.844H1103.83V620.75H1098.48ZM1122.64 612.039C1122.64 615.867 1125.08 619.734 1129.63 621.453L1127.68 624.305C1124.41 623.055 1122.13 620.672 1120.88 617.801C1119.59 621.043 1117.21 623.855 1113.81 625.32L1111.78 622.43C1116.5 620.379 1119.04 615.926 1119.04 612.039V607.508H1122.64V612.039ZM1118.22 633.914C1118.18 629.93 1122.73 627.566 1130.06 627.547C1137.36 627.566 1141.95 629.93 1141.97 633.914C1141.95 637.898 1137.36 640.262 1130.06 640.242C1122.73 640.262 1118.18 637.898 1118.22 633.914ZM1121.89 633.914C1121.86 636.141 1124.96 637.43 1130.06 637.391C1135.14 637.43 1138.24 636.141 1138.26 633.914C1138.24 631.668 1135.14 630.379 1130.06 630.398C1124.96 630.379 1121.86 631.668 1121.89 633.914ZM1130.72 625.789V605.984H1134.16V614.461H1138.26V605.359H1141.78V626.883H1138.26V617.508H1134.16V625.789H1130.72ZM1166.4 608.875V611.844H1145.54V608.875H1154.14V605.164H1157.85V608.875H1166.4ZM1147.46 619.773C1147.44 615.945 1150.91 613.445 1155.97 613.406C1161.01 613.445 1164.45 615.945 1164.45 619.773C1164.45 623.621 1161.01 626.141 1155.97 626.141C1150.91 626.141 1147.44 623.621 1147.46 619.773ZM1149.88 632V628.992H1173V640.32H1169.29V632H1149.88ZM1151.05 619.773C1151.01 621.941 1153 623.25 1155.97 623.25C1158.94 623.25 1160.93 621.941 1160.97 619.773C1160.93 617.625 1158.94 616.277 1155.97 616.258C1153 616.277 1151.01 617.625 1151.05 619.773ZM1169.29 627.195V605.32H1173V614.812H1178.08V617.898H1173V627.195H1169.29ZM1186.69 626.297V630.008H1203.14V626.297H1206.85V639.891H1183.02V626.297H1186.69ZM1179.07 624.109V621.023H1210.99V624.109H1179.07ZM1180.79 615.945C1187.57 615.066 1193.12 611.336 1193.14 607.195V605.711H1196.93V607.195C1196.95 611.219 1202.53 615.125 1209.23 615.945L1207.9 618.875C1202.24 618.094 1197.3 615.398 1195.05 611.668C1192.79 615.418 1187.82 618.094 1182.2 618.875L1180.79 615.945ZM1186.69 636.922H1203.14V632.898H1186.69V636.922ZM1241.63 605.32V623.328H1237.96V605.32H1241.63ZM1212.76 620.203C1218.23 618.387 1221.57 613.797 1221.59 608.953V606.258H1225.38V608.953C1225.36 613.641 1228.72 617.898 1234.09 619.578L1232.25 622.469C1228.17 621.141 1225.11 618.387 1223.52 614.832C1221.94 618.66 1218.82 621.707 1214.64 623.133L1212.76 620.203ZM1218.66 627.938V625.008H1241.67V633.758H1222.37V637H1242.84V639.969H1218.78V630.945H1238V627.938H1218.66ZM1103.78 666.375C1103.81 660.484 1105.48 655.594 1108.41 651.406H1111.47C1109.31 654.5 1107.25 660.797 1107.25 666.375C1107.25 671.969 1109.31 678.266 1111.47 681.375H1108.41C1105.48 677.172 1103.81 672.281 1103.78 666.375ZM1138.89 660.656V663.094H1134.54V677.625H1131.58V649.656H1134.54V660.656H1138.89ZM1113.79 670.594V652.375H1116.73V668.125C1120.64 668.109 1124.72 667.781 1129.17 666.875L1129.51 669.375C1124.72 670.328 1120.31 670.609 1116.11 670.594H1113.79ZM1162.21 657.062V659.438H1142.99V650.156H1145.93V657.062H1162.21ZM1139.59 664.562V662.156H1165.15V664.562H1153.74V667.719H1161.93V677.281H1142.84V667.719H1150.84V664.562H1139.59ZM1145.74 674.906H1159.06V670.031H1145.74V674.906ZM1167.41 675V672.5L1175.26 664.594C1177.74 662.016 1178.97 660.578 1178.97 658.594C1178.97 656.359 1177.16 654.938 1174.79 654.938C1172.27 654.938 1170.68 656.531 1170.66 658.938H1167.41C1167.38 654.797 1170.54 652.062 1174.85 652.062C1179.21 652.062 1182.22 654.828 1182.26 658.5C1182.22 661.031 1181.04 663.047 1176.79 667.219L1172.19 671.875V672.062H1182.63V675H1167.41ZM1207.86 649.656V664.062H1204.93V649.656H1207.86ZM1184.77 661.562C1189.14 660.109 1191.82 656.438 1191.83 652.562V650.406H1194.86V652.562C1194.85 656.312 1197.53 659.719 1201.83 661.062L1200.36 663.375C1197.1 662.312 1194.64 660.109 1193.38 657.266C1192.11 660.328 1189.61 662.766 1186.27 663.906L1184.77 661.562ZM1189.49 667.75V665.406H1207.89V672.406H1192.46V675H1208.83V677.375H1189.58V670.156H1204.96V667.75H1189.49ZM1219.22 666.375C1219.19 672.281 1217.52 677.172 1214.59 681.375H1211.53C1213.69 678.266 1215.75 671.969 1215.75 666.375C1215.75 660.797 1213.69 654.5 1211.53 651.406H1214.59C1217.52 655.594 1219.19 660.484 1219.22 666.375Z" fill="white"/>
<path d="M600.973 849.859V852.867H597.613V863.453C599.098 863.336 600.523 863.199 601.91 863.023L602.066 865.836C595.328 866.891 587.477 867.008 581.871 867.008L581.402 863.922C582.711 863.922 584.156 863.922 585.66 863.902V852.867H582.379V849.859H600.973ZM586.988 875.914C586.969 871.832 591.422 869.508 598.824 869.508C606.207 869.508 610.641 871.832 610.66 875.914C610.641 879.918 606.207 882.262 598.824 882.242C591.422 882.262 586.969 879.918 586.988 875.914ZM589.254 863.844C590.836 863.805 592.438 863.746 594.059 863.668V852.867H589.254V863.844ZM590.66 875.914C590.641 878.121 593.648 879.371 598.824 879.391C603.961 879.371 606.969 878.121 606.988 875.914C606.969 873.648 603.961 872.379 598.824 872.398C593.648 872.379 590.641 873.648 590.66 875.914ZM601.48 862.75V859.781H606.832V856.383H601.48V853.414H606.832V847.32H610.543V868.844H606.832V862.75H601.48ZM625.637 854.039C625.637 857.867 628.078 861.734 632.629 863.453L630.676 866.305C627.414 865.055 625.129 862.672 623.879 859.801C622.59 863.043 620.207 865.855 616.809 867.32L614.777 864.43C619.504 862.379 622.043 857.926 622.043 854.039V849.508H625.637V854.039ZM621.223 875.914C621.184 871.93 625.734 869.566 633.059 869.547C640.363 869.566 644.953 871.93 644.973 875.914C644.953 879.898 640.363 882.262 633.059 882.242C625.734 882.262 621.184 879.898 621.223 875.914ZM624.895 875.914C624.855 878.141 627.961 879.43 633.059 879.391C638.137 879.43 641.242 878.141 641.262 875.914C641.242 873.668 638.137 872.379 633.059 872.398C627.961 872.379 624.855 873.668 624.895 875.914ZM633.723 867.789V847.984H637.16V856.461H641.262V847.359H644.777V868.883H641.262V859.508H637.16V867.789H633.723ZM669.402 850.875V853.844H648.543V850.875H657.137V847.164H660.848V850.875H669.402ZM650.457 861.773C650.438 857.945 653.914 855.445 658.973 855.406C664.012 855.445 667.449 857.945 667.449 861.773C667.449 865.621 664.012 868.141 658.973 868.141C653.914 868.141 650.438 865.621 650.457 861.773ZM652.879 874V870.992H676.004V882.32H672.293V874H652.879ZM654.051 861.773C654.012 863.941 656.004 865.25 658.973 865.25C661.941 865.25 663.934 863.941 663.973 861.773C663.934 859.625 661.941 858.277 658.973 858.258C656.004 858.277 654.012 859.625 654.051 861.773ZM672.293 869.195V847.32H676.004V856.812H681.082V859.898H676.004V869.195H672.293ZM689.691 868.297V872.008H706.137V868.297H709.848V881.891H686.02V868.297H689.691ZM682.074 866.109V863.023H713.988V866.109H682.074ZM683.793 857.945C690.57 857.066 696.117 853.336 696.137 849.195V847.711H699.926V849.195C699.945 853.219 705.531 857.125 712.23 857.945L710.902 860.875C705.238 860.094 700.297 857.398 698.051 853.668C695.785 857.418 690.824 860.094 685.199 860.875L683.793 857.945ZM689.691 878.922H706.137V874.898H689.691V878.922ZM744.629 847.32V865.328H740.957V847.32H744.629ZM715.762 862.203C721.23 860.387 724.57 855.797 724.59 850.953V848.258H728.379V850.953C728.359 855.641 731.719 859.898 737.09 861.578L735.254 864.469C731.172 863.141 728.105 860.387 726.523 856.832C724.941 860.66 721.816 863.707 717.637 865.133L715.762 862.203ZM721.66 869.938V867.008H744.668V875.758H725.371V879H745.84V881.969H721.777V872.945H740.996V869.938H721.66ZM609.125 908.375C609.156 902.484 610.828 897.594 613.75 893.406H616.812C614.656 896.5 612.594 902.797 612.594 908.375C612.594 913.969 614.656 920.266 616.812 923.375H613.75C610.828 919.172 609.156 914.281 609.125 908.375ZM626.45 900.219C626.45 904.578 628.481 909.078 632.388 911.125L630.7 913.344C627.981 911.906 626.091 909.234 625.075 906.078C624.091 909.453 622.216 912.375 619.513 913.938L617.763 911.75C621.622 909.5 623.638 904.734 623.669 900.219V899.188H618.481V896.719H623.669V892.656H626.45V896.719H631.544V899.188H626.45V900.219ZM633.263 918.281V892.188H636.075V902.781H639.419V891.656H642.263V919.656H639.419V905.281H636.075V918.281H633.263ZM657.681 892.125C663.822 892.141 667.666 894.109 667.681 897.469C667.666 900.766 663.822 902.719 657.681 902.719C651.556 902.719 647.666 900.766 647.681 897.469C647.666 894.109 651.556 892.141 657.681 892.125ZM644.931 907.031V904.625H670.463V907.031H659.15V909.969H667.338V919.312H647.994V909.969H656.213V907.031H644.931ZM650.744 897.469C650.728 899.344 653.369 900.406 657.681 900.406C661.963 900.406 664.634 899.344 664.619 897.469C664.634 895.531 661.963 894.438 657.681 894.438C653.369 894.438 650.728 895.531 650.744 897.469ZM650.931 916.906H664.463V912.344H650.931V916.906ZM681.35 894.375V917H677.881V897.812H677.756L672.35 901.344V898.062L677.975 894.375H681.35ZM708.519 891.656V906.062H705.581V891.656H708.519ZM685.425 903.562C689.8 902.109 692.472 898.438 692.488 894.562V892.406H695.519V894.562C695.503 898.312 698.191 901.719 702.488 903.062L701.019 905.375C697.753 904.312 695.3 902.109 694.034 899.266C692.769 902.328 690.269 904.766 686.925 905.906L685.425 903.562ZM690.144 909.75V907.406H708.55V914.406H693.113V917H709.488V919.375H690.238V912.156H705.613V909.75H690.144ZM719.875 908.375C719.844 914.281 718.172 919.172 715.25 923.375H712.188C714.344 920.266 716.406 913.969 716.406 908.375C716.406 902.797 714.344 896.5 712.188 893.406H715.25C718.172 897.594 719.844 902.484 719.875 908.375Z" fill="white"/>
<path d="M819.973 982.859V985.867H816.613V996.453C818.098 996.336 819.523 996.199 820.91 996.023L821.066 998.836C814.328 999.891 806.477 1000.01 800.871 1000.01L800.402 996.922C801.711 996.922 803.156 996.922 804.66 996.902V985.867H801.379V982.859H819.973ZM805.988 1008.91C805.969 1004.83 810.422 1002.51 817.824 1002.51C825.207 1002.51 829.641 1004.83 829.66 1008.91C829.641 1012.92 825.207 1015.26 817.824 1015.24C810.422 1015.26 805.969 1012.92 805.988 1008.91ZM808.254 996.844C809.836 996.805 811.438 996.746 813.059 996.668V985.867H808.254V996.844ZM809.66 1008.91C809.641 1011.12 812.648 1012.37 817.824 1012.39C822.961 1012.37 825.969 1011.12 825.988 1008.91C825.969 1006.65 822.961 1005.38 817.824 1005.4C812.648 1005.38 809.641 1006.65 809.66 1008.91ZM820.48 995.75V992.781H825.832V989.383H820.48V986.414H825.832V980.32H829.543V1001.84H825.832V995.75H820.48ZM844.637 987.039C844.637 990.867 847.078 994.734 851.629 996.453L849.676 999.305C846.414 998.055 844.129 995.672 842.879 992.801C841.59 996.043 839.207 998.855 835.809 1000.32L833.777 997.43C838.504 995.379 841.043 990.926 841.043 987.039V982.508H844.637V987.039ZM840.223 1008.91C840.184 1004.93 844.734 1002.57 852.059 1002.55C859.363 1002.57 863.953 1004.93 863.973 1008.91C863.953 1012.9 859.363 1015.26 852.059 1015.24C844.734 1015.26 840.184 1012.9 840.223 1008.91ZM843.895 1008.91C843.855 1011.14 846.961 1012.43 852.059 1012.39C857.137 1012.43 860.242 1011.14 860.262 1008.91C860.242 1006.67 857.137 1005.38 852.059 1005.4C846.961 1005.38 843.855 1006.67 843.895 1008.91ZM852.723 1000.79V980.984H856.16V989.461H860.262V980.359H863.777V1001.88H860.262V992.508H856.16V1000.79H852.723ZM888.402 983.875V986.844H867.543V983.875H876.137V980.164H879.848V983.875H888.402ZM869.457 994.773C869.438 990.945 872.914 988.445 877.973 988.406C883.012 988.445 886.449 990.945 886.449 994.773C886.449 998.621 883.012 1001.14 877.973 1001.14C872.914 1001.14 869.438 998.621 869.457 994.773ZM871.879 1007V1003.99H895.004V1015.32H891.293V1007H871.879ZM873.051 994.773C873.012 996.941 875.004 998.25 877.973 998.25C880.941 998.25 882.934 996.941 882.973 994.773C882.934 992.625 880.941 991.277 877.973 991.258C875.004 991.277 873.012 992.625 873.051 994.773ZM891.293 1002.2V980.32H895.004V989.812H900.082V992.898H895.004V1002.2H891.293ZM908.691 1001.3V1005.01H925.137V1001.3H928.848V1014.89H905.02V1001.3H908.691ZM901.074 999.109V996.023H932.988V999.109H901.074ZM902.793 990.945C909.57 990.066 915.117 986.336 915.137 982.195V980.711H918.926V982.195C918.945 986.219 924.531 990.125 931.23 990.945L929.902 993.875C924.238 993.094 919.297 990.398 917.051 986.668C914.785 990.418 909.824 993.094 904.199 993.875L902.793 990.945ZM908.691 1011.92H925.137V1007.9H908.691V1011.92ZM963.629 980.32V998.328H959.957V980.32H963.629ZM934.762 995.203C940.23 993.387 943.57 988.797 943.59 983.953V981.258H947.379V983.953C947.359 988.641 950.719 992.898 956.09 994.578L954.254 997.469C950.172 996.141 947.105 993.387 945.523 989.832C943.941 993.66 940.816 996.707 936.637 998.133L934.762 995.203ZM940.66 1002.94V1000.01H963.668V1008.76H944.371V1012H964.84V1014.97H940.777V1005.95H959.996V1002.94H940.66ZM825.781 1041.38C825.812 1035.48 827.484 1030.59 830.406 1026.41H833.469C831.312 1029.5 829.25 1035.8 829.25 1041.38C829.25 1046.97 831.312 1053.27 833.469 1056.38H830.406C827.484 1052.17 825.812 1047.28 825.781 1041.38ZM843.106 1033.22C843.106 1037.58 845.138 1042.08 849.044 1044.12L847.356 1046.34C844.638 1044.91 842.747 1042.23 841.731 1039.08C840.747 1042.45 838.872 1045.38 836.169 1046.94L834.419 1044.75C838.278 1042.5 840.294 1037.73 840.325 1033.22V1032.19H835.138V1029.72H840.325V1025.66H843.106V1029.72H848.2V1032.19H843.106V1033.22ZM849.919 1051.28V1025.19H852.731V1035.78H856.075V1024.66H858.919V1052.66H856.075V1038.28H852.731V1051.28H849.919ZM874.338 1025.12C880.478 1025.14 884.322 1027.11 884.338 1030.47C884.322 1033.77 880.478 1035.72 874.338 1035.72C868.213 1035.72 864.322 1033.77 864.338 1030.47C864.322 1027.11 868.213 1025.14 874.338 1025.12ZM861.588 1040.03V1037.62H887.119V1040.03H875.806V1042.97H883.994V1052.31H864.65V1042.97H872.869V1040.03H861.588ZM867.4 1030.47C867.384 1032.34 870.025 1033.41 874.338 1033.41C878.619 1033.41 881.291 1032.34 881.275 1030.47C881.291 1028.53 878.619 1027.44 874.338 1027.44C870.025 1027.44 867.384 1028.53 867.4 1030.47ZM867.588 1049.91H881.119V1045.34H867.588V1049.91ZM889.412 1050V1047.5L897.256 1039.59C899.741 1037.02 900.975 1035.58 900.975 1033.59C900.975 1031.36 899.162 1029.94 896.787 1029.94C894.272 1029.94 892.678 1031.53 892.662 1033.94H889.412C889.381 1029.8 892.537 1027.06 896.85 1027.06C901.209 1027.06 904.225 1029.83 904.256 1033.5C904.225 1036.03 903.037 1038.05 898.787 1042.22L894.194 1046.88V1047.06H904.631V1050H889.412ZM929.863 1024.66V1039.06H926.925V1024.66H929.863ZM906.769 1036.56C911.144 1035.11 913.816 1031.44 913.831 1027.56V1025.41H916.863V1027.56C916.847 1031.31 919.534 1034.72 923.831 1036.06L922.363 1038.38C919.097 1037.31 916.644 1035.11 915.378 1032.27C914.113 1035.33 911.613 1037.77 908.269 1038.91L906.769 1036.56ZM911.488 1042.75V1040.41H929.894V1047.41H914.456V1050H930.831V1052.38H911.581V1045.16H926.956V1042.75H911.488ZM941.219 1041.38C941.188 1047.28 939.516 1052.17 936.594 1056.38H933.531C935.688 1053.27 937.75 1046.97 937.75 1041.38C937.75 1035.8 935.688 1029.5 933.531 1026.41H936.594C939.516 1030.59 941.188 1035.48 941.219 1041.38Z" fill="white"/>
<path d="M1287.97 719.859V722.867H1284.61V733.453C1286.1 733.336 1287.52 733.199 1288.91 733.023L1289.07 735.836C1282.33 736.891 1274.48 737.008 1268.87 737.008L1268.4 733.922C1269.71 733.922 1271.16 733.922 1272.66 733.902V722.867H1269.38V719.859H1287.97ZM1273.99 745.914C1273.97 741.832 1278.42 739.508 1285.82 739.508C1293.21 739.508 1297.64 741.832 1297.66 745.914C1297.64 749.918 1293.21 752.262 1285.82 752.242C1278.42 752.262 1273.97 749.918 1273.99 745.914ZM1276.25 733.844C1277.84 733.805 1279.44 733.746 1281.06 733.668V722.867H1276.25V733.844ZM1277.66 745.914C1277.64 748.121 1280.65 749.371 1285.82 749.391C1290.96 749.371 1293.97 748.121 1293.99 745.914C1293.97 743.648 1290.96 742.379 1285.82 742.398C1280.65 742.379 1277.64 743.648 1277.66 745.914ZM1288.48 732.75V729.781H1293.83V726.383H1288.48V723.414H1293.83V717.32H1297.54V738.844H1293.83V732.75H1288.48ZM1312.64 724.039C1312.64 727.867 1315.08 731.734 1319.63 733.453L1317.68 736.305C1314.41 735.055 1312.13 732.672 1310.88 729.801C1309.59 733.043 1307.21 735.855 1303.81 737.32L1301.78 734.43C1306.5 732.379 1309.04 727.926 1309.04 724.039V719.508H1312.64V724.039ZM1308.22 745.914C1308.18 741.93 1312.73 739.566 1320.06 739.547C1327.36 739.566 1331.95 741.93 1331.97 745.914C1331.95 749.898 1327.36 752.262 1320.06 752.242C1312.73 752.262 1308.18 749.898 1308.22 745.914ZM1311.89 745.914C1311.86 748.141 1314.96 749.43 1320.06 749.391C1325.14 749.43 1328.24 748.141 1328.26 745.914C1328.24 743.668 1325.14 742.379 1320.06 742.398C1314.96 742.379 1311.86 743.668 1311.89 745.914ZM1320.72 737.789V717.984H1324.16V726.461H1328.26V717.359H1331.78V738.883H1328.26V729.508H1324.16V737.789H1320.72ZM1356.4 720.875V723.844H1335.54V720.875H1344.14V717.164H1347.85V720.875H1356.4ZM1337.46 731.773C1337.44 727.945 1340.91 725.445 1345.97 725.406C1351.01 725.445 1354.45 727.945 1354.45 731.773C1354.45 735.621 1351.01 738.141 1345.97 738.141C1340.91 738.141 1337.44 735.621 1337.46 731.773ZM1339.88 744V740.992H1363V752.32H1359.29V744H1339.88ZM1341.05 731.773C1341.01 733.941 1343 735.25 1345.97 735.25C1348.94 735.25 1350.93 733.941 1350.97 731.773C1350.93 729.625 1348.94 728.277 1345.97 728.258C1343 728.277 1341.01 729.625 1341.05 731.773ZM1359.29 739.195V717.32H1363V726.812H1368.08V729.898H1363V739.195H1359.29ZM1376.69 738.297V742.008H1393.14V738.297H1396.85V751.891H1373.02V738.297H1376.69ZM1369.07 736.109V733.023H1400.99V736.109H1369.07ZM1370.79 727.945C1377.57 727.066 1383.12 723.336 1383.14 719.195V717.711H1386.93V719.195C1386.95 723.219 1392.53 727.125 1399.23 727.945L1397.9 730.875C1392.24 730.094 1387.3 727.398 1385.05 723.668C1382.79 727.418 1377.82 730.094 1372.2 730.875L1370.79 727.945ZM1376.69 748.922H1393.14V744.898H1376.69V748.922ZM1431.63 717.32V735.328H1427.96V717.32H1431.63ZM1402.76 732.203C1408.23 730.387 1411.57 725.797 1411.59 720.953V718.258H1415.38V720.953C1415.36 725.641 1418.72 729.898 1424.09 731.578L1422.25 734.469C1418.17 733.141 1415.11 730.387 1413.52 726.832C1411.94 730.66 1408.82 733.707 1404.64 735.133L1402.76 732.203ZM1408.66 739.938V737.008H1431.67V745.758H1412.37V749H1432.84V751.969H1408.78V742.945H1428V739.938H1408.66ZM1293.31 778.375C1293.34 772.484 1295.02 767.594 1297.94 763.406H1301C1298.84 766.5 1296.78 772.797 1296.78 778.375C1296.78 783.969 1298.84 790.266 1301 793.375H1297.94C1295.02 789.172 1293.34 784.281 1293.31 778.375ZM1328.42 772.656V775.094H1324.08V789.625H1321.11V761.656H1324.08V772.656H1328.42ZM1303.33 782.594V764.375H1306.26V780.125C1310.17 780.109 1314.25 779.781 1318.7 778.875L1319.04 781.375C1314.25 782.328 1309.84 782.609 1305.64 782.594H1303.33ZM1351.74 769.062V771.438H1332.53V762.156H1335.46V769.062H1351.74ZM1329.12 776.562V774.156H1354.68V776.562H1343.28V779.719H1351.46V789.281H1332.37V779.719H1340.37V776.562H1329.12ZM1335.28 786.906H1348.59V782.031H1335.28V786.906ZM1364.97 787.312C1360.29 787.312 1356.96 784.797 1356.82 781.094H1360.32C1360.44 783.078 1362.41 784.344 1364.94 784.344C1367.68 784.344 1369.66 782.859 1369.66 780.656C1369.66 778.422 1367.8 776.828 1364.57 776.812H1362.63V774H1364.57C1367.15 774.016 1368.94 772.578 1368.94 770.406C1368.94 768.344 1367.4 766.938 1365.01 766.938C1362.74 766.938 1360.71 768.203 1360.63 770.25H1357.32C1357.41 766.562 1360.82 764.062 1365.04 764.062C1369.49 764.062 1372.29 766.875 1372.26 770.219C1372.29 772.797 1370.69 774.641 1368.26 775.25V775.406C1371.35 775.844 1373.15 777.922 1373.13 780.781C1373.15 784.547 1369.66 787.312 1364.97 787.312ZM1398.33 761.656V776.062H1395.39V761.656H1398.33ZM1375.24 773.562C1379.61 772.109 1382.28 768.438 1382.3 764.562V762.406H1385.33V764.562C1385.32 768.312 1388 771.719 1392.3 773.062L1390.83 775.375C1387.57 774.312 1385.11 772.109 1383.85 769.266C1382.58 772.328 1380.08 774.766 1376.74 775.906L1375.24 773.562ZM1379.96 779.75V777.406H1398.36V784.406H1382.93V787H1399.3V789.375H1380.05V782.156H1395.43V779.75H1379.96ZM1409.69 778.375C1409.66 784.281 1407.98 789.172 1405.06 793.375H1402C1404.16 790.266 1406.22 783.969 1406.22 778.375C1406.22 772.797 1404.16 766.5 1402 763.406H1405.06C1407.98 767.594 1409.66 772.484 1409.69 778.375Z" fill="white"/>
<path d="M972.612 642V619.375H986.8V622.344H976.05V629.188H986.05V632.125H976.05V639.031H986.925V642H972.612ZM998.562 618.312L991.281 645.406H988.312L995.594 618.312H998.562ZM1002.61 619.375L1008.89 637.781H1009.14L1015.42 619.375H1019.14L1010.98 642H1007.01L998.887 619.375H1002.61Z" fill="white"/>
<path d="M1629.97 522.859V525.867H1626.61V536.453C1628.1 536.336 1629.52 536.199 1630.91 536.023L1631.07 538.836C1624.33 539.891 1616.48 540.008 1610.87 540.008L1610.4 536.922C1611.71 536.922 1613.16 536.922 1614.66 536.902V525.867H1611.38V522.859H1629.97ZM1615.99 548.914C1615.97 544.832 1620.42 542.508 1627.82 542.508C1635.21 542.508 1639.64 544.832 1639.66 548.914C1639.64 552.918 1635.21 555.262 1627.82 555.242C1620.42 555.262 1615.97 552.918 1615.99 548.914ZM1618.25 536.844C1619.84 536.805 1621.44 536.746 1623.06 536.668V525.867H1618.25V536.844ZM1619.66 548.914C1619.64 551.121 1622.65 552.371 1627.82 552.391C1632.96 552.371 1635.97 551.121 1635.99 548.914C1635.97 546.648 1632.96 545.379 1627.82 545.398C1622.65 545.379 1619.64 546.648 1619.66 548.914ZM1630.48 535.75V532.781H1635.83V529.383H1630.48V526.414H1635.83V520.32H1639.54V541.844H1635.83V535.75H1630.48ZM1654.64 527.039C1654.64 530.867 1657.08 534.734 1661.63 536.453L1659.68 539.305C1656.41 538.055 1654.13 535.672 1652.88 532.801C1651.59 536.043 1649.21 538.855 1645.81 540.32L1643.78 537.43C1648.5 535.379 1651.04 530.926 1651.04 527.039V522.508H1654.64V527.039ZM1650.22 548.914C1650.18 544.93 1654.73 542.566 1662.06 542.547C1669.36 542.566 1673.95 544.93 1673.97 548.914C1673.95 552.898 1669.36 555.262 1662.06 555.242C1654.73 555.262 1650.18 552.898 1650.22 548.914ZM1653.89 548.914C1653.86 551.141 1656.96 552.43 1662.06 552.391C1667.14 552.43 1670.24 551.141 1670.26 548.914C1670.24 546.668 1667.14 545.379 1662.06 545.398C1656.96 545.379 1653.86 546.668 1653.89 548.914ZM1662.72 540.789V520.984H1666.16V529.461H1670.26V520.359H1673.78V541.883H1670.26V532.508H1666.16V540.789H1662.72ZM1698.4 523.875V526.844H1677.54V523.875H1686.14V520.164H1689.85V523.875H1698.4ZM1679.46 534.773C1679.44 530.945 1682.91 528.445 1687.97 528.406C1693.01 528.445 1696.45 530.945 1696.45 534.773C1696.45 538.621 1693.01 541.141 1687.97 541.141C1682.91 541.141 1679.44 538.621 1679.46 534.773ZM1681.88 547V543.992H1705V555.32H1701.29V547H1681.88ZM1683.05 534.773C1683.01 536.941 1685 538.25 1687.97 538.25C1690.94 538.25 1692.93 536.941 1692.97 534.773C1692.93 532.625 1690.94 531.277 1687.97 531.258C1685 531.277 1683.01 532.625 1683.05 534.773ZM1701.29 542.195V520.32H1705V529.812H1710.08V532.898H1705V542.195H1701.29ZM1718.69 541.297V545.008H1735.14V541.297H1738.85V554.891H1715.02V541.297H1718.69ZM1711.07 539.109V536.023H1742.99V539.109H1711.07ZM1712.79 530.945C1719.57 530.066 1725.12 526.336 1725.14 522.195V520.711H1728.93V522.195C1728.95 526.219 1734.53 530.125 1741.23 530.945L1739.9 533.875C1734.24 533.094 1729.3 530.398 1727.05 526.668C1724.79 530.418 1719.82 533.094 1714.2 533.875L1712.79 530.945ZM1718.69 551.922H1735.14V547.898H1718.69V551.922ZM1773.63 520.32V538.328H1769.96V520.32H1773.63ZM1744.76 535.203C1750.23 533.387 1753.57 528.797 1753.59 523.953V521.258H1757.38V523.953C1757.36 528.641 1760.72 532.898 1766.09 534.578L1764.25 537.469C1760.17 536.141 1757.11 533.387 1755.52 529.832C1753.94 533.66 1750.82 536.707 1746.64 538.133L1744.76 535.203ZM1750.66 542.938V540.008H1773.67V548.758H1754.37V552H1774.84V554.969H1750.78V545.945H1770V542.938H1750.66ZM1635.78 581.375C1635.81 575.484 1637.48 570.594 1640.41 566.406H1643.47C1641.31 569.5 1639.25 575.797 1639.25 581.375C1639.25 586.969 1641.31 593.266 1643.47 596.375H1640.41C1637.48 592.172 1635.81 587.281 1635.78 581.375ZM1648.48 567.25V573.938H1653.83V567.25H1656.58V585.75H1645.67V567.25H1648.48ZM1648.48 583.344H1653.83V576.281H1648.48V583.344ZM1659.7 591.281V565.188H1662.51V575.625H1665.98V564.656H1668.83V592.656H1665.98V578.062H1662.51V591.281H1659.7ZM1684.34 565.125C1690.48 565.141 1694.32 567.109 1694.34 570.469C1694.32 573.766 1690.48 575.719 1684.34 575.719C1678.21 575.719 1674.32 573.766 1674.34 570.469C1674.32 567.109 1678.21 565.141 1684.34 565.125ZM1671.59 580.031V577.625H1697.12V580.031H1685.81V582.969H1693.99V592.312H1674.65V582.969H1682.87V580.031H1671.59ZM1677.4 570.469C1677.38 572.344 1680.03 573.406 1684.34 573.406C1688.62 573.406 1691.29 572.344 1691.28 570.469C1691.29 568.531 1688.62 567.438 1684.34 567.438C1680.03 567.438 1677.38 568.531 1677.4 570.469ZM1677.59 589.906H1691.12V585.344H1677.59V589.906ZM1699.41 590V587.5L1707.26 579.594C1709.74 577.016 1710.97 575.578 1710.97 573.594C1710.97 571.359 1709.16 569.938 1706.79 569.938C1704.27 569.938 1702.68 571.531 1702.66 573.938H1699.41C1699.38 569.797 1702.54 567.062 1706.85 567.062C1711.21 567.062 1714.22 569.828 1714.26 573.5C1714.22 576.031 1713.04 578.047 1708.79 582.219L1704.19 586.875V587.062H1714.63V590H1699.41ZM1739.86 564.656V579.062H1736.93V564.656H1739.86ZM1716.77 576.562C1721.14 575.109 1723.82 571.438 1723.83 567.562V565.406H1726.86V567.562C1726.85 571.312 1729.53 574.719 1733.83 576.062L1732.36 578.375C1729.1 577.312 1726.64 575.109 1725.38 572.266C1724.11 575.328 1721.61 577.766 1718.27 578.906L1716.77 576.562ZM1721.49 582.75V580.406H1739.89V587.406H1724.46V590H1740.83V592.375H1721.58V585.156H1736.96V582.75H1721.49ZM1751.22 581.375C1751.19 587.281 1749.52 592.172 1746.59 596.375H1743.53C1745.69 593.266 1747.75 586.969 1747.75 581.375C1747.75 575.797 1745.69 569.5 1743.53 566.406H1746.59C1749.52 570.594 1751.19 575.484 1751.22 581.375Z" fill="white"/>
<path d="M1502.75 216V192.562L1576.29 118.441C1599.58 94.2715 1611.15 80.7949 1611.15 62.1914C1611.15 41.2441 1594.16 27.9141 1571.89 27.9141C1548.31 27.9141 1533.37 42.8555 1533.22 65.4141H1502.75C1502.46 26.5957 1532.05 0.960938 1572.48 0.960938C1613.35 0.960938 1641.62 26.8887 1641.91 61.3125C1641.62 85.043 1630.49 103.939 1590.64 143.051L1547.58 186.703V188.461H1645.43V216H1502.75ZM1684.1 216V3.89062H1815.64V31.7227H1716.33V95.8828H1806.27V123.422H1716.33V216H1684.1Z" fill="white"/>
<defs>
<filter id="filter0_f_2710_3987" x="364" y="396" width="80" height="30" filterUnits="userSpaceOnUse" color-interpolation-filters="sRGB">
<feFlood flood-opacity="0" result="BackgroundImageFix"/>
<feBlend mode="normal" in="SourceGraphic" in2="BackgroundImageFix" result="shape"/>
<feGaussianBlur stdDeviation="2.5" result="effect1_foregroundBlur_2710_3987"/>
</filter>
<filter id="filter1_f_2710_3987" x="823" y="735" width="80" height="30" filterUnits="userSpaceOnUse" color-interpolation-filters="sRGB">
<feFlood flood-opacity="0" result="BackgroundImageFix"/>
<feBlend mode="normal" in="SourceGraphic" in2="BackgroundImageFix" result="shape"/>
<feGaussianBlur stdDeviation="2.5" result="effect1_foregroundBlur_2710_3987"/>
</filter>
<filter id="filter2_f_2710_3987" x="1122" y="836" width="80" height="30" filterUnits="userSpaceOnUse" color-interpolation-filters="sRGB">
<feFlood flood-opacity="0" result="BackgroundImageFix"/>
<feBlend mode="normal" in="SourceGraphic" in2="BackgroundImageFix" result="shape"/>
<feGaussianBlur stdDeviation="2.5" result="effect1_foregroundBlur_2710_3987"/>
</filter>
<filter id="filter3_f_2710_3987" x="1311" y="948" width="80" height="30" filterUnits="userSpaceOnUse" color-interpolation-filters="sRGB">
<feFlood flood-opacity="0" result="BackgroundImageFix"/>
<feBlend mode="normal" in="SourceGraphic" in2="BackgroundImageFix" result="shape"/>
<feGaussianBlur stdDeviation="2.5" result="effect1_foregroundBlur_2710_3987"/>
</filter>
<filter id="filter4_f_2710_3987" x="625" y="1078" width="80" height="30" filterUnits="userSpaceOnUse" color-interpolation-filters="sRGB">
<feFlood flood-opacity="0" result="BackgroundImageFix"/>
<feBlend mode="normal" in="SourceGraphic" in2="BackgroundImageFix" result="shape"/>
<feGaussianBlur stdDeviation="2.5" result="effect1_foregroundBlur_2710_3987"/>
</filter>
<filter id="filter5_f_2710_3987" x="844" y="1211" width="80" height="30" filterUnits="userSpaceOnUse" color-interpolation-filters="sRGB">
<feFlood flood-opacity="0" result="BackgroundImageFix"/>
<feBlend mode="normal" in="SourceGraphic" in2="BackgroundImageFix" result="shape"/>
<feGaussianBlur stdDeviation="2.5" result="effect1_foregroundBlur_2710_3987"/>
</filter>
<filter id="filter6_f_2710_3987" x="705" y="208" width="80" height="30" filterUnits="userSpaceOnUse" color-interpolation-filters="sRGB">
<feFlood flood-opacity="0" result="BackgroundImageFix"/>
<feBlend mode="normal" in="SourceGraphic" in2="BackgroundImageFix" result="shape"/>
<feGaussianBlur stdDeviation="2.5" result="effect1_foregroundBlur_2710_3987"/>
</filter>
<filter id="filter7_f_2710_3987" x="1388" y="597" width="80" height="30" filterUnits="userSpaceOnUse" color-interpolation-filters="sRGB">
<feFlood flood-opacity="0" result="BackgroundImageFix"/>
<feBlend mode="normal" in="SourceGraphic" in2="BackgroundImageFix" result="shape"/>
<feGaussianBlur stdDeviation="2.5" result="effect1_foregroundBlur_2710_3987"/>
</filter>
<filter id="filter8_f_2710_3987" x="1653" y="751" width="80" height="30" filterUnits="userSpaceOnUse" color-interpolation-filters="sRGB">
<feFlood flood-opacity="0" result="BackgroundImageFix"/>
<feBlend mode="normal" in="SourceGraphic" in2="BackgroundImageFix" result="shape"/>
<feGaussianBlur stdDeviation="2.5" result="effect1_foregroundBlur_2710_3987"/>
</filter>
<linearGradient id="paint0_linear_2710_3987" x1="435.703" y1="278.156" x2="373.25" y2="385.663" gradientUnits="userSpaceOnUse">
<stop offset="0.144416" stop-color="#C41818"/>
<stop offset="1" stop-color="#072B24"/>
</linearGradient>
<linearGradient id="paint1_linear_2710_3987" x1="894.703" y1="617.156" x2="832.25" y2="724.663" gradientUnits="userSpaceOnUse">
<stop offset="0.144416" stop-color="#C41818"/>
<stop offset="1" stop-color="#072B24"/>
</linearGradient>
<linearGradient id="paint2_linear_2710_3987" x1="1193.7" y1="718.156" x2="1131.25" y2="825.663" gradientUnits="userSpaceOnUse">
<stop offset="0.144416" stop-color="#C41818"/>
<stop offset="1" stop-color="#072B24"/>
</linearGradient>
<linearGradient id="paint3_linear_2710_3987" x1="1382.7" y1="830.156" x2="1320.25" y2="937.663" gradientUnits="userSpaceOnUse">
<stop offset="0.144416" stop-color="#C41818"/>
<stop offset="1" stop-color="#072B24"/>
</linearGradient>
<linearGradient id="paint4_linear_2710_3987" x1="696.703" y1="960.156" x2="634.25" y2="1067.66" gradientUnits="userSpaceOnUse">
<stop offset="0.144416" stop-color="#C41818"/>
<stop offset="1" stop-color="#072B24"/>
</linearGradient>
<linearGradient id="paint5_linear_2710_3987" x1="915.703" y1="1093.16" x2="853.25" y2="1200.66" gradientUnits="userSpaceOnUse">
<stop offset="0.144416" stop-color="#C41818"/>
<stop offset="1" stop-color="#072B24"/>
</linearGradient>
<linearGradient id="paint6_linear_2710_3987" x1="776.703" y1="90.1559" x2="714.25" y2="197.663" gradientUnits="userSpaceOnUse">
<stop offset="0.144416" stop-color="#C41818"/>
<stop offset="1" stop-color="#072B24"/>
</linearGradient>
<linearGradient id="paint7_linear_2710_3987" x1="1459.7" y1="479.156" x2="1397.25" y2="586.663" gradientUnits="userSpaceOnUse">
<stop offset="0.144416" stop-color="#C41818"/>
<stop offset="1" stop-color="#072B24"/>
</linearGradient>
<linearGradient id="paint8_linear_2710_3987" x1="1724.7" y1="633.156" x2="1662.25" y2="740.663" gradientUnits="userSpaceOnUse">
<stop offset="0.144416" stop-color="#C41818"/>
<stop offset="1" stop-color="#072B24"/>
</linearGradient>
</defs>
</svg>
