<svg width="96" height="97" viewBox="0 0 96 97" fill="none" xmlns="http://www.w3.org/2000/svg">
<g id="Home" clip-path="url(#clip0_2034_4208)">
<path id="Vector" d="M47.6426 8.875C32.6363 8.875 20.3878 21.4348 20.3878 36.8224C20.3878 42.0668 21.8344 46.9683 24.3042 51.1704L10 66.5867L25.0875 71.8971L30.365 88.1321L47.6426 70.4155L64.9202 88.1321L70.1901 71.9205L86 66.5166L70.9962 51.1314C73.4531 46.9371 74.8973 42.052 74.8973 36.8224C74.8973 21.4348 62.6488 8.875 47.6426 8.875ZM47.6426 16.86C58.4404 16.86 67.1103 25.7502 67.1103 36.8224C67.1103 47.8947 58.4404 56.7849 47.6426 56.7849C36.8448 56.7849 28.1749 47.8947 28.1749 36.8224C28.1749 25.7502 36.8448 16.86 47.6426 16.86ZM39.8555 24.845V32.8299H43.749V48.7999H51.5361V24.845H39.8555ZM66.0532 57.3541L71.5817 63.0231L64.0304 65.6042L61.5133 73.3475L52.6616 64.2708C57.7708 63.2871 62.3689 60.8318 66.0532 57.3541ZM29.2776 57.3931C32.9546 60.8491 37.5345 63.291 42.6236 64.2708L33.7719 73.3475L31.2624 65.6276L24.0076 63.0699L29.2776 57.3931Z" fill="white"/>
</g>
<defs>
<clipPath id="clip0_2034_4208">
<rect width="96" height="96" fill="white" transform="translate(0 0.5)"/>
</clipPath>
</defs>
</svg>
