<svg width="68" height="69" viewBox="0 0 68 69" fill="none" xmlns="http://www.w3.org/2000/svg">
<path d="M14.1411 11.6038C13.5775 11.6039 13.0267 11.7722 12.5592 12.087C12.0917 12.4018 11.7286 12.8489 11.5165 13.3711C11.3044 13.8933 11.2529 14.4669 11.3685 15.0186C11.4841 15.5703 11.7616 16.0749 12.1656 16.468L29.9956 34.2981L12.1656 52.1282C11.8936 52.3893 11.6765 52.702 11.527 53.048C11.3774 53.394 11.2984 53.7664 11.2946 54.1434C11.2907 54.5203 11.3622 54.8942 11.5046 55.2433C11.6471 55.5923 11.8578 55.9093 12.1244 56.1759C12.3909 56.4424 12.708 56.6531 13.057 56.7956C13.406 56.9381 13.7799 57.0095 14.1569 57.0057C14.5338 57.0018 14.9062 56.9228 15.2523 56.7733C15.5983 56.6237 15.911 56.4066 16.1721 56.1347L34.0022 38.3046L51.8322 56.1347C52.0933 56.4066 52.406 56.6237 52.752 56.7733C53.0981 56.9228 53.4705 57.0019 53.8474 57.0057C54.2244 57.0095 54.5983 56.9381 54.9473 56.7956C55.2963 56.6531 55.6134 56.4424 55.8799 56.1759C56.1465 55.9093 56.3572 55.5923 56.4997 55.2433C56.6422 54.8943 56.7136 54.5203 56.7097 54.1434C56.7059 53.7664 56.6269 53.394 56.4773 53.048C56.3278 52.702 56.1107 52.3893 55.8387 52.1282L38.0087 34.2981L55.8387 16.468C56.2482 16.0701 56.5278 15.5577 56.641 14.998C56.7542 14.4384 56.6958 13.8576 56.4732 13.3318C56.2507 12.806 55.8745 12.3596 55.3939 12.0513C54.9134 11.7429 54.3509 11.5869 53.7801 11.6038C53.0441 11.6257 52.3454 11.9333 51.8322 12.4615L34.0022 30.2916L16.1721 12.4615C15.908 12.1901 15.5923 11.9744 15.2435 11.827C14.8946 11.6797 14.5198 11.6038 14.1411 11.6038Z" fill="#6B7684"/>
</svg>
