<svg xmlns="http://www.w3.org/2000/svg" width="96" height="97" viewBox="0 0 96 97" fill="none">
    <path d="M84.6784 8.74049C81.8112 8.24662 78.9078 7.99241 75.9984 7.98049C66.0718 7.97235 56.3523 10.8188 47.9984 16.1805C39.623 10.8892 29.905 8.11261 19.9984 8.18049C17.089 8.19241 14.1856 8.44662 11.3184 8.94049C10.3792 9.1024 9.52871 9.59432 8.92004 10.3277C8.31137 11.061 7.98453 11.9876 7.99839 12.9405V60.9405C7.98982 61.5282 8.11089 62.1106 8.35299 62.6463C8.59508 63.1819 8.95225 63.6576 9.39908 64.0395C9.84591 64.4214 10.3714 64.7001 10.9382 64.8558C11.505 65.0116 12.0992 65.0405 12.6784 64.9405C18.4105 63.948 24.2832 64.1127 29.9506 65.4248C35.6181 66.7369 40.9657 69.1699 45.6784 72.5805L46.1584 72.8605H46.5984C47.042 73.0453 47.5178 73.1405 47.9984 73.1405C48.479 73.1405 48.9548 73.0453 49.3984 72.8605H49.8384L50.3184 72.5805C54.9982 69.0937 60.3304 66.5818 65.999 65.1939C71.6675 63.806 77.557 63.5702 83.3184 64.5005C83.8976 64.6005 84.4918 64.5716 85.0586 64.4158C85.6254 64.2601 86.1509 63.9814 86.5977 63.5995C87.0445 63.2176 87.4017 62.7419 87.6438 62.2062C87.8859 61.6706 88.007 61.0882 87.9984 60.5005V12.5005C87.9568 11.5891 87.6048 10.7193 87.001 10.0354C86.3971 9.35155 85.5776 8.89463 84.6784 8.74049ZM43.9984 61.9005C36.5979 58.0072 28.3605 55.9753 19.9984 55.9805C18.6784 55.9805 17.3584 55.9805 15.9984 55.9805V15.9805C17.3306 15.9037 18.6662 15.9037 19.9984 15.9805C28.5319 15.9711 36.8792 18.4753 43.9984 23.1805V61.9005ZM79.9984 56.1405C78.6384 56.1405 77.3184 56.1405 75.9984 56.1405C67.6363 56.1353 59.3989 58.1672 51.9984 62.0605V23.1805C59.1175 18.4753 67.4648 15.9711 75.9984 15.9805C77.3306 15.9037 78.6662 15.9037 79.9984 15.9805V56.1405ZM84.6784 72.7405C81.8112 72.2466 78.9078 71.9924 75.9984 71.9805C66.0718 71.9724 56.3523 74.8188 47.9984 80.1805C39.6444 74.8188 29.9249 71.9724 19.9984 71.9805C17.089 71.9924 14.1856 72.2466 11.3184 72.7405C10.7977 72.8231 10.2985 73.0079 9.84943 73.2841C9.40039 73.5603 9.01039 73.9226 8.70185 74.3501C8.39331 74.7776 8.17233 75.2619 8.0516 75.7751C7.93087 76.2883 7.91279 76.8203 7.99839 77.3405C8.20166 78.3792 8.80835 79.2951 9.68555 79.8874C10.5627 80.4797 11.6389 80.7001 12.6784 80.5005C18.4105 79.508 24.2832 79.6727 29.9506 80.9848C35.6181 82.2969 40.9657 84.7299 45.6784 88.1405C46.3558 88.6228 47.1668 88.882 47.9984 88.882C48.83 88.882 49.6409 88.6228 50.3184 88.1405C55.0311 84.7299 60.3787 82.2969 66.0461 80.9848C71.7136 79.6727 77.5863 79.508 83.3184 80.5005C84.3578 80.7001 85.434 80.4797 86.3112 79.8874C87.1884 79.2951 87.7951 78.3792 87.9984 77.3405C88.084 76.8203 88.0659 76.2883 87.9452 75.7751C87.8244 75.2619 87.6035 74.7776 87.2949 74.3501C86.9864 73.9226 86.5964 73.5603 86.1473 73.2841C85.6983 73.0079 85.1991 72.8231 84.6784 72.7405Z" fill="#191F28"/>
</svg>