<svg xmlns="http://www.w3.org/2000/svg" width="96" height="97" viewBox="0 0 96 97" fill="none">
    <g clip-path="url(#clip0_1869_10252)">
        <path d="M36 48.5C43.72 48.5 50 42.22 50 34.5C50 26.78 43.72 20.5 36 20.5C28.28 20.5 22 26.78 22 34.5C22 42.22 28.28 48.5 36 48.5ZM36 28.5C39.32 28.5 42 31.18 42 34.5C42 37.82 39.32 40.5 36 40.5C32.68 40.5 30 37.82 30 34.5C30 31.18 32.68 28.5 36 28.5ZM36.2 68.5H19.08C23.04 66.5 29.88 64.5 36 64.5C36.44 64.5 36.92 64.54 37.36 64.54C38.72 61.62 41.08 59.22 43.92 57.3C41 56.78 38.24 56.5 36 56.5C26.64 56.5 8 61.18 8 70.5V76.5H36V70.5C36 69.82 36.08 69.14 36.2 68.5ZM66 58.5C58.64 58.5 44 62.54 44 70.5V76.5H88V70.5C88 62.54 73.36 58.5 66 58.5ZM70.84 51.22C73.88 49.5 76 46.26 76 42.5C76 36.98 71.52 32.5 66 32.5C60.48 32.5 56 36.98 56 42.5C56 46.26 58.12 49.5 61.16 51.22C62.6 52.02 64.24 52.5 66 52.5C67.76 52.5 69.4 52.02 70.84 51.22Z" fill="#191F28"/>
    </g>
    <defs>
        <clipPath id="clip0_1869_10252">
            <rect width="96" height="96" fill="white" transform="translate(0 0.5)"/>
        </clipPath>
    </defs>
</svg>