<svg xmlns="http://www.w3.org/2000/svg" width="96" height="97" viewBox="0 0 96 97" fill="none">
    <path d="M84.6803 8.74049C81.8131 8.24662 78.9098 7.99241 76.0003 7.98049C66.0738 7.97235 56.3543 10.8188 48.0003 16.1805C39.6249 10.8892 29.9069 8.11261 20.0003 8.18049C17.0909 8.19241 14.1876 8.44662 11.3203 8.94049C10.3812 9.1024 9.53066 9.59432 8.92199 10.3277C8.31332 11.061 7.98648 11.9876 8.00034 12.9405V60.9405C7.99177 61.5282 8.11284 62.1106 8.35494 62.6463C8.59703 63.1819 8.9542 63.6576 9.40103 64.0395C9.84786 64.4214 10.3734 64.7001 10.9402 64.8558C11.507 65.0116 12.1011 65.0405 12.6803 64.9405C18.4124 63.948 24.2851 64.1127 29.9526 65.4248C35.6201 66.7369 40.9676 69.1699 45.6803 72.5805L46.1603 72.8605H46.6003C47.0439 73.0453 47.5198 73.1405 48.0003 73.1405C48.4809 73.1405 48.9567 73.0453 49.4003 72.8605H49.8403L50.3203 72.5805C55.0002 69.0937 60.3324 66.5818 66.0009 65.1939C71.6695 63.806 77.559 63.5702 83.3203 64.5005C83.8996 64.6005 84.4937 64.5716 85.0605 64.4158C85.6273 64.2601 86.1528 63.9814 86.5996 63.5995C87.0465 63.2176 87.4036 62.7419 87.6457 62.2062C87.8878 61.6706 88.0089 61.0882 88.0003 60.5005V12.5005C87.9587 11.5891 87.6068 10.7193 87.0029 10.0354C86.3991 9.35155 85.5796 8.89463 84.6803 8.74049ZM44.0003 61.9005C36.5999 58.0072 28.3624 55.9753 20.0003 55.9805C18.6803 55.9805 17.3603 55.9805 16.0003 55.9805V15.9805C17.3326 15.9037 18.6681 15.9037 20.0003 15.9805C28.5339 15.9711 36.8812 18.4753 44.0003 23.1805V61.9005ZM80.0003 56.1405C78.6403 56.1405 77.3203 56.1405 76.0003 56.1405C67.6383 56.1353 59.4008 58.1672 52.0003 62.0605V23.1805C59.1195 18.4753 67.4668 15.9711 76.0003 15.9805C77.3326 15.9037 78.6681 15.9037 80.0003 15.9805V56.1405ZM84.6803 72.7405C81.8131 72.2466 78.9098 71.9924 76.0003 71.9805C66.0738 71.9724 56.3543 74.8188 48.0003 80.1805C39.6464 74.8188 29.9269 71.9724 20.0003 71.9805C17.0909 71.9924 14.1876 72.2466 11.3203 72.7405C10.7996 72.8231 10.3004 73.0079 9.85139 73.2841C9.40235 73.5603 9.01234 73.9226 8.7038 74.3501C8.39527 74.7776 8.17428 75.2619 8.05355 75.7751C7.93283 76.2883 7.91474 76.8203 8.00034 77.3405C8.20361 78.3792 8.8103 79.2951 9.6875 79.8874C10.5647 80.4797 11.6409 80.7001 12.6803 80.5005C18.4124 79.508 24.2851 79.6727 29.9526 80.9848C35.6201 82.2969 40.9676 84.7299 45.6803 88.1405C46.3578 88.6228 47.1687 88.882 48.0003 88.882C48.832 88.882 49.6429 88.6228 50.3203 88.1405C55.033 84.7299 60.3806 82.2969 66.0481 80.9848C71.7155 79.6727 77.5883 79.508 83.3203 80.5005C84.3598 80.7001 85.436 80.4797 86.3132 79.8874C87.1904 79.2951 87.7971 78.3792 88.0003 77.3405C88.0859 76.8203 88.0678 76.2883 87.9471 75.7751C87.8264 75.2619 87.6054 74.7776 87.2969 74.3501C86.9883 73.9226 86.5983 73.5603 86.1493 73.2841C85.7002 73.0079 85.201 72.8231 84.6803 72.7405Z" fill="#ADB5BD"/>
</svg>