<svg width="484" height="348" viewBox="0 0 484 348" fill="none" xmlns="http://www.w3.org/2000/svg">
<path d="M437.936 225.163L413.468 239.12M421.528 220.703L445.708 234.516M417.498 223.005L441.678 236.818M413.468 225.307L437.648 239.12M409.438 227.609L433.618 241.422M405.408 229.911L429.588 243.724M413.468 239.12L425.558 246.027M413.468 239.12L405.408 243.769" stroke="#333D4B" stroke-width="0.738469" stroke-linecap="round" stroke-linejoin="round"/>
<g filter="url(#filter0_d_2036_1813)">
<path d="M139.43 4.29688L14.5 75.6645L199.88 181.565L95.0999 241.422L240.18 324.3L469.889 193.076L139.43 4.29688Z" stroke="#333D4B" stroke-width="2.46156" stroke-linejoin="round" shape-rendering="crispEdges"/>
</g>
<path d="M457.802 227.606L433.622 213.792L385.262 241.419L409.442 255.232L457.802 227.606Z" stroke="#333D4B" stroke-width="0.984625" stroke-linejoin="round"/>
<path d="M292.57 82.5737L248.24 107.898M316.75 96.3868L272.42 121.711" stroke="#333D4B" stroke-width="0.984625" stroke-linecap="round" stroke-linejoin="round"/>
<path d="M296.889 93.939L272.421 107.896M280.481 89.4785L304.661 103.292M276.451 91.7807L300.631 105.594M272.421 94.0829L296.601 107.896M268.391 96.3851L292.571 110.198M264.361 98.6872L288.541 112.5M272.421 107.896L284.511 114.803M272.421 107.896L264.438 112.5" stroke="#333D4B" stroke-width="0.738469" stroke-linecap="round" stroke-linejoin="round"/>
<path d="M276.45 119.405L252.27 105.592L248.24 107.894L272.42 121.708L276.45 119.405Z" stroke="#333D4B" stroke-width="0.738469" stroke-linejoin="round"/>
<path d="M232.12 163.144L171.671 128.611L167.641 130.913L228.091 165.446L232.12 163.144Z" stroke="#333D4B" stroke-width="0.738469" stroke-linejoin="round"/>
<path d="M240.181 158.545L199.881 181.567L175.701 195.38L207.941 213.798L272.421 176.963L240.181 158.545Z" stroke="#333D4B" stroke-width="1.47694" stroke-linejoin="round"/>
<path d="M296.602 236.818L344.961 264.444L417.501 223.005L369.141 195.379L296.602 236.818Z" stroke="#333D4B" stroke-width="1.47694" stroke-linejoin="round"/>
<path d="M385.262 186.17L433.622 213.796L469.892 193.076L421.532 165.45L385.262 186.17Z" stroke="#333D4B" stroke-width="1.47694" stroke-linejoin="round"/>
<path d="M272.422 121.707L304.662 140.124L340.932 119.405L308.692 100.987L272.422 121.707Z" stroke="#333D4B" stroke-width="0.984625" stroke-linejoin="round"/>
<path d="M216 89.4789L248.24 107.896L284.51 87.1767L252.27 68.7593L216 89.4789Z" stroke="#333D4B" stroke-width="0.984625" stroke-linejoin="round"/>
<path d="M304.656 140.127L385.256 186.17L421.526 165.451L340.926 119.407L304.656 140.127Z" stroke="#333D4B" stroke-width="1.47694" stroke-linejoin="round"/>
<path d="M103.16 25.0165L216 89.4776L252.27 68.758L139.43 4.29688L103.16 25.0165Z" stroke="#333D4B" stroke-width="1.47694" stroke-linejoin="round"/>
<path d="M103.16 25.0161L14.5 75.6641L139.43 147.032L207.94 107.895L159.58 80.2685L179.73 68.7576L103.16 25.0161Z" stroke="#333D4B" stroke-width="1.47694" stroke-linejoin="round"/>
<path d="M248.24 209.189L296.6 236.815L369.14 195.376L320.78 167.75L248.24 209.189Z" stroke="#333D4B" stroke-width="1.47694" stroke-linejoin="round"/>
<path d="M240.182 158.541L256.302 167.75L276.452 156.239L260.332 147.03L240.182 158.541Z" stroke="#333D4B" stroke-width="0.984625" stroke-linejoin="round"/>
<path d="M95.0996 241.423L175.699 195.379L272.419 250.631L191.819 296.675L95.0996 241.423Z" stroke="#333D4B" stroke-width="1.47694" stroke-linejoin="round"/>
<path d="M240.18 324.301L191.82 296.675L272.42 250.631L320.78 278.258L240.18 324.301Z" stroke="#333D4B" stroke-width="1.47694" stroke-linejoin="round"/>
<g style="mix-blend-mode:plus-darker" filter="url(#filter1_f_2036_1813)">
<ellipse cx="196.653" cy="56.9743" rx="8.61547" ry="2.46156" fill="#D9D9D9" fill-opacity="0.5"/>
</g>
<path d="M210.194 34.1523C210.194 41.6675 207.703 43.3207 196.656 56.9761C185.662 43.4371 183.117 41.6675 183.117 34.1523C183.117 26.6372 189.179 20.5449 196.656 20.5449C204.133 20.5449 210.194 26.6372 210.194 34.1523Z" fill="url(#paint0_linear_2036_1813)"/>
<rect x="187.316" y="24.8462" width="18.6739" height="18.6826" rx="9.33696" fill="white"/>
<path d="M198.019 37.6875H196.422V31.5422H196.379L194.624 32.6423V31.2355L196.517 30.0297H198.019V37.6875Z" fill="#191F28"/>
<path d="M253.274 154.162H256.767V154.893H254.12V156.578H256.582V157.301H254.12V159.001H256.797V159.731H253.274V154.162ZM257.87 160.57H257.139L258.931 153.901H259.662L257.87 160.57ZM262.204 158.693H262.265L263.811 154.162H264.727L262.719 159.731H261.742L259.742 154.162H260.657L262.204 158.693Z" fill="#191F28"/>
<defs>
<filter id="filter0_d_2036_1813" x="0.961714" y="0.604354" width="482.465" height="347.08" filterUnits="userSpaceOnUse" color-interpolation-filters="sRGB">
<feFlood flood-opacity="0" result="BackgroundImageFix"/>
<feColorMatrix in="SourceAlpha" type="matrix" values="0 0 0 0 0 0 0 0 0 0 0 0 0 0 0 0 0 0 127 0" result="hardAlpha"/>
<feOffset dy="9.84625"/>
<feGaussianBlur stdDeviation="6.15391"/>
<feComposite in2="hardAlpha" operator="out"/>
<feColorMatrix type="matrix" values="0 0 0 0 0 0 0 0 0 0 0 0 0 0 0 0 0 0 0.25 0"/>
<feBlend mode="normal" in2="BackgroundImageFix" result="effect1_dropShadow_2036_1813"/>
<feBlend mode="normal" in="SourceGraphic" in2="effect1_dropShadow_2036_1813" result="shape"/>
</filter>
<filter id="filter1_f_2036_1813" x="186.806" y="53.2819" width="19.692" height="7.3849" filterUnits="userSpaceOnUse" color-interpolation-filters="sRGB">
<feFlood flood-opacity="0" result="BackgroundImageFix"/>
<feBlend mode="normal" in="SourceGraphic" in2="BackgroundImageFix" result="shape"/>
<feGaussianBlur stdDeviation="0.615391" result="effect1_foregroundBlur_2036_1813"/>
</filter>
<linearGradient id="paint0_linear_2036_1813" x1="204.46" y1="24.2756" x2="189.087" y2="50.7391" gradientUnits="userSpaceOnUse">
<stop offset="0.144416" stop-color="#C41818"/>
<stop offset="1" stop-color="#072B24"/>
</linearGradient>
</defs>
</svg>
