<svg width="96" height="97" viewBox="0 0 96 97" fill="none" xmlns="http://www.w3.org/2000/svg">
<g id="Bookmark">
<path id="Vector" d="M30.5 13.5C24.7426 13.5 20 18.2426 20 24V73C20 78.7574 24.7426 83.5 30.5 83.5H76V76.5H30.5C28.5224 76.5 27 74.9776 27 73C27 71.0224 28.5224 69.5 30.5 69.5H76V62.5V13.5H62H41H30.5ZM30.5 20.5H41V48.9307L46.5098 45.0684L51.5 41.5615L62 48.9307V20.5H69V62.5H30.5C29.2686 62.5 28.1021 62.7588 27 63.1562V24C27 22.0224 28.5224 20.5 30.5 20.5ZM48 20.5H55V35.4707L51.5 33.0166L48 35.4707V20.5Z" fill="white"/>
</g>
</svg>
