<?xml version="1.0" encoding="utf-8"?>
<!-- Generator: Adobe Illustrator 24.0.1, SVG Export Plug-In . SVG Version: 6.00 Build 0)  -->
<svg version="1.1" id="레이어_1" xmlns="http://www.w3.org/2000/svg" xmlns:xlink="http://www.w3.org/1999/xlink" x="0px"
	 y="0px" viewBox="0 0 96 97" style="enable-background:new 0 0 96 97;" xml:space="preserve">
<style type="text/css">
	.st0{clip-path:url(#SVGID_2_);}
</style>
<g>
	<g>
		<defs>
			<rect id="SVGID_1_" y="0.5" width="96" height="96"/>
		</defs>
		<clipPath id="SVGID_2_">
			<use xlink:href="#SVGID_1_"  style="overflow:visible;"/>
		</clipPath>
		<g class="st0">
			<path d="M36,48.5c7.7,0,14-6.3,14-14s-6.3-14-14-14s-14,6.3-14,14S28.3,48.5,36,48.5z M36,28.5c3.3,0,6,2.7,6,6s-2.7,6-6,6
				s-6-2.7-6-6S32.7,28.5,36,28.5z M36.2,68.5H19.1c4-2,10.8-4,16.9-4c0.4,0,0.9,0,1.4,0c1.4-2.9,3.7-5.3,6.6-7.2
				c-2.9-0.5-5.7-0.8-7.9-0.8c-9.4,0-28,4.7-28,14v6h28v-6C36,69.8,36.1,69.1,36.2,68.5z M66,58.5c-7.4,0-22,4-22,12v6h44v-6
				C88,62.5,73.4,58.5,66,58.5z M70.8,51.2c3-1.7,5.2-5,5.2-8.7c0-5.5-4.5-10-10-10s-10,4.5-10,10c0,3.8,2.1,7,5.2,8.7
				c1.4,0.8,3.1,1.3,4.8,1.3S69.4,52,70.8,51.2z"/>
		</g>
	</g>
</g>
</svg>
