<?xml version="1.0" encoding="utf-8"?>
<!-- Generator: Adobe Illustrator 24.0.1, SVG Export Plug-In . SVG Version: 6.00 Build 0)  -->
<svg version="1.1" id="레이어_1" xmlns="http://www.w3.org/2000/svg" xmlns:xlink="http://www.w3.org/1999/xlink" x="0px"
	 y="0px" viewBox="0 0 80 81" style="enable-background:new 0 0 80 81;" xml:space="preserve">
<path d="M60,6.7H26.7c-3.5,0-6.9,1.4-9.4,3.9c-2.5,2.5-3.9,5.9-3.9,9.4v40c0,3.5,1.4,6.9,3.9,9.4c2.5,2.5,5.9,3.9,9.4,3.9H60
	c1.8,0,3.5-0.7,4.7-2c1.3-1.3,2-2.9,2-4.7V13.4c0-1.8-0.7-3.5-2-4.7C63.5,7.4,61.8,6.7,60,6.7z M20,20.1c0-1.8,0.7-3.5,2-4.7
	c1.3-1.3,2.9-2,4.7-2H60v33.3H26.7c-2.3,0-4.7,0.7-6.7,1.9V20.1z M26.7,66.7c-1.8,0-3.5-0.7-4.7-2c-1.3-1.3-2-2.9-2-4.7
	s0.7-3.5,2-4.7c1.3-1.3,2.9-2,4.7-2H60v13.3H26.7z M33.3,26.7h13.3c0.9,0,1.7-0.4,2.4-1c0.6-0.6,1-1.5,1-2.4s-0.4-1.7-1-2.4
	c-0.6-0.6-1.5-1-2.4-1H33.3c-0.9,0-1.7,0.4-2.4,1c-0.6,0.6-1,1.5-1,2.4s0.4,1.7,1,2.4C31.6,26.4,32.4,26.7,33.3,26.7z"/>
</svg>
