<?xml version="1.0" encoding="utf-8"?>
<!-- Generator: Adobe Illustrator 24.0.1, SVG Export Plug-In . SVG Version: 6.00 Build 0)  -->
<svg version="1.1" id="레이어_1" xmlns="http://www.w3.org/2000/svg" xmlns:xlink="http://www.w3.org/1999/xlink" x="0px"
	 y="0px" viewBox="0 0 96 97" style="enable-background:new 0 0 96 97;" xml:space="preserve">
<path d="M86.9,82.2L72,67.5c5.8-7.2,8.5-16.3,7.8-25.5c-0.8-9.2-5-17.7-11.8-23.8S52.2,8.8,43,9c-9.2,0.3-18,4-24.5,10.5
	C12,26,8.3,34.8,8,44c-0.3,9.2,3,18.1,9.2,25S31.9,80.1,41,80.8c9.2,0.8,18.3-2,25.5-7.8l14.7,14.7c0.4,0.4,0.8,0.7,1.3,0.9
	c0.5,0.2,1,0.3,1.5,0.3s1.1-0.1,1.5-0.3c0.5-0.2,0.9-0.5,1.3-0.9C87.6,87,88,86,88,85C88,83.9,87.6,82.9,86.9,82.2z M44.1,73
	c-5.5,0-10.9-1.6-15.5-4.7c-4.6-3.1-8.2-7.4-10.3-12.6S15.5,45,16.6,39.6c1.1-5.4,3.7-10.4,7.7-14.3c3.9-3.9,8.9-6.6,14.3-7.7
	c5.4-1.1,11.1-0.5,16.2,1.6s9.5,5.7,12.6,10.3c3.1,4.6,4.7,10,4.7,15.5c0,7.4-2.9,14.5-8.2,19.8C58.6,70.1,51.5,73,44.1,73z"/>
</svg>
