<svg width="104" height="104" viewBox="0 0 104 104" fill="none" xmlns="http://www.w3.org/2000/svg">
<g id="calendar-minus-01">
<path id="Icon" d="M39 64.9998H65M91 34.6665H13M69.3333 8.6665V21.6665M34.6667 8.6665V21.6665M33.8 95.3332H70.2C77.4807 95.3332 81.121 95.3332 83.9019 93.9163C86.348 92.6699 88.3367 90.6812 89.5831 88.235C91 85.4542 91 81.8139 91 74.5332V38.1332C91 30.8525 91 27.2121 89.5831 24.4313C88.3367 21.9852 86.348 19.9964 83.9019 18.7501C81.121 17.3332 77.4807 17.3332 70.2 17.3332H33.8C26.5193 17.3332 22.879 17.3332 20.0981 18.7501C17.652 19.9964 15.6633 21.9852 14.4169 24.4313C13 27.2121 13 30.8525 13 38.1332V74.5332C13 81.8139 13 85.4542 14.4169 88.235C15.6633 90.6812 17.652 92.6699 20.0981 93.9163C22.879 95.3332 26.5193 95.3332 33.8 95.3332Z" stroke="white" stroke-width="8.66667" stroke-linecap="round" stroke-linejoin="round"/>
</g>
</svg>
