<svg width="104" height="104" viewBox="0 0 104 104" fill="none" xmlns="http://www.w3.org/2000/svg">
<g id="pencil-02">
<path id="Icon" d="M77.9994 8.6665L95.3327 25.9998M8.66602 95.3332L14.1971 75.0526C14.5579 73.7294 14.7384 73.0679 15.0154 72.4509C15.2613 71.9032 15.5635 71.3824 15.9171 70.8972C16.3153 70.3506 16.8002 69.8657 17.7699 68.8959L62.548 24.1178C63.4061 23.2598 63.8351 22.8308 64.3298 22.67C64.765 22.5286 65.2337 22.5286 65.6689 22.67C66.1636 22.8308 66.5926 23.2598 67.4507 24.1178L79.8814 36.5485C80.7394 37.4066 81.1684 37.8356 81.3292 38.3303C81.4706 38.7655 81.4706 39.2342 81.3292 39.6694C81.1684 40.1641 80.7394 40.5931 79.8814 41.4511L35.1033 86.2293C34.1335 87.199 33.6486 87.6839 33.102 88.0821C32.6167 88.4357 32.096 88.7379 31.5482 88.9838C30.9313 89.2608 30.2698 89.4412 28.9466 89.8021L8.66602 95.3332Z" stroke="#4480F3" stroke-width="8.66667" stroke-linecap="round" stroke-linejoin="round"/>
</g>
</svg>
