<svg width="40" height="40" viewBox="0 0 40 40" fill="none" xmlns="http://www.w3.org/2000/svg">
<path fill-rule="evenodd" clip-rule="evenodd" d="M33.122 16.7914C33.122 19.895 32.0447 22.7469 30.2436 24.9936H30.2512C30.2512 24.9936 25.6902 31.097 22.1569 35.4188C21.0297 36.7976 18.9677 36.7971 17.8411 35.4177C14.3191 31.1055 9.76398 25.0069 9.76398 25.0069L9.75335 24.9936C7.9523 22.7469 6.875 19.895 6.875 16.7914C6.875 9.54355 12.7506 3.66797 19.9985 3.66797C27.2464 3.66797 33.122 9.54355 33.122 16.7914ZM24.8987 16.7346C24.8987 19.4408 22.7049 21.6346 19.9987 21.6346C17.2925 21.6346 15.0987 19.4408 15.0987 16.7346C15.0987 14.0284 17.2925 11.8346 19.9987 11.8346C22.7049 11.8346 24.8987 14.0284 24.8987 16.7346Z" fill="white"/>
</svg>
