<svg width="40" height="40" viewBox="0 0 40 40" fill="none" xmlns="http://www.w3.org/2000/svg">
<path fill-rule="evenodd" clip-rule="evenodd" d="M13.4719 5.3013C13.4719 4.39924 12.7406 3.66797 11.8385 3.66797C10.9365 3.66797 10.2052 4.39924 10.2052 5.3013V6.93464H8.57188C5.86568 6.93464 3.67188 9.12844 3.67188 11.8346V31.4346C3.67188 34.1408 5.86568 36.3346 8.57187 36.3346H31.4385C34.1447 36.3346 36.3385 34.1408 36.3385 31.4346V11.8346C36.3385 9.12844 34.1447 6.93464 31.4385 6.93464H29.8052V5.3013C29.8052 4.39924 29.0739 3.66797 28.1719 3.66797C27.2698 3.66797 26.5385 4.39924 26.5385 5.3013V6.93464H13.4719V5.3013ZM27.6935 19.5229C28.3313 18.8851 28.3313 17.8509 27.6935 17.213C27.0556 16.5752 26.0215 16.5752 25.3836 17.213L18.3719 24.2248L15.4435 21.2964C14.8056 20.6585 13.7715 20.6585 13.1336 21.2964C12.4957 21.9342 12.4957 22.9684 13.1336 23.6062L17.2169 27.6896C17.8548 28.3274 18.889 28.3274 19.5268 27.6896L27.6935 19.5229Z" fill="white"/>
</svg>
